<?xml version="1.0" standalone="no"?>
<!DOCTYPE svg PUBLIC "-//W3C//DTD SVG 20010904//EN"
 "http://www.w3.org/TR/2001/REC-SVG-20010904/DTD/svg10.dtd">
<svg version="1.0" xmlns="http://www.w3.org/2000/svg"
 width="2388.000000pt" height="1668.000000pt" viewBox="0 0 2388.000000 1668.000000"
 preserveAspectRatio="xMidYMid meet">

<g transform="translate(0.000000,1668.000000) scale(0.100000,-0.100000)"
fill="#000000" stroke="none">
<path d="M4460 16653 c0 -55 -29 -359 -39 -408 -32 -166 -40 -1239 -12 -1595
53 -648 255 -1556 456 -2052 95 -231 161 -342 313 -524 l101 -121 -16 -707
c-18 -786 -20 -757 47 -791 24 -13 2097 -342 2281 -362 28 -3 56 0 70 7 13 7
131 82 262 167 131 84 242 153 245 153 4 0 6 -87 4 -194 -4 -218 2 -244 61
-272 18 -9 214 -43 435 -77 228 -35 402 -67 400 -72 -2 -10 -686 -431 -723
-445 -11 -4 -31 -20 -45 -34 -22 -24 -25 -39 -31 -144 -4 -64 -8 -210 -8 -324
-1 -193 -2 -208 -19 -208 -10 0 -85 16 -167 35 -148 34 -429 84 -595 104 -338
41 -867 49 -1160 18 -287 -31 -517 -75 -755 -144 -185 -53 -295 -97 -480 -189
-278 -138 -438 -266 -601 -482 -154 -206 -244 -412 -303 -697 -78 -380 -35
-777 119 -1099 110 -231 273 -412 514 -570 82 -54 186 -119 233 -144 l86 -47
-7 -165 c-3 -91 -9 -316 -12 -500 -7 -372 -6 -383 56 -415 25 -13 2102 -342
2282 -362 44 -5 55 -2 140 50 51 31 152 94 223 141 183 119 304 196 309 196 2
0 2 -111 -1 -248 -7 -275 -3 -296 57 -327 24 -13 2102 -342 2282 -362 39 -5
55 -1 95 22 48 28 308 194 458 292 l80 53 5 -224 c5 -221 5 -225 29 -250 14
-15 41 -30 60 -35 20 -6 333 -55 696 -111 363 -56 847 -131 1075 -167 566 -89
513 -84 569 -55 35 19 355 223 574 366 l24 16 -5 -233 c-5 -259 -1 -281 58
-312 24 -13 2101 -342 2281 -362 27 -3 56 0 69 7 12 6 165 103 339 214 278
178 613 388 991 619 149 92 190 124 206 163 l14 33 77 -36 c199 -94 379 -200
451 -267 94 -86 242 -177 445 -273 180 -85 287 -129 602 -250 120 -46 329
-106 440 -127 50 -10 155 -31 235 -47 261 -52 378 -61 800 -62 308 -1 445 3
685 21 513 38 1138 35 1635 -7 135 -12 287 -25 338 -29 l92 -7 0 366 0 366
-107 7 c-570 35 -1283 49 -2173 44 -1060 -7 -1201 0 -1489 73 -317 81 -433
131 -744 321 -339 208 -362 221 -416 245 -30 14 -73 37 -95 53 -178 123 -494
292 -681 364 -55 22 -103 42 -108 46 -4 3 -1 22 7 41 12 28 13 137 11 654 l-3
620 -25 56 c-42 96 -22 89 -610 190 -741 126 -1625 276 -1673 284 -50 8 -88
-12 -414 -209 l-225 -136 -2 33 c-14 172 -37 368 -48 394 -23 55 -45 62 -322
99 -298 40 -574 84 -586 94 -11 9 62 55 516 328 208 125 399 246 425 268 l47
42 3 89 4 90 256 6 c366 9 653 42 964 111 62 14 176 37 253 51 478 89 995 271
1440 508 446 237 743 466 956 737 199 254 320 496 350 700 43 297 -10 583
-146 792 -61 92 -238 269 -332 331 -189 125 -440 222 -664 257 l-77 12 -7 312
c-4 171 -5 428 -4 571 l4 260 -26 56 c-45 96 -25 90 -612 190 -435 74 -1560
265 -1675 284 -45 8 -79 -9 -386 -193 -147 -89 -271 -162 -275 -162 -3 0 -6
57 -6 127 0 117 -2 133 -26 184 -45 96 -25 90 -612 190 -287 49 -774 132
-1082 185 -308 53 -583 97 -610 97 -57 1 -24 18 -415 -211 -151 -88 -282 -163
-290 -166 -13 -5 -15 18 -15 176 -1 208 -5 222 -78 260 -36 18 -1027 194
-2054 364 l-213 35 -42 -19 c-24 -10 -144 -80 -268 -154 -124 -74 -234 -140
-246 -146 -20 -11 -21 -10 -20 136 1 139 0 150 -25 203 -45 96 -25 90 -612
190 -435 74 -1560 265 -1675 284 -20 4 -47 -1 -75 -13 -23 -10 -332 -193 -686
-405 -354 -213 -647 -387 -651 -387 -4 0 -24 37 -45 82 -122 269 -262 884
-310 1368 -38 388 -40 680 -9 1085 8 105 21 273 29 375 8 102 21 228 30 280 8
52 17 131 20 175 3 44 14 140 23 213 l18 132 -393 0 -393 0 0 -27z m2055
-4129 c534 -75 973 -139 976 -143 7 -6 -37 -2021 -44 -2028 -4 -3 -1959 295
-1963 300 -2 2 43 1999 45 2005 2 4 17 2 986 -134z m2920 -500 c534 -75 973
-139 976 -143 7 -6 -37 -2021 -44 -2028 -8 -8 -1951 297 -1961 308 -3 3 40
1987 43 1997 2 4 17 2 986 -134z m3050 -450 c534 -75 973 -139 976 -143 7 -6
-37 -2021 -44 -2028 -4 -3 -1959 295 -1963 300 -2 2 43 1999 45 2005 2 4 17 2
986 -134z m2980 -430 c534 -75 973 -139 976 -143 7 -6 -37 -2021 -44 -2028 -2
-2 -443 64 -979 147 -536 82 -978 150 -983 150 -4 0 -4 19 0 43 4 23 7 87 5
141 -3 125 29 1656 36 1754 3 39 9 72 12 72 4 0 444 -61 977 -136z m2865
-1160 c172 -54 230 -103 278 -232 33 -90 41 -231 18 -322 -36 -139 -111 -261
-255 -412 -262 -275 -582 -463 -1256 -736 -427 -172 -541 -211 -803 -271 -306
-71 -603 -109 -912 -118 l-216 -6 4 334 c3 335 15 686 23 693 2 2 290 -41 639
-96 750 -117 730 -114 759 -98 13 6 166 103 340 214 174 112 393 250 486 308
530 328 648 402 675 424 41 35 50 78 50 232 l0 134 33 -8 c17 -3 79 -22 137
-40z m-7100 16 c0 -5 -7 -10 -16 -10 -8 0 -12 5 -9 10 3 6 10 10 16 10 5 0 9
-4 9 -10z m-2190 -960 c1075 -158 1423 -210 1428 -215 8 -7 -41 -2023 -48
-2036 -5 -6 -109 9 -306 45 -297 55 -982 180 -1414 258 -124 22 -228 43 -232
47 -5 4 26 1934 32 1980 0 2 15 1 33 -3 17 -3 246 -37 507 -76z m3040 -480
c1075 -158 1423 -210 1428 -215 8 -7 -41 -2023 -48 -2035 -4 -7 -269 37 -721
120 -393 72 -829 151 -969 176 -140 26 -258 49 -262 53 -5 4 26 1934 32 1980
0 2 15 1 33 -3 17 -3 246 -37 507 -76z m-4765 -460 c270 -20 707 -88 888 -140
l38 -11 -3 -254 c-2 -139 -6 -256 -10 -260 -6 -7 -143 16 -1143 187 l-350 59
-45 -19 c-72 -30 -1431 -850 -1468 -885 -64 -60 -65 -68 -70 -339 -3 -137 -8
-248 -12 -248 -4 0 -44 38 -87 84 -197 208 -259 481 -188 826 15 74 38 166 52
205 38 107 116 244 177 311 251 278 761 451 1421 483 249 12 639 12 800 1z
m-322 -705 c111 -19 321 -54 467 -79 146 -25 371 -64 500 -86 129 -22 240 -40
247 -40 7 0 12 -33 15 -99 3 -89 6 -102 27 -125 14 -14 21 -29 17 -33 -4 -5
-176 -103 -382 -218 l-374 -211 -503 72 c-276 39 -692 97 -924 130 -233 32
-423 61 -423 64 0 11 1094 660 1113 660 10 0 110 -16 220 -35z m4275 -520 c-2
-2 -32 2 -67 8 l-65 12 65 42 64 43 3 -51 c2 -28 2 -53 0 -54z m-4863 -456
c517 -72 943 -134 946 -138 6 -6 -38 -2021 -44 -2028 -3 -3 -1960 296 -1963
300 -2 2 44 1998 45 2006 1 2 18 1 39 -2 20 -3 460 -65 977 -138z m2980 -545
c534 -75 973 -139 976 -143 7 -6 -37 -2021 -44 -2028 -4 -3 -1959 295 -1963
300 -2 2 43 1999 45 2005 2 4 17 2 986 -134z m3000 -495 c517 -73 944 -136
950 -141 6 -5 1 -367 -13 -1015 -13 -554 -24 -1008 -25 -1010 -2 -1 -1685 256
-1882 289 l-80 13 3 120 c1 66 9 453 17 860 8 407 18 805 21 883 l6 144 32 -6
c17 -3 454 -64 971 -137z m3000 -505 c534 -75 973 -139 976 -143 7 -6 -37
-2021 -44 -2028 -4 -3 -1959 295 -1963 300 -2 2 43 1999 45 2005 2 4 17 2 986
-134z"/>
<path d="M6003 11970 c-46 -19 -50 -37 -79 -452 -26 -372 -26 -398 -10 -422
27 -42 67 -55 247 -81 353 -51 528 -22 644 108 63 69 87 139 93 264 3 84 1
114 -17 171 -48 158 -185 276 -396 341 -73 23 -391 81 -435 80 -14 0 -35 -4
-47 -9z m342 -226 c99 -20 161 -51 207 -102 46 -51 62 -100 62 -192 0 -158
-66 -250 -190 -266 -46 -5 -222 11 -233 21 -4 5 28 532 34 552 2 6 12 10 22 8
10 -2 54 -11 98 -21z"/>
<path d="M9198 11475 c-162 -40 -264 -170 -291 -368 -25 -192 48 -388 185
-500 178 -145 479 -189 642 -93 52 30 118 100 145 155 71 138 66 367 -11 521
-109 217 -414 347 -670 285z m276 -192 c59 -22 130 -96 148 -156 8 -24 13 -94
13 -162 0 -112 -2 -124 -28 -178 -39 -79 -87 -110 -167 -110 -167 2 -265 123
-263 328 1 234 117 342 297 278z"/>
<path d="M12023 11055 c-17 -7 -36 -22 -41 -32 -5 -10 -13 -194 -17 -413 l-7
-396 26 -31 c14 -17 38 -35 53 -42 39 -15 664 -121 717 -121 111 0 135 116 34
162 -18 9 -134 32 -258 53 -124 20 -233 39 -242 41 -16 5 -18 18 -18 95 l0 91
28 -6 c137 -27 368 -57 397 -52 38 8 75 47 75 81 0 30 -32 69 -72 88 -18 8
-112 27 -208 42 -96 14 -183 29 -194 32 -17 5 -18 14 -14 89 2 46 8 87 11 91
4 4 109 -8 233 -26 242 -36 292 -36 330 0 45 42 22 119 -45 154 -22 11 -708
116 -747 115 -5 -1 -23 -7 -41 -15z"/>
<path d="M15154 10620 c-184 -39 -254 -171 -182 -343 39 -91 135 -156 343
-233 170 -62 210 -87 220 -135 15 -69 -33 -105 -127 -95 -87 9 -148 39 -213
107 -63 65 -110 86 -169 75 -40 -8 -76 -47 -76 -83 0 -43 30 -91 84 -132 194
-150 548 -203 698 -105 92 59 120 194 64 307 -47 97 -130 152 -359 238 -73 28
-143 57 -157 66 -61 38 -77 96 -39 134 19 19 30 21 93 17 88 -6 140 -31 189
-91 41 -50 110 -83 151 -73 55 14 80 52 77 115 -2 36 -93 120 -171 158 -122
59 -325 94 -426 73z"/>
<path d="M9355 8461 c-58 -36 -67 -54 -75 -153 -5 -51 -14 -244 -20 -430 -13
-326 -12 -337 6 -370 52 -89 202 -91 261 -2 15 24 19 80 34 448 9 231 13 429
9 441 -11 29 -48 65 -77 76 -40 15 -106 10 -138 -10z"/>
<path d="M12065 7948 c-52 -30 -61 -97 -20 -147 27 -32 68 -44 193 -57 34 -4
65 -10 68 -15 2 -4 -3 -166 -12 -358 -16 -343 -16 -350 3 -383 10 -18 35 -43
54 -56 47 -33 132 -27 164 10 28 32 31 61 46 435 7 161 16 298 20 305 6 9 27
9 97 0 127 -17 146 -16 181 14 25 21 31 34 31 64 0 41 -35 94 -68 104 -20 6
-698 96 -721 96 -9 0 -25 -6 -36 -12z"/>
<path d="M5840 5887 c-81 -42 -82 -48 -93 -462 -10 -350 -10 -363 9 -395 10
-18 30 -41 44 -52 54 -40 146 -32 173 16 8 14 15 115 22 291 l10 270 94 -275
c105 -308 117 -337 161 -373 54 -46 147 -48 187 -4 19 20 166 346 208 462 10
28 22 54 27 60 4 5 8 -116 8 -268 l0 -277 36 -40 c44 -49 96 -66 154 -50 74
20 73 15 78 434 l4 371 -29 55 c-49 92 -171 149 -263 121 -70 -21 -89 -51
-197 -301 -55 -129 -105 -248 -111 -265 l-9 -30 -12 45 c-28 106 -188 547
-211 582 -65 97 -196 135 -290 85z"/>
<path d="M8933 5325 c-17 -7 -36 -22 -41 -32 -5 -10 -13 -194 -17 -413 l-7
-396 26 -31 c14 -17 38 -35 53 -42 39 -15 664 -121 717 -121 111 0 135 116 34
162 -18 9 -134 32 -258 53 -124 20 -233 39 -242 41 -16 5 -18 18 -18 95 l0 91
28 -6 c137 -27 368 -57 397 -52 38 8 75 47 75 81 0 30 -32 69 -72 88 -18 8
-112 27 -208 42 -96 14 -183 29 -194 32 -17 5 -18 14 -14 89 2 46 8 87 11 91
4 4 109 -8 233 -26 242 -36 292 -36 330 0 45 42 22 119 -45 154 -22 11 -708
116 -747 115 -5 -1 -23 -7 -41 -15z"/>
<path d="M11945 4838 c-52 -30 -61 -97 -20 -147 27 -32 68 -44 193 -57 34 -4
65 -10 68 -15 2 -4 -3 -166 -12 -358 -16 -343 -16 -350 3 -383 10 -18 35 -43
54 -56 47 -33 132 -27 164 10 28 32 31 61 46 435 7 161 16 298 20 305 6 9 27
9 97 0 127 -17 146 -16 181 14 25 21 31 34 31 64 0 41 -35 94 -68 104 -20 6
-698 96 -721 96 -9 0 -25 -6 -36 -12z"/>
<path d="M15210 4294 c-45 -19 -77 -50 -100 -94 -10 -19 -81 -183 -159 -363
-135 -312 -142 -330 -131 -362 18 -54 75 -95 131 -95 63 0 91 25 125 110 15
39 32 70 38 70 32 1 373 -55 382 -62 6 -5 19 -36 29 -71 23 -83 39 -111 76
-137 88 -63 209 -28 209 61 0 41 -267 807 -295 849 -63 91 -209 136 -305 94z
m129 -262 c5 -26 28 -105 50 -177 23 -71 41 -135 41 -141 0 -8 -36 -5 -122 8
-67 10 -124 20 -125 22 -2 2 18 59 45 127 27 68 55 142 62 164 22 71 33 70 49
-3z"/>
</g>
</svg>
