<?xml version="1.0" encoding="utf-8"?>
<!-- Generator: Adobe Illustrator 26.3.1, SVG Export Plug-In . SVG Version: 6.00 Build 0)  -->
<svg version="1.1" id="Ebene_1" xmlns="http://www.w3.org/2000/svg" xmlns:xlink="http://www.w3.org/1999/xlink" x="0px" y="0px"
	 viewBox="0 0 2388 1668" style="enable-background:new 0 0 2388 1668;" xml:space="preserve">
<style type="text/css">
	.st0{fill:#2A3106;}
	.st1{fill:#1A1A1A;}
	.st2{fill:#22345D;}
	.st3{fill:#727A15;}
	.st4{fill:#D4FF00;}
</style>
<g transform="translate(0.000000,1668.000000) scale(0.100000,-0.100000)">
	<g id="XMLID_00000040553892186571558180000004369268497212641699_">
		<g>
			<path class="st0" d="M8910,6726v-81l-326-195c-180-107-340-208-356-225c-57-58-61-73-66-290c-4-173-7-203-23-223
				c-61-79-73-263-25-392c28-75,28-76,27-305c-1-126-4-267-7-312l-6-83l-142-91c-77-50-203-131-280-180c-76-50-141-89-145-87
				c-3,2,4,422,16,933c12,512,22,955,22,986l1,56l503,281c276,155,516,291,532,301c38,24,53,25,175,4l100-16V6726z"/>
			<path d="M19398,9654c12-150,12-166-5-294c-18-141-44-223-114-363c-130-260-350-528-594-722c-361-288-934-579-1465-745
				c-199-62-476-131-620-155c-58-9-153-28-211-41c-298-68-589-102-956-111l-261-6l-4-90l-3-89l-46-42c-25-22-216-143-425-268
				c-428-256-550-333-557-352c-7-18,119-42,526-101c196-29,316-51,331-61c49-31,59-75,64-261c3-107,8-173,15-173c5,0,132,73,280,163
				c149,89,287,168,306,174c25,10,50,10,100,3c68-11,1863-316,2084-355c141-25,169-66,185-280c13-176,7-1970-7-2023
				c-15-55-42-75-346-262c-371-228-607-377-925-580l-285-182l-55,6c-30,3-98,12-150,20c-52,9-546,85-1097,170
				c-599,93-1015,162-1033,171c-57,30-62,54-58,291c1,118,2,214,0,214c-3,0-37-22-298-193c-255-166-261-170-318-164
				c-28,3-343,50-701,106c-357,56-852,133-1100,171c-247,39-462,75-477,81c-14,6-37,22-50,36c-23,24-23,28-23,244
				c0,155-3,218-11,215c-6-2-56-33-110-69c-426-277-460-297-498-297c-14,0-81,9-148,20c-68,11-574,89-1125,175
				c-598,92-1015,161-1033,170c-59,30-63,53-58,306c3,159,1,226-6,221c-6-3-67-43-136-87c-474-309-457-299-523-292
				c-197,22-2252,349-2277,362c-65,34-64,27-51,597c13,580,21,517-72,563c-70,36-323,200-394,257c-139,110-292,306-368,471
				c-180,390-200,834-59,1305c95,319,320,631,586,816c118,81,322,188,478,249c748,296,1785,337,2777,112c84-19,159-35,168-35
				c13,0,15,29,16,213c0,116,4,263,8,324c7,106,9,115,36,143c16,16,33,30,38,30c11,0,738,442,734,447c-2,1-183,30-403,63
				c-219,33-414,65-431,71c-18,6-43,25-55,42c-22,31-23,38-20,235c2,111,1,202-2,202c-2,0-114-71-248-157c-133-86-255-161-270-167
				c-19-7-49-6-100,2c-40,7-553,86-1140,177c-652,100-1080,171-1098,180c-68,35-66-40-38,1207c27,1228,21,1148,86,1213
				c30,30,1419,870,1476,892c17,7,49,10,71,7c37-5,1846-312,2087-354c129-22,160-41,197-119c24-53,26-65,26-204c0-118,3-146,13-142
				c7,3,121,70,252,149s252,147,267,150c29,7,425-53,1063-159c179-30,496-82,705-115c547-87,502-77,546-118c30-27,44-50,61-105
				c19-63,20-84,14-209c-5-104-3-138,6-138c6,0,153,88,326,197c269,168,321,197,362,201c26,2,110-5,186-17s261-39,409-61
				c706-103,843-123,1025-150c107-16,292-43,410-60s229-36,247-41c18-6,45-25,62-44c46-52,62-126,60-271c0-68,3-124,7-124
				c5,0,121,68,257,151s262,156,278,162c32,13,56,9,684-87c160-25,409-63,555-86c146-22,378-58,515-80c138-21,302-46,365-55
				s129-20,146-26c46-14,91-67,114-134c20-57,21-73,14-285c-4-124-3-372,1-552c7-318,8-328,27-328c47,0,232-44,336-80
				c224-78,394-176,539-313C19276,10129,19376,9926,19398,9654z M18626,9430c23,91,15,232-18,321c-47,127-110,180-278,233
				c-58,18-120,37-137,40l-33,8v-134c0-166-8-197-63-241c-23-19-199-130-392-247c-192-117-525-323-738-457c-384-242-388-245-435-241
				c-26,2-332,48-680,102c-349,54-636,95-640,91c-9-9-20-328-24-699l-3-319l215,7c297,9,595,46,870,107c271,61,373,94,720,231
				c723,287,1051,467,1324,728C18480,9119,18589,9284,18626,9430z M17931,10747l-3,472c-1,258.4-5,470-8,470s-124-68-270-151
				s-314-178-375-212c-60-35-224-127-362-205l-253-143v-46c0-26-9-423-20-882c-23-962-23-1020-11-1020c5,0,123,70,263,157
				c139,86,278,170,308,188c90,51,584,356,594,365c24,23-283,253-446,336c-38,19-68,39-68,44s-14,22-31,37c-67,60-109,186-109,328
				c0,91,28,150,106,225l57,53l206-1c113-1,255-5,314-8L17931,10747z M17815,3559l-1,153c-1,84-5,503-10,931c-4,427-10,777-13,777
				s-26-12-51-26s-144-81-265-149s-326-182-455-255s-287-161-351-197l-117-65l-7-212c-4-116-6-247-4-291c1-44-3-244-10-445
				c-19-573-27-1020-17-1020c4,0,130,76,280,169c149,93,440,272,646,399L17815,3559z M17693,11829c8,8-83,24-498,87
				c-126,19-342,52-480,74c-137,21-383,60-545,85s-304,47-316,50c-14,3-171-87-515-297c-272-166-524-320-562-342l-67-41l37-7
				c21-4,216-30,433-58c217-27,483-61,590-75c878-114,807-107,842-89c18,9,125,69,238,134s347,197,520,294
				C17543,11742,17689,11825,17693,11829z M17515,5534l70,40l-100,17c-55,10-314,54-575,98c-261,45-632,108-825,141
				c-192,33-354,60-360,60c-11-1-1104-655-1119-670c-6-6-6-10-2-10s425-59,934-131c757-106,931-128,951-119c23,10,272,149,566,315
				c61,34,173,97,250,140S17477,5512,17515,5534z M16378,8974c8,8,51,2000,43,2008c-3,3-132,23-286,43c-154,19-449,58-655,85
				s-501,65-655,85s-296,38-317,41l-36,6l-6-83c-8-118-41-1887-35-1893C14441,9256,16371,8967,16378,8974z M16267,2703
				c6,7,51,2022,44,2028c-3,4-442,68-976,143c-974,137-984,138-986,134c-1-5-47-2003-46-2005C14308,2999,16263,2700,16267,2703z
				 M14981,12010c1,68-3,125-7,126c-5,1-72-34-149-78s-243-139-370-210c-630-357-757-431-760-441c-2-7-9-178-15-382
				c-5-203-15-505-20-670c-15-418-28-909-25-913c4-5,536,327,557,347c15,14,18,54,24,327l7,310l-35,45c-112,148-112,434,2,531l38,33
				l7,169c11,237-14,208,397,461c180,110,332,205,337,210C14975,11881,14980,11941,14981,12010z M14965,8707l6,241l-43,7
				c-24,3-56,8-73,10c-24,4-81-24-285-138c-140-79-356-198-480-266s-250-139-281-158l-57-33l-6-133c-10-220-47-1819-42-1824
				s421,243,518,309c32,21,66,41,75,45c33,12,323,186,323,194c0,23-287,261-385,319c-64,38-135,118-169,189c-28,59-31,76-31,156
				c1,77,5,98,28,145c57,116,165,190,276,190c31,0,106-9,166-19c98-17,238-33,391-44l52-4l6,286C14957,8336,14962,8574,14965,8707z
				 M14848,5779c1,78-1,148-5,156c-9,15-19,10-204-111c-53-34-120-74-150-89s-249-135-486-267l-433-241l-1-66
				c-12-756-22-1897-18-1899c6-3,501,318,523,338c4,4,12,158,16,342c9,326,8,334-13,403c-32,103-30,237,5,325c24,61,26,78,31,265
				c4,217,8,233,65,290c16,16,173,116,348,221l319,191L14848,5779z M14382,12075c202,115,364,212,360,215c-4,4-104,21-222,38
				c-479,70-1371,203-1455,217c-49,8-119,17-155,20l-65,6l-370-232c-203-127-454-283-558-347c-103-63-186-117-184-118
				c4-4,181-27,932-119c336-41,687-85,780-96l170-22l200,115C13925,11815,14180,11960,14382,12075z M14519,6020l53,33l-29,12
				c-15,7-51,15-78,19c-131,18-334,49-471,73l-151,26l-107-66c-76-46-121-67-154-72c-35-4-180,16-562,79c-283,47-525,87-538,90
				c-15,2-66-22-150-71c-70-41-174-102-232-135c-237-137-446-261-460-274c-13-12-13-14,0-14c19,0,811-116,1190-174
				c162-25,377-57,477-72l182-27l303,168c167,93,386,214,488,270S14489,6001,14519,6020z M14190,8880c228,125,253,140,248,145
				c-2,2-37,9-78,16c-134,20-160,49-160,172v74l-124,16c-67,9-136,19-152,22c-24,4-55-11-179-90l-150-96l-60,5c-33,3-277,39-543,80
				l-484,75l-43-32c-24-18-188-120-364-227c-293-178-319-196-294-203c23-6,480-74,1668-248l150-22l180,100
				C13904,8722,14077,8818,14190,8880z M13458,6295c8,8,58,2042,50,2050c-4,5-393,63-1463,220c-242,36-454,67-471,70l-32,5l-6-172
				c-3-95-10-459-16-808c-5-349-12-728-16-841l-5-207l63-11C12068,6514,13453,6290,13458,6295z M13435,10705c14,389,19,714,13,716
				c-53,10-1951,243-1957,239c-4-3-15-410-25-905c-9-495-19-937-22-982c-7-97-27-84,176-112c74-11,421-62,770-115
				c877-131,1000-149,1004-145c2,2,9,200,15,439C13416,10079,13427,10469,13435,10705z M13336,4858c5,291,4,382-5,382
				c-6,0-127,18-269,40c-141,21-475,71-742,110s-585,86-708,105s-225,35-227,35c-8,0-16-260-30-1015c-8-445-17-851-20-902l-4-92
				l32-6c31-5,1658-260,1847-289c52-8,96-13,98-11s8,286,12,632C13325,4192,13332,4647,13336,4858z M11925,9205v90v90l-75,12
				c-41,6-88,12-105,12c-20,0-103-40-250-122c-121-68-321-179-445-246c-124-68-250-139-281-158l-57-33l-6-133
				c-8-184-48-1848-44-1852c2-2,134,82,293,187c160,105,297,193,306,195c14,4,17,35,22,224l7,220l-29,25c-64,54-117,219-108,339
				s53,208,125,244c21,11,22,17,23,154c0,78,4,193,8,254c7,106,9,115,36,143c16,16,34,30,39,30c6,0,130,74,276,163L11925,9205z
				 M11910,6164v72v72l-62,11c-111,19-143,21-165,11c-13-5-213-116-445-246c-233-131-470-264-527-296s-106-59-107-61
				c-2-2-13-399-24-883c-11-483-21-927-22-987c-2-59,0-107,4-107c6,0,74,43,408,259l135,87l7,75c3,41,7,178,7,304
				c2,226,1,231-23,278c-76,148-68,375,18,466c23,25,24,31,28,231c5,225,9,239,70,296c27,25,227,145,646,388L11910,6164z
				 M11900,12252v159c0,88-1,159-2,159c-2,0-61-33-133-73c-71-40-247-139-390-219c-577-323-730-411-737-421c-3-6-7-83-7-171
				c-1-89-8-485-17-881c-8-396-14-763-12-817l3-96l265,168c146,92,285,180,310,196l45,29l6,290l6,290l-30,34c-124,144-126,444-2,547
				l43,37l3,157c4,152,5,158,32,199c30,46,73,75,420,291L11900,12252z M11663,12709c9,8-249,52-1207,207c-358,57-655,104-660,103
				c-6,0-79-42-161-92c-83-51-331-202-552-336s-400-248-397-252c3-5,15-9,28-9c12,0,254-32,537-71c1206-165,1296-176,1326-161
				c16,8,118,65,228,127s346,194,525,295C11509,12620,11659,12705,11663,12709z M11264,6365l68,37l-31,16c-46,22-61,58-61,147
				c0,41-1,75-2,76c-2,0-88,15-193,34l-190,33l-45-31c-25-17-83-57-130-90l-85-58l-60,6c-33,4-136,20-230,35c-93,16-318,54-498,85
				c-180,30-331,55-335,55c-9,0-803-478-816-491c-6-5-7-9-2-9c4,0,424-59,934-131c733-103,931-128,950-119c22,10,592,327,637,355
				C11186,6322,11226,6344,11264,6365z M11187,9380c144,80,168,100,121,100c-11,0-35,15-54,34l-34,34v106c0,58-4,106-8,106
				c-5,0-73,9-152,20s-151,20-159,19c-9,0-88-47-176-105c-155-100-162-104-210-101c-27,2-279,38-559,82l-510,78l-40-23
				c-23-12-182-109-354-214c-284-174-310-192-285-199c23-6,521-80,1668-248l150-22l225,125C10934,9240,11103,9334,11187,9380z
				 M10425,6802c5,7,48,2018,43,2023c-4,5-397,64-1463,220c-242,36-455,67-472,70c-18,3-33,5-33,3c-3-19-38-1983-36-1986
				c2-1,201-36,442-77c242-40,681-115,978-165C10180,6840,10424,6801,10425,6802z M10356,9853c7,7,48,2006,41,2013
				c-2,2-89,15-193,29s-432,59-729,100s-644,88-772,105c-127,16-241,30-252,30c-16,0-21-8-25-42c-3-24-10-455-16-958s-13-930-16-948
				c-3-21-1-34,8-37c7-3,371-59,808-125c437-65,873-131,968-145C10274,9860,10354,9850,10356,9853z M10317,3703c6,7,51,2022,44,2028
				c-3,4-442,68-976,143c-972,136-984,138-986,134c-1-5-47-2003-45-2005C8358,3999,10313,3700,10317,3703z M8985,12806l-3,132
				c-2,73-6,132-10,132s-176-95-382-211s-476-268-600-338c-124-69-233-131-243-136c-15-10-18-83-37-890c-11-484-21-928-22-988
				c-2-66,1-107,7-107s114,67,240,149l230,148l6,94c4,52,7,220,8,375c1,255-1,288-20,364c-26,101-22,195,10,280c18,48,21,77,21,230
				c0,96,5,192,9,214c18,74,53,102,367,294c164,100,326,199,359,220L8985,12806z M8910,6645v81v81l-100,16c-122,21-137,20-175-4
				c-16-10-256-146-532-301l-503-281l-1-56c0-31-10-474-22-986c-12-511-19-931-16-933c4-2,69,37,145,87c77,49,203,130,280,180
				l142,91l6,83c3,45,6,186,7,312c1,229,1,230-27,305c-48,129-36,313,25,392c16,20,19,50,23,223c5,217,9,232,66,290
				c16,17,176,118,356,225L8910,6645z M8754,13219c3,4-68,19-157,34s-344,58-567,96s-565,97-762,130c-196,34-360,61-365,61
				c-9,0-1103-656-1118-671c-5-5-6-9-1-9c4,0,424-59,934-131c733-103,931-128,950-119c13,6,157,85,320,177c387,217,502,281,644,360
				C8697,13183,8752,13215,8754,13219z M7932,6688c323,181,384,218,365,225c-51,19-57,34-57,138c0,94-1,99-22,104
				c-13,2-223,39-468,80c-245,42-562,96-706,120c-144,25-265,45-270,45c-10,0-1104-656-1118-670c-6-6-7-10-2-10c4,0,424-59,933-131
				c509-71,933-127,942-124S7719,6569,7932,6688z M8239,7674l3,273l-58,16c-226,63-622,121-964,141c-677,41-1005,20-1380-86
				c-319-90-611-247-749-404c-100-114-179-290-221-494c-35-173-43-264-30-370c27-214,89-349,225-485l89-90l6,235c7,255,9,266,68,325
				c33,34,1424,873,1480,893c40,14,14,18,991-149c288-49,526-87,530-84C8232,7399,8237,7524,8239,7674z M7447,10353
				c6,7,51,2022,44,2028c-3,4-442,68-976,143c-974,137-984,138-986,134c-1-5-47-2003-45-2005C5488,10649,7443,10350,7447,10353z
				 M7317,4213c6,7,51,2022,44,2028c-3,4-442,68-976,143c-970,136-984,138-986,134c-1-5-47-2003-45-2005
				C5358,4509,7313,4210,7317,4213z"/>
			<path class="st1" d="M17928,11219l3-472l-108,7c-59,3-201,7-314,8l-206,1l-57-53c-78-75-106-134-106-225c0-142,42-268,109-328
				c17-15,31-32,31-37s30-25,68-44c163-83,470-313,446-336c-10-9-504-314-594-365c-30-18-169-102-308-188c-140-87-258-157-263-157
				c-12,0-12,58,11,1020c11,459,20,856,20,882v46l253,143c138,78,302,170,362,205c61,34,229,129,375,212s267,151,270,151
				S17927,11477.4,17928,11219z"/>
			<path class="st1" d="M17814,3712l1-153l-375-231c-206-127-497-306-646-399c-150-93-276-169-280-169c-10,0-2,447,17,1020
				c7,201,11,401,10,445c-2,44,0,175,4,291l7,212l117,65c64,36,222,124,351,197s334,187,455,255s240,135,265,149s48,26,51,26
				s9-350,13-777C17809,4215,17813,3796,17814,3712z"/>
			<path class="st2" d="M17195,11916c415-63,506-79,498-87c-4-4-150-87-323-185c-173-97-407-229-520-294s-220-125-238-134
				c-35-18,36-25-842,89c-107,14-373,48-590,75c-217,28-412,54-433,58l-37,7l67,41c38,22,290,176,562,342c344,210,501,300,515,297
				c12-3,154-25,316-50s408-64,545-85C16853,11968,17069,11935,17195,11916z"/>
			<path class="st2" d="M17585,5574l-70-40c-38-22-133-76-210-119s-189-106-250-140c-294-166-543-305-566-315c-20-9-194,13-951,119
				c-509,72-930,131-934,131s-4,4,2,10c15,15,1108,669,1119,670c6,0,168-27,360-60c193-33,564-96,825-141c261-44,520-88,575-98
				L17585,5574z"/>
			<path d="M15796,9983c56-114,28-247-65-308c-138-92-468-49-672,87c-99,67-134,144-90,200c49,62,142,46,223-38
				c63-66,102-88,186-104c84-17,134-3,152,41c11,26,10,36-4,65c-13,29-31,42-89,69c-39,18-101,43-137,55c-246,84-354,189-354,345
				c0,77,14,113,61,156c38,36,68,51,133,66c71,16,208,8,303-18c257-71,394-239,256-313c-54-29-108-11-174,59c-65,68-104,87-191,93
				c-63,4-74,2-93-17c-49-49-9-120,91-159c29-11,102-40,161-62C15677,10129,15751,10076,15796,9983z"/>
			<path d="M15810,3352c0-67-78-112-155-91c-62,17-100,64-127,154c-16,55-29,80-43,86c-19,8-338,59-368,59c-8,0-25-29-41-70
				c-34-86-62-110-127-110c-40,0-55,6-83,30c-19,17-40,46-46,65c-11,32-3,52,139,382c82,191,162,363,177,382c14,18,45,42,68,52
				c102,46,248,3,313-94C15545,4156,15810,3391,15810,3352z M15183,3744c8-9,247-39,247-32c0,5-22,83-50,174c-27,91-50,171-50,179
				c0,16-17,29-23,18c-2-5-10-26-17-48s-35-96-62-164S15181,3746,15183,3744z"/>
			<path class="st1" d="M14974,12136c4-1,8-58,7-126c-1-69-6-129-12-135c-5-5-157-100-337-210c-411-253-386-224-397-461l-7-169
				l-38-33c-114-97-114-383-2-531l35-45l-7-310c-6-273-9-313-24-327c-21-20-553-352-557-347c-3,4,10,495,25,913c5,165,15,467,20,670
				c6,204,13,375,15,382c3,10,130,84,760,441c127,71,293,166,370,210S14969,12137,14974,12136z"/>
			<path class="st1" d="M14971,8948l-6-241c-3-133-8-371-11-528l-6-286l-52,4c-153,11-293,27-391,44c-60,10-135,19-166,19
				c-111,0-219-74-276-190c-23-47-27-68-28-145c0-80,3-97,31-156c34-71,105-151,169-189c98-58,385-296,385-319c0-8-290-182-323-194
				c-9-4-43-24-75-45c-97-66-513-314-518-309s32,1604,42,1824l6,133l57,33c31,19,157,90,281,158s340,187,480,266
				c204,114,261,142,285,138c17-2,49-7,73-10L14971,8948z"/>
			<path class="st1" d="M14843,5935c4-8,6-78,5-156l-3-142l-319-191c-175-105-332-205-348-221c-57-57-61-73-65-290
				c-5-187-7-204-31-265c-35-88-37-222-5-325c21-69,22-77,13-403c-4-184-12-338-16-342c-22-20-517-341-523-338c-4,2,6,1143,18,1899
				l1,66l433,241c237,132,456,252,486,267s97,55,150,89C14824,5945,14834,5950,14843,5935z"/>
			<path class="st2" d="M14742,12290c4-3-158-100-360-215s-457-260-567-323l-200-115l-170,22c-93,11-444,55-780,96
				c-751,92-928,115-932,119c-2,1,81,55,184,118c104,64,355,220,558,347l370,232l65-6c36-3,106-12,155-20c84-14,976-147,1455-217
				C14638,12311,14738,12294,14742,12290z"/>
			<path class="st2" d="M14572,6053l-53-33c-30-19-137-79-239-135s-321-177-488-270l-303-168l-182,27c-100,15-315,47-477,72
				c-379,58-1171,174-1190,174c-13,0-13,2,0,14c14,13,223,137,460,274c58,33,162,94,232,135c84,49,135,73,150,71c13-3,255-43,538-90
				c382-63,527-83,562-79c33,5,78,26,154,72l107,66l151-26c137-24,340-55,471-73c27-4,63-12,78-19L14572,6053z"/>
			<path class="st2" d="M14438,9025c5-5-20-20-248-145c-113-62-286-158-385-213l-180-100l-150,22c-1188,174-1645,242-1668,248
				c-25,7,1,25,294,203c176,107,340,209,364,227l43,32l484-75c266-41,510-77,543-80l60-5l150,96c124,79,155,94,179,90
				c16-3,85-13,152-22l124-16v-74c0-123,26-152,160-172C14401,9034,14436,9027,14438,9025z"/>
			<path d="M12890,7760c0-30-6-43-31-64c-35-30-54-31-180-14c-49,6-92,8-96,4s-15-165-24-358c-15-315-18-353-36-376
				c-54-72-174-52-227,37c-18,32-18,41-2,383c9,192,14,354,11,359c-4,5-21,9-38,9c-18,1-68,7-112,15c-67,12-84,19-107,45
				c-45,49-36,117,17,148c11,6,28,12,38,12c25,0,698-89,719-96C12855,7854,12890,7801,12890,7760z"/>
			<path d="M12863,10908c43-57,7-124-71-135c-24-3-136,8-266,28c-124,18-229,30-232,26c-3-3-9-44-11-91c-7-100-34-84,212-122
				c94-14,185-33,203-41c40-19,72-58,72-88c0-34-37-73-76-81c-29-5-306,31-401,53c-23,5-23,3-23-86c0-86,1-91,23-96
				c12-3,121-21,241-40c225-37,278-52,301-89c28-46,28-65-4-96c-24-25-38-30-76-30c-55,0-678,105-718,121c-15,7-39,26-54,43l-26,31
				l7,395c7,356,9,397,25,420c10,13,29,28,42,31c13,4,29,7,34,8c6,1,170-22,365-50C12799,10967,12824,10960,12863,10908z"/>
			<path d="M12745,4719c47-57,25-138-41-155c-15-4-73-1-130,6s-107,10-111,6s-15-165-24-358c-19-390-19-389-90-413
				c-63-21-135,10-173,75c-19,31-19,40-2,381c9,193,14,354,11,359c-4,6-21,10-38,10c-18,1-68,7-112,15c-67,12-84,19-107,45
				c-45,49-36,117,17,148c11,6,28,12,38,12c25,0,698-89,719-96C12711,4751,12731,4735,12745,4719z"/>
			<path class="st1" d="M11925,9295v-90l-265-162c-146-89-270-163-276-163c-5,0-23-14-39-30c-27-28-29-37-36-143c-4-61-8-176-8-254
				c-1-137-2-143-23-154c-72-36-116-124-125-244s44-285,108-339l29-25l-7-220c-5-189-8-220-22-224c-9-2-146-90-306-195
				c-159-105-291-189-293-187c-4,4,36,1668,44,1852l6,133l57,33c31,19,157,90,281,158c124,67,324,178,445,246
				c147,82,230,122,250,122c17,0,64-6,105-12l75-12V9295z"/>
			<path class="st1" d="M11910,6236v-72l-52-30c-419-243-619-363-646-388c-61-57-65-71-70-296c-4-200-5-206-28-231
				c-86-91-94-318-18-466c24-47,25-52,23-278c0-126-4-263-7-304l-7-75l-135-87c-334-216-402-259-408-259c-4,0-6,48-4,107
				c1,60,11,504,22,987c11,484,22,881,24,883c1,2,50,29,107,61s294,165,527,296c232,130,432,241,445,246c22,10,54,8,165-11l62-11
				V6236z"/>
			<path class="st1" d="M11900,12411v-159l-197-122c-347-216-390-245-420-291c-27-41-28-47-32-199l-3-157l-43-37
				c-124-103-122-403,2-547l30-34l-6-290l-6-290l-45-29c-25-16-164-104-310-196l-265-168l-3,96c-2,54,4,421,12,817
				c9,396,16,792,17,881c0,88,4,165,7,171c7,10,160,98,737,421c143,80,319,179,390,219c72,40,131,73,133,73
				C11899,12570,11900,12499,11900,12411z"/>
			<path class="st2" d="M10456,12916c958-155,1216-199,1207-207c-4-4-154-89-333-189c-179-101-415-233-525-295s-212-119-228-127
				c-30-15-120-4-1326,161c-283,39-525,71-537,71c-13,0-25,4-28,9c-3,4,176,118,397,252s469,285,552,336c82,50,155,92,161,92
				C9801,13020,10098,12973,10456,12916z"/>
			<path class="st2" d="M11332,6402l-68-37c-38-21-78-43-89-50c-45-28-615-345-637-355c-19-9-217,16-950,119
				c-510,72-930,131-934,131c-5,0-4,4,2,9c13,13,807,491,816,491c4,0,155-25,335-55c180-31,405-69,498-85c94-15,197-31,230-35l60-6
				l85,58c47,33,105,73,130,90l45,31l190-33c105-19,191-34,193-34c1-1,2-35,2-76c0-89,15-125,61-147L11332,6402z"/>
			<path class="st2" d="M11308,9480c47,0,23-20-121-100c-84-46-253-140-377-208l-225-125l-150,22c-1147,168-1645,242-1668,248
				c-25,7,1,25,285,199c172,105,331,202,354,214l40,23l510-78c280-44,532-80,559-82c48-3,55,1,210,101c88,58,167,105,176,105
				c8,1,80-8,159-19s147-20,152-20c4,0,8-48,8-106v-106l34-34C11273,9495,11297,9480,11308,9480z"/>
			<path d="M9628,11419c192-94,302-276,302-499c0-246-110-403-311-446c-192-41-424,29-565,170c-116,116-167,275-147,457
				c22,199,122,330,283,373C9316,11508,9494,11486,9628,11419z M9640,10968c0,161-49,259-154,308c-64,30-136,31-191,4
				c-77-38-117-131-118-275c-1-103,18-171,63-233c38-53,118-92,191-94C9567,10675,9640,10776,9640,10968z"/>
			<path d="M9713,5229c71-29,100-114,53-158c-38-36-89-36-331-1c-124,19-228,31-231,27c-3-3-9-44-11-91c-7-100-34-84,212-122
				c94-14,185-33,203-41c40-19,72-58,72-88c0-34-37-73-75-81c-28-5-280,28-397,52l-28,6v-91c0-86,1-91,23-96c12-3,120-21,241-40
				c223-36,277-52,301-89c28-46,28-65-4-96c-24-25-38-30-76-30c-55,0-678,105-718,121c-15,7-39,26-54,43l-26,31l7,395
				c7,356,9,397,25,420c10,13,29,28,42,31c13,4,29,7,35,8C9002,5341,9688,5239,9713,5229z"/>
			<path d="M9561,8409c17-32,17-55,1-455c-19-462-17-453-85-495c-42-26-134-22-175,8c-58,42-57,37-39,497c16,384,19,422,37,451
				c11,18,35,40,53,49C9427,8500,9528,8474,9561,8409z"/>
			<path class="st1" d="M8982,12938l3-132l-60-38c-33-21-195-120-359-220c-314-192-349-220-367-294c-4-22-9-118-9-214
				c0-153-3-182-21-230c-32-85-36-179-10-280c19-76,21-109,20-364c-1-155-4-323-8-375l-6-94l-230-148c-126-82-234-149-240-149
				s-9,41-7,107c1,60,11,504,22,988c19,807,22,880,37,890c10,5,119,67,243,136c124,70,394,222,600,338s378,211,382,211
				S8980,13011,8982,12938z"/>
			<path class="st2" d="M8597,13253c89-15,160-30,157-34c-2-4-57-36-122-72c-142-79-257-143-644-360c-163-92-307-171-320-177
				c-19-9-217,16-950,119c-510,72-930,131-934,131c-5,0-4,4,1,9c15,15,1109,671,1118,671c5,0,169-27,365-61c197-33,539-92,762-130
				S8508,13268,8597,13253z"/>
			<path class="st3" d="M8297,6913c19-7-42-44-365-225c-213-119-394-220-403-223s-433,53-942,124c-509,72-929,131-933,131
				c-5,0-4,4,2,10c14,14,1108,670,1118,670c5,0,126-20,270-45c144-24,461-78,706-120c245-41,455-78,468-80c21-5,22-10,22-104
				C8240,6947,8246,6932,8297,6913z"/>
			<path class="st4" d="M7361,6241c7-6-38-2021-44-2028c-4-3-1959,296-1963,300c-2,2,44,2000,45,2005c2,4,16,2,986-134
				C6919,6309,7358,6245,7361,6241z M6953,4967c4,71,7,240,7,376c0,201-3,255-16,285c-52,126-218,188-321,120c-37-24-47-42-145-270
				c-58-133-109-256-112-272c-9-38-17-28-37,47c-20,78-164,487-184,526c-21,42-98,106-143,119c-45,14-94,14-137,1c-17-4-46-24-64-43
				c-31-32-34-41-41-123c-5-48-12-219-15-379c-7-256-6-294,9-321c48-93,192-110,224-26c6,16,14,143,18,286c3,142,8,256,10,254
				c3-2,38-103,79-223c112-331,131-379,171-413c56-50,149-54,192-8c11,12,66,130,122,262s105,249,110,260c5,12,9-98,9-264l1-284
				l44-42c64-62,139-69,189-19C6945,4838,6947,4851,6953,4967z"/>
			<path d="M6960,5343c0-136-3-305-7-376c-6-116-8-129-30-151c-50-50-125-43-189,19l-44,42l-1,284c0,166-4,276-9,264
				c-5-11-54-128-110-260s-111-250-122-262c-43-46-136-42-192,8c-40,34-59,82-171,413c-41,120-76,221-79,223c-2,2-7-112-10-254
				c-4-143-12-270-18-286c-32-84-176-67-224,26c-15,27-16,65-9,321c3,160,10,331,15,379c7,82,10,91,41,123c18,19,47,39,64,43
				c43,13,92,13,137-1c45-13,122-77,143-119c20-39,164-448,184-526c20-75,28-85,37-47c3,16,54,139,112,272c98,228,108,246,145,270
				c103,68,269,6,321-120C6957,5598,6960,5544,6960,5343z"/>
			<path d="M6625,11846c214-105,304-252,293-478c-6-118-29-190-83-261c-106-139-293-175-630-122c-190,30-226,41-252,81
				c-16,25-18,50-15,278c1,138,5,325,8,415c6,154,8,166,30,188c30,30,91,30,267,3C6430,11921,6524,11896,6625,11846z M6601,11275
				c27,60,33,206,10,269c-31,87-117,150-248,180c-40,9-85,16-101,16c-27,0-30-3-35-42c-4-24-9-151-13-284c-6-230-6-241,12-248
				c11-5,65-10,121-13C6501,11144,6554,11170,6601,11275z"/>
		</g>
		<g>
		</g>
	</g>
</g>
</svg>
