<?xml version="1.0" standalone="no"?>
<!DOCTYPE svg PUBLIC "-//W3C//DTD SVG 20010904//EN"
 "http://www.w3.org/TR/2001/REC-SVG-20010904/DTD/svg10.dtd">
<svg version="1.0" xmlns="http://www.w3.org/2000/svg"
 width="3144.000000pt" height="2976.000000pt" viewBox="0 0 3144.000000 2976.000000"
 preserveAspectRatio="xMidYMid meet">

<g transform="translate(0.000000,2976.000000) scale(0.100000,-0.100000)"
fill="#000000" stroke="none">
<path d="M12870 27153 c-176 -34 -51 27 -4210 -2075 -2203 -1114 -4027 -2033
-4054 -2043 -75 -29 -194 -110 -258 -178 -112 -116 -193 -280 -218 -442 -7
-49 -10 -2392 -8 -7855 l3 -7785 23 -73 c95 -307 350 -524 652 -557 36 -3
3267 -605 7180 -1337 7028 -1315 7117 -1331 7245 -1332 183 -1 254 19 460 135
55 31 226 121 380 201 154 79 1812 942 3685 1917 1873 976 3458 1800 3522
1832 141 69 192 103 263 174 90 91 154 198 197 335 l23 75 0 7830 0 7830 -28
90 c-84 268 -290 473 -542 539 -33 9 -3219 624 -7080 1368 -7202 1386 -7128
1372 -7235 1351z m6123 -2554 c5006 -971 5895 -1146 5880 -1157 -10 -7 -124
-67 -253 -134 -129 -66 -1421 -736 -2870 -1489 l-2636 -1367 -5669 1058
c-3119 581 -5799 1081 -5957 1111 -158 29 -286 55 -284 57 3 2 1318 694 2923
1538 2135 1122 2925 1533 2943 1530 14 -2 2679 -519 5923 -1147z m7230 -16020
c-8 -7 -6213 -3179 -6219 -3179 -2 0 -3 3095 -2 6877 l3 6877 3110 1697 3110
1697 3 -6981 c1 -3839 -1 -6984 -5 -6988z m-14148 11618 l6400 -1193 3 -6862
2 -6862 -22 5 c-13 3 -2889 529 -6393 1170 -3503 641 -6380 1167 -6392 1170
l-23 5 0 6880 c0 5498 3 6880 13 6880 6 0 2892 -537 6412 -1193z"/>
<path d="M8792 17324 c-133 -25 -277 -78 -345 -124 -44 -30 -169 -148 -200
-188 -57 -74 -118 -219 -149 -357 -26 -111 -26 29 12 -3450 28 -2538 28 -2550
49 -2615 65 -196 176 -352 331 -462 138 -98 197 -127 308 -150 174 -35 296
-10 452 95 79 53 156 164 196 283 42 125 42 74 23 2018 -20 2003 -21 1948 31
1954 21 2 30 -5 47 -35 20 -35 141 -382 229 -653 19 -58 76 -229 128 -380 52
-151 137 -401 190 -555 52 -154 139 -406 192 -560 53 -154 111 -327 129 -385
18 -58 38 -118 45 -135 7 -16 16 -39 21 -50 4 -11 42 -123 83 -250 42 -126
101 -302 131 -390 31 -88 74 -214 97 -279 93 -276 149 -409 211 -501 39 -58
160 -206 207 -255 58 -59 227 -190 245 -190 5 0 167 -75 197 -91 80 -42 126
-52 262 -55 197 -6 252 5 410 83 81 40 212 141 256 197 29 38 90 126 90 131 0
2 20 46 45 96 25 50 65 148 91 218 25 69 51 142 59 161 7 19 23 62 36 95 12
33 26 69 30 80 5 11 22 58 39 105 16 47 50 141 75 210 26 69 55 148 65 175 10
28 29 79 43 115 14 36 53 142 87 235 34 94 68 184 75 200 19 44 40 99 75 200
17 50 44 124 59 165 16 41 34 93 40 115 7 22 16 49 21 60 25 54 107 273 196
525 24 69 48 134 54 145 17 37 98 250 108 285 6 19 22 67 37 105 14 39 31 84
36 100 5 17 13 39 18 50 5 11 21 52 37 90 27 67 62 115 83 115 20 0 40 -32 50
-83 7 -34 16 -710 25 -1962 13 -1863 14 -1912 34 -1980 53 -184 124 -308 247
-430 84 -84 126 -114 265 -188 205 -108 401 -113 605 -18 55 26 168 132 214
200 46 69 65 119 89 236 18 88 18 170 1 3014 -13 2106 -21 2943 -29 2995 -44
269 -93 420 -190 589 -51 89 -179 241 -250 295 -110 84 -212 149 -270 172 -25
10 -84 34 -132 53 -68 27 -124 40 -249 58 -159 22 -162 22 -277 5 -113 -18
-204 -42 -269 -72 -17 -7 -34 -14 -37 -14 -4 0 -50 -29 -104 -63 -93 -61 -187
-149 -228 -212 -10 -16 -32 -48 -49 -70 -26 -35 -92 -160 -130 -250 -7 -16
-32 -84 -56 -150 -23 -66 -46 -124 -51 -129 -4 -6 -8 -16 -8 -23 0 -13 -58
-167 -86 -230 -8 -18 -30 -77 -49 -130 -18 -54 -59 -165 -90 -248 -31 -82 -74
-197 -95 -255 -63 -173 -131 -354 -141 -375 -9 -20 -34 -86 -129 -340 -125
-336 -211 -565 -236 -635 -15 -41 -35 -93 -44 -115 -10 -22 -31 -76 -48 -120
-16 -44 -46 -122 -66 -172 -20 -51 -36 -98 -36 -104 0 -6 -13 -43 -29 -82 -17
-40 -55 -142 -87 -227 -31 -85 -90 -245 -132 -355 -41 -110 -83 -221 -92 -247
-36 -95 -54 -123 -80 -126 -17 -2 -33 5 -47 20 -25 28 -63 97 -63 116 0 8 -6
28 -14 45 -8 18 -33 88 -56 157 -22 69 -45 134 -50 145 -5 11 -13 36 -19 55
-5 19 -28 87 -51 150 -23 63 -79 223 -125 355 -45 132 -90 260 -99 285 -9 25
-41 117 -70 205 -30 88 -71 205 -91 260 -21 55 -88 249 -150 430 -62 182 -150
436 -195 565 -134 384 -149 429 -196 570 -24 74 -49 144 -54 155 -21 45 -130
352 -175 495 -21 68 -83 246 -137 390 -11 30 -22 64 -25 75 -3 11 -9 25 -13
30 -4 6 -13 28 -20 50 -20 63 -77 183 -128 270 -90 156 -186 272 -318 387
-112 97 -139 116 -244 171 -133 69 -211 93 -375 116 -180 25 -178 25 -333 -5z"/>
</g>
</svg>
