<?xml version="1.0" standalone="no"?>
<!DOCTYPE svg PUBLIC "-//W3C//DTD SVG 20010904//EN"
 "http://www.w3.org/TR/2001/REC-SVG-20010904/DTD/svg10.dtd">
<svg version="1.0" xmlns="http://www.w3.org/2000/svg"
 width="214.000000pt" height="275.000000pt" viewBox="0 0 214.000000 275.000000"
 preserveAspectRatio="xMidYMid meet">

<g transform="translate(0.000000,275.000000) scale(0.100000,-0.100000)"
fill="#000000" stroke="none">
<path d="M954 2631 c-46 -28 -64 -59 -64 -111 0 -49 13 -70 42 -70 21 0 40 32
32 53 -8 22 14 57 36 57 20 0 70 -57 70 -81 0 -7 -26 -39 -57 -71 -53 -54 -57
-60 -57 -107 -2 -92 65 -114 72 -23 3 35 11 48 60 93 54 49 57 55 57 100 0 55
-38 119 -94 156 -41 28 -57 28 -97 4z"/>
<path d="M982 2128 c-28 -28 -1 -75 38 -63 14 4 20 15 20 35 0 36 -33 53 -58
28z"/>
<path d="M1520 2013 c-48 -8 -126 -36 -230 -83 -58 -26 -123 -55 -146 -64 -39
-17 -154 -132 -154 -155 0 -6 -4 -11 -10 -11 -5 0 -10 8 -10 18 0 10 -7 43
-16 73 -20 69 -98 147 -187 190 -53 25 -74 29 -143 29 -45 0 -94 -4 -110 -10
-16 -5 -48 -14 -71 -20 -43 -11 -153 -92 -153 -113 0 -9 32 -12 112 -12 81 0
130 -5 174 -18 57 -18 62 -22 73 -57 13 -44 85 -128 146 -170 50 -35 47 -16
70 -402 16 -264 18 -828 3 -843 -16 -17 -301 161 -397 248 -36 33 -82 71 -102
84 -33 22 -37 29 -52 111 -14 72 -17 162 -19 517 l-2 430 -7 -315 c-8 -396 -9
-417 -20 -325 -4 39 -8 216 -8 394 0 178 -2 325 -4 328 -3 2 -8 -76 -12 -174
-9 -216 0 -524 20 -653 8 -52 15 -141 15 -196 0 -99 1 -102 24 -108 19 -5 25
-15 30 -48 8 -51 26 -86 26 -51 0 12 -4 33 -10 47 -5 14 -6 26 -2 26 13 0 56
-32 113 -86 71 -66 212 -158 339 -221 61 -30 102 -57 109 -71 13 -27 83 -61
124 -62 50 0 96 35 97 75 0 16 -4 13 -19 -12 -23 -37 -63 -49 -120 -33 -42 11
-81 50 -81 82 0 11 -3 17 -7 15 -5 -3 -8 155 -9 351 0 246 -6 431 -18 595 -10
131 -16 240 -13 243 2 3 20 -4 38 -15 19 -12 51 -21 74 -21 42 0 102 29 111
55 16 41 22 -4 28 -222 4 -131 11 -267 16 -303 5 -36 13 -214 16 -396 6 -303
8 -331 23 -327 10 3 22 23 29 50 19 69 62 106 161 137 94 30 280 62 417 72
l91 6 8 -33 9 -34 3 33 c5 35 26 42 64 22 10 -6 19 -7 19 -2 0 17 -25 32 -52
32 -16 0 -31 6 -33 13 -21 62 -48 778 -37 982 l8 140 -45 70 c-109 173 -174
218 -291 198z m131 -39 c53 -27 187 -204 154 -204 -8 0 -30 18 -50 39 -20 21
-64 54 -98 72 -59 32 -66 34 -172 34 -60 0 -130 -3 -155 -7 l-45 -8 35 20 c41
23 172 67 215 73 39 5 83 -2 116 -19z m-930 4 c47 -16 130 -69 172 -111 39
-39 59 -108 72 -244 7 -70 6 -73 -14 -73 -15 0 -21 6 -21 23 0 79 -60 188
-159 290 -70 73 -103 93 -177 111 l-59 14 76 1 c42 1 91 -4 110 -11z m-63 -47
c51 -26 126 -99 185 -181 46 -62 57 -85 38 -78 -5 2 -62 54 -127 117 l-118
115 -116 6 c-83 5 -119 4 -130 -5 -22 -17 -50 -26 -50 -15 0 5 26 23 58 40 53
29 62 30 139 26 55 -3 95 -12 121 -25z m961 -52 c31 -12 121 -71 121 -81 0
-13 -87 4 -145 30 -85 36 -196 42 -252 13 -49 -24 -150 -116 -184 -166 -13
-19 -30 -35 -36 -35 -7 0 -18 -9 -25 -20 -23 -37 -29 -21 -26 72 l3 93 68 41
c68 42 107 52 272 68 55 5 172 -3 204 -15z m-1024 2 c18 -4 31 -14 33 -25 3
-12 0 -16 -8 -11 -6 4 -50 15 -98 25 l-87 19 65 -1 c36 0 78 -3 95 -7z m100
-61 c4 -6 -5 -5 -19 2 -14 6 -26 15 -26 20 0 10 36 -7 45 -22z m891 -14 c32
-16 80 -30 107 -32 60 -4 85 -18 93 -49 3 -14 10 -25 15 -25 5 0 7 11 3 25 -5
20 -3 24 9 20 12 -5 15 -66 20 -403 5 -350 13 -515 32 -684 l6 -48 -49 0
c-121 0 -391 -45 -491 -82 -78 -29 -106 -51 -133 -106 l-23 -47 -7 250 c-3
138 -13 329 -22 425 -21 222 -32 550 -20 558 5 4 28 32 51 62 47 61 117 123
172 152 53 27 158 20 237 -16z m-863 -37 c48 -32 107 -109 107 -141 0 -19 -1
-19 -27 1 -53 38 -81 66 -112 110 -49 70 -41 78 32 30z m337 -102 c0 -102 -7
-117 -52 -117 -23 0 -28 4 -28 25 0 14 4 25 9 25 5 0 8 22 8 48 -1 48 30 112
54 112 5 0 9 -42 9 -93z m-206 -2 c3 -8 1 -15 -3 -15 -5 0 -11 7 -15 15 -3 8
-1 15 3 15 5 0 11 -7 15 -15z m50 -58 c12 -19 3 -32 -19 -24 -17 7 -21 51 -3
45 6 -2 16 -12 22 -21z"/>
</g>
</svg>
