<svg xmlns="http://www.w3.org/2000/svg" viewBox="0 0 551.17 542.77">
  <path d="M302.84,313.36c0-10.85,0-18.73,0-26.6,0-2.92-.8-5.93-.28-8.72.31-1.7,2.33-3.18,3.8-4.53.8-.74,2-1,4.39-2.14a30.43,30.43,0,0,0,4.23,4c7.66,5.22,15,11.2,23.28,15.19A190.91,190.91,0,0,0,396.17,308c16.05,2.17,31.71,7.42,47.44,11.65,14.57,3.93,29.47,7.23,43.35,12.92,8.41,3.45,16.33,9.9,22.41,16.81,10,11.33,18.48,24,27.13,36.41,2.84,4.09,4.2,9.21,6.52,14.5,2.38-4.26,4.46-8,6.54-11.74,5-11.91,11.49-22.58,21.11-31.59s20.76-15.05,32.48-21c11-5.6,22.66-4,33.74-7.14,15.1-4.33,30.69-7,46-10.45,11.34-2.57,22.9-4.58,33.87-8.27,7-2.34,13.1-7.22,19.52-11.11,11.34-6.87,22.73-13.67,33.85-20.89,3.36-2.19,5.79-5.76,8.81-8.52a25.13,25.13,0,0,1,4.37-2.64c.77,1.83,2.17,3.64,2.21,5.49.21,11.25.1,22.51.1,35.5,4.84-5.86,9-10.67,12.86-15.67,2.08-2.67,3.38-6.06,5.75-8.38,1.41-1.38,4.22-1.31,6.7-.87,8.67,1.63,12.35,5.34,12.08,13.67-.65,20.39-1.76,40.77-2.21,61.16-.36,16.43.06,32.87,0,49.3-.05,9.89-.51,19.78-.56,29.67-.08,17.87,0,35.75,0,53.63q0,46.29-.12,92.58,0,24.06,0,48.14a11,11,0,0,0,.22,1.49l1.48-.2c-.4,4.41-.52,8.94-1.35,13.34a8.11,8.11,0,0,1-3.38,5.17q-19.57,10.58-39.46,20.6c-9.57,4.81-19.51,8.92-29,13.88-14.51,7.57-28.75,15.65-43.17,23.4-13.62,7.33-27.38,14.41-41,21.81-6.9,3.76-13.43,8.19-20.3,12-9.79,5.44-19.77,10.53-29.61,15.87Q596.89,768.1,579.29,778c-1.21.69-2,2.48-2.55,3.92-1.75,4.45-2.57,9.45-5.08,13.38-7.07,11.09-17.68,16-30.66,13.87-5.28-.89-10-5-15.26-6.07-6.06-1.21-6.83-5.17-7.46-9.76a15.59,15.59,0,0,1,0-5.7c2.1-8.4-4.35-11-9.62-14.11-15.46-9.15-31.05-18.09-46.6-27.08-16.48-9.53-33-19-49.45-28.55-16.1-9.38-32.1-18.94-48.22-28.29-10.18-5.9-20.51-11.54-30.73-17.36-9-5.12-18.05-10.15-26.88-15.55-8-4.87-15.74-10.07-23.37-15.44a7.92,7.92,0,0,1-3-5.51c-.22-11.71.36-23.44-.05-35.14-.69-19.43-2.23-38.83-2.83-58.26-.62-19.92-.31-39.86-.81-59.78-.66-26.34-1.84-52.66-2.55-79s-1.12-52.89-1.67-79.34c-.11-5.42-1.33-11.11,0-16.17,1.18-4.64,4.95-8.67,8-12.68.17-.21,4.16,2.05,6,3.6C291.53,303.2,296.41,307.68,302.84,313.36Zm477.21-34.05c-13,8.43-24,15.83-35.27,22.73-9.27,5.67-18.34,12.88-28.52,15.66-26.72,7.31-54,12.69-81.07,18.6-7.8,1.7-16.33,1.2-23.56,4.1-13.78,5.54-28.49,10.53-37.65,23.41-8.18,11.5-17.79,22.79-22.53,35.72-4.48,12.19-4.39,26.39-4.61,39.73-.44,26.72.33,53.45.5,80.17.11,15.72-.05,31.44,0,47.16.11,21.21.35,42.42.5,63.64.14,18.18.19,36.35.36,54.53.14,14.92.43,29.83.57,44.75.09,8.79,0,17.58,0,26.37l2.13.5c2.13-2.76,4.17-5.6,6.4-8.27,9.81-11.75,20.27-23,29.37-35.27,11.65-15.69,27-26.72,43.43-36.24,12-7,24.94-12.41,37.74-17.84,9.82-4.17,19.85-9.13,30.2-10.45,19.57-2.48,39.44-2.55,59.17-3.72,8-.47,15.9-1.17,23.71-1.76V632.18c0-16,0-32.08,0-48.12,0-11.14-.26-22.28-.34-33.42q-.21-29.34-.33-58.67-.12-44.28-.12-88.55-.06-54.37-.11-108.77ZM317.89,630.92c3.46,2.25,6,4.58,9.07,5.75,7.46,2.88,15,5.55,22.72,7.75q27.19,7.76,54.55,14.94c12,3.14,24.88,4.15,36,9.1a160,160,0,0,1,36.91,22.84c12.08,10,22.44,22.23,32.79,34.15,5.85,6.73,10,14.91,15.25,22.19,5,6.88,10.37,13.44,15.58,20.15l2.8-.78c-1.12-119.08-2.25-238.15-3.36-355.78-3.8-8.42-6.26-16.06-10.43-22.62-6.37-10-14.15-19.14-20.93-28.92a60.09,60.09,0,0,0-32-23.75c-22.09-6.74-44.77-11.62-67.27-17-13.85-3.29-28-5.42-41.72-9.13-17.56-4.76-34.46-11.46-49.73-21.66-2.34-1.56-4.54-3.34-6.8-5l-2.53.45Q313.37,457.4,317.89,630.92Zm445.28,23.13-.3-1.18c-1.62,0-3.25-.1-4.86,0-11.44.81-22.94,1.15-34.29,2.63-13,1.7-26.25-.73-39.17,5.51-20.76,10-43.46,16.06-62.12,30.39-7.5,5.77-15.59,11-22.08,17.77-9.79,10.18-18.55,21.38-27.5,32.34-6.58,8.07-12.77,16.45-19.14,24.69l2,2.6ZM311.39,635.69c-1.68-77.36-3.3-152.55-4.93-227.74-.55-1-.21-2-.26-3-.28-5.42-.83-10.83-.95-16.25-.44-18.59-.71-37.19-1.08-55.78-.12-6-10.41-15-17.31-14.52-.21,3.41-.65,6.94-.6,10.46.84,56.58,1.62,113.15,2.67,169.73.7,37.18,1.77,74.36,2.76,111.54.13,4.73-.84,10.91,1.69,13.83C297.43,628.59,304,631.08,311.39,635.69Zm477.77,8.41c3.94-6.21,12.22-3.15,12.17-11.66-.22-35.94-.12-71.88-.17-107.82,0-29.14-.29-58.27-.16-87.4.16-36.5.62-73,.93-109.49.05-6.18,0-12.37,0-18.41-7.17-1.12-16.4,6-16.43,12.19-.12,25.51-.11,51-.18,76.52-.08,28.57-.37,57.13-.23,85.69.08,15.59,1,31.17,1.31,46.76.61,31.81,1,63.62,1.61,95.43C788.11,631.13,788.65,636.34,789.16,644.1Zm-396.32,41,134.82,80.4c-1.12-3.15-1.31-4.5-2-5.5-8.06-11.53-16.23-23-24.32-34.51a139.2,139.2,0,0,0-56.55-46.88c-13.82-6.34-29.58-8.47-44.47-12.46-15.79-4.23-31.58-8.39-47.36-12.64-6-1.62-12-3.38-18.07-5.08l-.43,1.37Zm132.59,98L524,785c.94,2.47,1.3,5.45,2.93,7.32,9.4,10.8,21,13,33.6,5.76,3.71-2.15,6.27-6.61,8.71-10.42.59-.92-1.74-5.11-2.09-5-4.06.92-9.39,1.22-11.66,3.94-4.29,5.15-6.85,5.4-12.64,1.85C537.81,785.34,531.28,784.74,525.43,783Z" transform="translate(-271.9 -266.89)"/>
</svg>
