<?xml version="1.0" standalone="no"?>
<!DOCTYPE svg PUBLIC "-//W3C//DTD SVG 20010904//EN"
 "http://www.w3.org/TR/2001/REC-SVG-20010904/DTD/svg10.dtd">
<svg version="1.0" xmlns="http://www.w3.org/2000/svg"
 width="415.000000pt" height="508.000000pt" viewBox="0 0 415.000000 508.000000"
 preserveAspectRatio="xMidYMid meet">

<g transform="translate(0.000000,508.000000) scale(0.100000,-0.100000)"
fill="#000000" stroke="none">
<path d="M1716 5009 c-14 -11 -38 -40 -52 -65 -14 -24 -29 -44 -34 -44 -4 0
-15 11 -24 25 -43 66 -97 84 -136 45 -29 -29 -36 -52 -55 -176 -27 -183 -26
-181 -69 -99 -30 58 -54 73 -101 61 -38 -10 -53 -48 -44 -114 4 -30 5 -69 2
-86 -9 -48 -41 -104 -69 -122 -14 -9 -32 -30 -40 -45 -14 -28 -18 -29 -82 -29
-145 0 -357 -21 -392 -38 -41 -20 -53 -56 -34 -100 10 -26 22 -34 70 -48 l58
-16 -40 -20 c-57 -28 -131 -104 -164 -172 -36 -70 -37 -104 -9 -140 12 -15 23
-43 24 -62 1 -26 13 -46 44 -78 l43 -43 -30 -22 c-43 -30 -57 -79 -38 -125 14
-34 23 -39 79 -48 14 -2 2 -15 -41 -45 -79 -55 -138 -118 -183 -193 -61 -100
-61 -173 1 -208 16 -9 30 -24 30 -33 0 -21 37 -59 58 -60 50 -4 74 15 91 71
18 62 52 75 191 75 99 0 126 -4 192 -28 108 -38 149 -43 189 -23 39 19 39 19
39 3 0 -27 70 -156 115 -212 140 -173 265 -246 345 -200 36 21 39 19 33 -23
-6 -45 16 -95 50 -114 20 -12 18 -13 -33 -18 -40 -4 -55 -9 -55 -20 0 -13 48
-15 385 -12 212 2 393 6 403 8 29 9 20 34 -12 34 l-29 0 21 50 21 49 39 -35
c48 -44 101 -67 130 -58 12 3 35 18 50 33 53 49 158 228 213 361 l22 55 130 0
c147 0 178 12 196 73 9 28 16 33 64 44 30 6 72 24 93 40 35 25 39 33 39 71 0
24 -5 48 -10 53 -7 7 3 21 31 44 55 44 74 89 56 133 -15 34 -36 49 -102 69
-33 11 -40 18 -40 38 0 24 4 25 70 32 265 28 295 36 314 88 27 77 -27 112
-182 118 -153 6 -228 -4 -274 -35 -40 -28 -135 -44 -147 -25 -3 5 8 27 25 48
82 102 132 207 158 332 31 152 -10 234 -111 218 l-38 -6 0 45 c0 55 -21 110
-48 124 -12 6 -37 11 -57 11 -22 0 -47 8 -62 20 -14 11 -31 20 -38 20 -7 0
-18 14 -24 31 -14 42 -38 58 -83 59 -33 0 -148 -36 -181 -57 -7 -4 -35 -8 -64
-8 -44 0 -60 -6 -113 -43 -34 -24 -64 -41 -67 -39 -3 3 13 84 36 180 23 96 41
191 41 210 0 51 -36 91 -84 91 -45 0 -81 -26 -125 -90 -18 -27 -38 -48 -45
-47 -6 1 -31 7 -56 13 -25 6 -82 16 -128 22 l-82 12 -36 72 c-46 94 -118 164
-167 164 -20 0 -46 -9 -61 -21z m84 -189 c9 -16 8 -22 -5 -26 -21 -9 -37 8
-29 29 8 23 21 21 34 -3z m-189 -221 c38 -71 81 -116 120 -124 17 -4 42 -13
56 -20 15 -8 59 -13 107 -13 91 -1 89 -2 201 86 57 43 75 52 109 52 28 0 50
-7 68 -23 l27 -22 -54 -210 c-30 -115 -55 -220 -55 -233 0 -32 -16 -35 -100
-17 -157 34 -401 29 -589 -12 -88 -19 -125 -48 -166 -130 -25 -51 -29 -70 -31
-163 -2 -116 -9 -154 -59 -315 -39 -130 -55 -202 -55 -255 0 -66 -7 -73 -45
-45 -54 42 -336 135 -407 135 -49 0 -38 17 36 55 60 30 92 39 175 49 118 15
145 31 145 90 0 41 -23 70 -76 97 -28 14 -38 26 -38 43 0 42 -30 66 -100 81
-36 7 -83 21 -104 30 l-39 16 32 20 c40 24 54 58 39 100 -12 36 -57 59 -115
59 l-38 1 37 34 c33 31 44 35 90 35 42 0 70 -8 133 -41 44 -22 99 -43 122 -46
37 -5 46 -2 73 25 33 34 37 59 16 100 -14 27 -72 85 -133 134 -18 14 -29 29
-26 32 14 14 160 6 193 -10 48 -24 167 -33 314 -23 145 9 189 20 229 57 36 35
38 92 2 127 -23 23 -31 25 -131 25 -101 0 -106 1 -92 18 21 23 35 71 48 167 6
44 14 91 16 105 6 25 6 25 20 5 9 -11 29 -45 45 -76z m176 35 c-3 -3 -12 -4
-19 -1 -8 3 -5 6 6 6 11 1 17 -2 13 -5z m83 -4 c0 -5 -4 -10 -9 -10 -6 0 -13
5 -16 10 -3 6 1 10 9 10 9 0 16 -4 16 -10z m-515 -225 c14 -14 25 -28 25 -30
0 -3 -20 -5 -45 -5 -50 0 -49 -1 -33 35 14 31 21 31 53 0z m1400 -67 c-24 -78
-17 -111 25 -133 35 -18 56 -11 98 35 25 27 31 28 80 23 l54 -6 -7 -48 c-14
-98 31 -154 118 -147 40 3 42 2 39 -22 -5 -40 -39 -126 -68 -172 -42 -67 -147
-190 -154 -181 -4 4 -17 35 -29 68 -31 84 -86 161 -137 191 -41 24 -54 26
-196 29 -138 3 -219 13 -235 29 -15 15 80 165 160 252 48 53 53 56 89 50 31
-5 48 -1 91 24 64 37 82 38 72 8z m-718 -293 c119 -19 143 -29 143 -57 0 -30
38 -68 69 -68 13 0 35 10 47 21 23 21 23 21 115 4 56 -10 133 -16 194 -15 134
3 126 5 175 -37 29 -25 54 -60 76 -108 46 -100 55 -140 38 -162 -21 -29 -17
-71 11 -99 24 -24 25 -31 25 -137 0 -135 -23 -287 -52 -342 -11 -22 -20 -55
-20 -73 2 -60 -75 -232 -174 -384 -76 -118 -111 -122 -204 -27 -31 33 -61 59
-67 59 -5 0 -16 -28 -24 -62 -24 -103 -22 -102 -322 -103 -265 0 -273 1 -324
48 -19 17 -23 31 -23 78 0 69 -15 79 -79 53 -74 -29 -137 1 -250 121 -114 122
-171 233 -171 332 0 95 23 230 57 343 51 165 62 224 63 322 0 110 25 182 79
231 34 30 51 37 132 51 168 29 350 33 486 11z m-1327 -560 c-33 -19 -46 -19
-30 0 7 8 22 15 34 15 20 -1 20 -2 -4 -15z m2481 6 c4 -1 7 -24 8 -53 1 -50
20 -95 48 -111 20 -12 16 -21 -16 -35 -34 -15 -51 -52 -48 -102 l2 -35 -73
-10 c-58 -8 -78 -15 -93 -34 -10 -13 -19 -29 -19 -37 0 -8 -6 -15 -12 -15 -16
-2 -52 2 -56 5 -1 2 5 36 14 77 8 41 18 133 21 204 2 72 6 135 7 140 3 8 174
12 217 6z"/>
<path d="M1745 3840 c-110 -17 -129 -38 -151 -160 -7 -45 -16 -86 -20 -91 -8
-13 -8 -82 1 -107 10 -35 37 -28 33 8 -2 19 3 34 12 40 9 6 13 23 11 52 -3 52
23 83 93 116 98 47 174 34 196 -32 6 -20 18 -36 26 -36 11 0 14 18 14 81 0 44
-5 89 -10 99 -19 35 -97 46 -205 30z m165 -50 c26 -26 27 -55 3 -45 -78 32
-141 25 -230 -26 -29 -16 -53 -27 -53 -24 0 2 7 23 16 45 17 41 41 54 119 63
85 11 125 7 145 -13z"/>
<path d="M2456 3789 c-62 -25 -122 -67 -164 -114 -52 -57 -41 -64 71 -47 121
18 161 12 187 -31 11 -18 20 -49 20 -70 0 -47 23 -93 51 -102 30 -10 50 12 26
29 -15 12 -16 14 -2 20 12 4 15 23 15 88 0 92 -19 179 -48 218 -25 33 -88 37
-156 9z m140 -55 c21 -51 39 -183 29 -219 -8 -29 -8 -29 -16 16 -8 54 -28 96
-59 124 -19 17 -34 20 -119 18 l-96 -2 25 20 c45 36 144 79 183 79 34 0 40 -4
53 -36z"/>
<path d="M2002 3458 c-59 -13 -126 -78 -142 -137 -33 -123 61 -241 192 -241
71 1 130 29 167 80 108 149 -31 340 -217 298z"/>
<path d="M1594 3108 c-5 -7 25 -41 77 -90 77 -71 114 -91 114 -61 0 13 -162
163 -176 163 -4 0 -11 -5 -15 -12z"/>
<path d="M2505 2890 c-28 -31 -80 -42 -178 -39 -76 3 -92 1 -92 -11 0 -8 11
-17 25 -21 40 -11 161 -10 204 2 42 12 86 49 86 74 0 21 -23 19 -45 -5z"/>
<path d="M1861 2879 c-38 -15 -11 -31 57 -34 39 -2 80 -12 120 -30 37 -17 68
-25 79 -20 17 6 16 8 -5 25 -54 44 -203 79 -251 59z"/>
<path d="M2455 2390 c-3 -5 -3 -15 1 -21 5 -9 -96 -11 -402 -8 -359 4 -409 2
-409 -11 0 -20 133 -27 556 -29 343 -1 369 2 353 43 -11 29 -85 49 -99 26z"/>
<path d="M1719 2281 l-77 -6 -51 -77 c-68 -101 -128 -154 -192 -167 -168 -36
-763 -84 -880 -71 -46 5 -87 6 -91 2 -5 -5 -7 -276 -6 -603 l3 -594 180 -6
c105 -4 211 -13 253 -23 284 -62 745 -294 1045 -524 l59 -45 101 33 c225 72
313 125 492 300 86 84 157 145 185 158 86 40 345 103 615 149 35 6 51 13 53
26 5 23 -8 22 -175 -8 -209 -38 -420 -93 -502 -131 -64 -29 -90 -51 -195 -158
-130 -133 -172 -165 -293 -225 -62 -31 -226 -91 -249 -91 -2 0 -4 260 -4 579
l0 578 53 7 c77 10 116 25 173 67 150 110 427 260 573 309 36 12 126 32 200
45 75 13 163 33 196 45 131 45 315 153 315 185 0 24 -18 18 -91 -30 -132 -89
-274 -141 -444 -165 -206 -29 -426 -127 -717 -321 -166 -109 -241 -121 -398
-62 -85 32 -137 63 -207 124 -112 98 -383 208 -733 297 -179 46 -185 43 105
67 245 21 390 42 442 65 50 22 110 82 166 167 l41 63 77 0 c88 0 217 -21 304
-49 l60 -19 -135 -2 c-206 -4 -285 -12 -285 -30 0 -13 35 -15 265 -11 l265 3
75 -30 c208 -83 422 -113 784 -111 217 1 291 9 291 29 0 13 -30 15 -225 12
-222 -4 -448 8 -565 29 -33 6 -87 24 -120 40 -33 15 -91 36 -130 45 -38 9
-100 27 -137 41 -36 13 -95 32 -129 42 l-64 18 94 6 c114 8 248 8 316 -1 l50
-7 -3 -43 c-2 -37 0 -43 15 -40 20 4 35 52 26 86 -3 13 -17 28 -30 33 -26 9
-613 9 -744 0z m-899 -421 c442 -110 665 -197 806 -315 85 -72 189 -127 272
-146 l52 -12 0 -579 0 -579 -72 52 c-322 228 -749 437 -1010 494 -41 9 -148
19 -246 22 -145 5 -172 8 -168 20 4 8 6 255 6 548 0 499 1 534 18 539 44 13
187 -5 342 -44z"/>
<path d="M1710 2092 c-29 -5 -46 -13 -48 -22 -2 -14 17 -16 140 -16 136 1 147
-1 233 -32 116 -41 241 -62 376 -62 100 0 109 2 109 19 0 17 -12 19 -147 24
-150 6 -233 21 -353 65 -60 22 -231 35 -310 24z"/>
<path d="M1660 1985 c0 -17 137 -63 281 -94 144 -31 360 -46 447 -31 77 13
114 32 96 50 -7 7 -28 6 -74 -6 -114 -29 -383 -1 -603 62 -133 38 -147 40
-147 19z"/>
<path d="M3420 1938 c-4 -98 2 -1139 7 -1156 3 -13 10 -21 17 -19 25 8 14
1176 -11 1185 -7 2 -13 -2 -13 -10z"/>
</g>
</svg>
