<?xml version="1.0" standalone="no"?>
<!DOCTYPE svg PUBLIC "-//W3C//DTD SVG 20010904//EN"
 "http://www.w3.org/TR/2001/REC-SVG-20010904/DTD/svg10.dtd">
<svg version="1.0" xmlns="http://www.w3.org/2000/svg"
 width="1984.000000pt" height="1983.000000pt" viewBox="0 0 1984.000000 1983.000000"
 preserveAspectRatio="xMidYMid meet">

<g transform="translate(0.000000,1983.000000) scale(0.100000,-0.100000)"
fill="#000000" stroke="none">
<path d="M649 19261 l-29 -29 0 -7306 c0 -5408 3 -7311 11 -7330 20 -43 54
-49 278 -48 113 1 216 -1 228 -4 23 -6 23 -7 23 -229 0 -140 4 -234 11 -255
19 -53 51 -60 264 -60 220 0 248 -7 264 -67 6 -21 11 -117 11 -214 0 -97 5
-190 10 -206 21 -58 19 -58 570 -63 l505 -5 5 -235 c5 -243 9 -268 50 -290 12
-6 195 -10 514 -10 272 0 501 -3 510 -6 14 -5 16 -34 16 -218 0 -222 7 -271
41 -302 19 -17 43 -20 238 -24 119 -3 222 -9 230 -14 33 -21 41 -72 41 -269 0
-181 1 -196 20 -220 12 -15 37 -31 57 -36 22 -6 181 -8 422 -5 212 3 432 3
489 -1 l102 -7 0 -225 c0 -236 7 -279 48 -300 9 -4 247 -10 527 -13 l510 -5 5
-235 c6 -266 9 -281 77 -299 24 -7 205 -11 483 -11 404 0 448 2 480 18 53 26
59 56 59 303 1 188 3 218 17 223 9 3 116 6 239 6 222 0 224 0 252 24 l28 24 5
240 c3 132 9 244 13 249 5 4 235 8 511 9 367 1 509 5 525 13 38 21 44 56 47
276 2 116 3 220 3 232 l1 22 515 3 515 3 27 28 28 27 3 238 c2 168 7 239 15
244 7 4 115 8 240 8 l229 0 29 29 29 29 0 210 c0 115 3 224 6 241 l7 31 494 0
c531 0 546 1 575 52 9 17 14 83 16 248 1 124 4 231 7 237 3 10 227 13 1074 13
588 0 1076 -3 1085 -6 14 -5 16 -35 16 -233 0 -250 3 -265 60 -293 30 -16 66
-18 256 -18 l222 0 5 -32 c3 -18 5 -121 4 -228 -2 -212 5 -249 49 -269 18 -8
175 -11 528 -11 l504 0 6 -22 c3 -13 6 -119 6 -236 0 -224 6 -258 47 -278 10
-5 248 -11 528 -14 l510 -5 5 -241 c7 -316 -2 -306 252 -297 79 2 177 1 218
-4 l75 -8 0 -230 c0 -206 2 -234 18 -258 10 -15 29 -32 43 -37 15 -6 219 -10
490 -10 522 0 514 1 533 -68 6 -20 11 -119 11 -219 0 -108 4 -192 11 -206 21
-47 42 -52 239 -55 205 -4 250 3 278 45 16 26 17 399 20 7293 1 3996 0 7284
-3 7308 -4 23 -17 55 -30 70 l-23 27 -244 5 -243 5 -5 235 c-6 268 -9 281 -80
300 -25 7 -178 10 -417 10 -208 0 -426 -1 -485 0 l-108 0 0 218 c0 220 -7 279
-37 303 -12 11 -71 15 -234 19 l-219 5 -27 28 -28 27 -5 213 c-3 141 -9 219
-17 233 -24 42 -54 44 -559 44 -265 0 -489 3 -498 6 -14 5 -16 35 -17 228 -1
121 -4 232 -8 245 -3 13 -19 33 -34 45 -27 20 -37 20 -510 17 -312 -1 -491 1
-509 8 l-27 10 -3 233 c-3 249 -6 265 -55 287 -15 7 -100 11 -214 11 -217 0
-249 7 -268 60 -7 20 -11 105 -11 215 0 100 -5 195 -10 211 -21 60 -10 59
-543 64 l-489 5 -24 28 c-24 28 -24 31 -24 223 0 215 -8 256 -55 274 -36 14
-421 13 -447 -1 -40 -21 -48 -67 -48 -263 0 -102 -4 -196 -10 -210 -22 -58
-17 -57 -515 -56 -298 0 -470 -3 -496 -10 -62 -17 -69 -43 -69 -266 0 -210 -8
-244 -62 -263 -18 -6 -110 -11 -213 -11 -100 0 -195 -5 -211 -10 -56 -20 -59
-33 -62 -291 l-3 -237 -57 -7 c-31 -4 -250 -6 -487 -5 -236 1 -442 2 -457 1
-15 0 -40 -12 -55 -25 l-28 -24 -5 -244 -5 -243 -510 -5 c-467 -5 -513 -7
-538 -23 -15 -9 -28 -18 -29 -20 0 -1 -4 -102 -7 -224 l-6 -223 -28 -27 -27
-28 -211 -2 c-128 -2 -218 -7 -230 -14 -42 -22 -49 -64 -49 -304 l0 -225 -495
0 c-427 0 -500 -2 -534 -16 -22 -8 -43 -23 -48 -32 -4 -9 -10 -125 -13 -257
l-5 -240 -259 -3 c-161 -1 -263 1 -271 8 -8 7 -12 74 -13 235 -2 258 -6 277
-70 294 -23 7 -218 11 -524 11 -269 0 -489 1 -490 3 0 1 -4 111 -7 244 -6 235
-7 243 -29 265 l-23 23 -517 5 -517 5 -5 240 c-3 163 -9 247 -17 261 -22 38
-64 44 -294 44 -204 0 -219 1 -228 19 -6 11 -10 104 -9 229 1 230 -5 262 -51
282 -19 7 -166 11 -482 11 -250 0 -477 2 -506 5 l-52 6 -1 231 c-1 246 -5 271
-50 294 -19 10 -143 13 -532 13 l-508 0 0 223 c0 122 -4 238 -10 257 -17 61
-31 65 -264 68 -235 2 -248 6 -265 69 -6 21 -11 123 -11 226 l0 189 -29 29
-29 29 -212 0 -212 0 -29 -29z m1039 -1067 l22 -6 0 -230 c0 -241 5 -274 47
-294 10 -5 248 -11 528 -14 l510 -5 5 -243 5 -244 28 -24 c15 -13 40 -24 55
-25 15 0 244 0 509 1 l483 0 5 -22 c2 -13 6 -122 7 -243 3 -227 7 -252 48
-272 8 -4 123 -10 255 -13 l240 -5 5 -241 c4 -194 8 -244 20 -259 36 -43 55
-45 557 -45 263 0 486 0 495 0 15 0 17 -21 18 -224 1 -235 7 -278 44 -299 15
-9 154 -13 531 -17 l510 -5 5 -235 c5 -257 10 -279 66 -300 36 -14 383 -13
423 1 56 20 61 43 61 292 0 174 3 227 13 236 9 7 172 11 521 13 l508 3 24 28
c24 28 24 30 24 252 0 123 3 230 6 239 5 14 59 16 500 16 532 0 547 1 576 52
9 17 13 77 14 225 1 220 7 243 60 263 14 6 110 10 214 10 104 0 200 4 214 10
47 17 51 39 56 295 l5 240 504 2 c342 2 514 6 532 13 45 19 50 46 49 272 0
114 2 219 6 233 l6 25 498 0 c293 0 509 4 524 10 55 21 61 46 63 268 2 221 7
243 59 262 14 6 108 10 210 10 212 0 244 -7 263 -60 8 -24 11 -867 11 -3217 0
-3445 -3 -3234 52 -3264 32 -18 413 -18 446 0 55 30 52 -181 52 3270 0 2452 3
3196 12 3216 22 49 50 55 253 55 206 0 247 -9 265 -55 6 -15 10 -108 11 -208
0 -211 7 -244 59 -269 32 -16 79 -18 531 -18 l497 0 5 -27 c3 -15 5 -123 6
-240 1 -224 4 -242 48 -262 15 -7 195 -11 511 -11 269 -1 499 -4 510 -7 22 -5
22 -8 22 -234 0 -125 4 -239 10 -253 18 -49 52 -56 259 -56 104 0 201 -4 215
-10 52 -19 57 -42 57 -247 0 -217 7 -249 59 -275 32 -16 79 -18 532 -18 481 0
497 -1 503 -19 3 -11 5 -116 3 -233 -3 -192 -1 -217 15 -241 10 -16 29 -32 43
-37 15 -6 229 -10 518 -10 369 0 495 -3 504 -12 9 -9 12 -1529 12 -6780 0
-5894 -2 -6773 -15 -6803 -8 -21 -25 -39 -40 -45 -17 -7 -211 -9 -528 -8
l-502 3 -5 235 c-3 164 -9 242 -18 257 -24 43 -44 47 -280 44 -161 -2 -227 1
-238 10 -11 9 -14 54 -14 236 0 235 -5 269 -47 289 -10 5 -247 11 -528 14
l-510 5 -5 241 c-6 272 -6 274 -82 295 -24 6 -198 10 -466 9 -235 -1 -453 -1
-484 -1 l-58 1 0 218 c0 119 -5 234 -11 254 -17 64 -36 68 -292 68 -160 0
-226 3 -235 12 -9 9 -12 73 -12 229 0 135 -4 228 -11 249 -21 59 -27 60 -548
60 l-470 0 -28 24 -28 24 -5 214 c-5 222 -10 247 -51 269 -31 16 -417 17 -446
1 -43 -24 -48 -47 -53 -270 l-5 -214 -28 -24 c-28 -24 -31 -24 -223 -24 -210
0 -251 -8 -276 -52 -9 -17 -13 -77 -14 -223 -1 -110 -2 -217 -3 -237 l-1 -38
-505 0 c-567 0 -555 1 -574 -68 -6 -20 -11 -135 -11 -254 l0 -218 -117 -1
c-65 -1 -165 -1 -223 0 -62 0 -119 -4 -140 -12 -58 -20 -62 -41 -61 -283 1
-135 -2 -221 -9 -234 -10 -20 -21 -20 -504 -20 -318 0 -504 -4 -523 -10 -53
-19 -58 -42 -60 -295 -3 -208 -4 -230 -20 -237 -10 -4 -239 -7 -509 -7 -360 1
-498 -2 -514 -11 -43 -23 -50 -64 -50 -289 0 -115 -3 -216 -6 -225 -5 -14 -35
-16 -225 -16 -233 0 -276 -7 -298 -48 -7 -13 -11 -105 -11 -251 0 -219 -1
-231 -20 -241 -13 -7 -195 -10 -544 -10 l-524 1 -5 37 c-2 20 -5 139 -5 265 0
205 1 228 17 236 9 5 116 9 237 8 197 -2 223 0 247 16 16 10 32 29 37 43 6 16
10 1511 10 4035 0 4402 5 4065 -60 4088 -40 14 -388 15 -424 1 -14 -5 -33 -21
-43 -37 -17 -26 -18 -197 -23 -4083 l-5 -4055 -534 -3 c-421 -2 -536 0 -543
10 -4 7 -8 111 -8 230 0 119 -4 228 -10 242 -5 14 -21 33 -37 43 -24 16 -48
18 -213 16 -127 -2 -196 1 -220 10 -57 20 -63 45 -61 252 2 211 -8 256 -61
274 -20 7 -201 11 -528 11 l-498 0 -6 44 c-4 24 -6 129 -5 233 2 221 -5 245
-70 263 -24 6 -216 10 -521 9 -265 0 -486 3 -491 8 -4 4 -9 115 -11 245 -3
232 -4 238 -26 260 -22 22 -30 23 -243 28 l-221 5 -24 28 c-27 32 -28 38 -24
242 3 180 -7 227 -53 255 -31 19 -54 20 -533 20 l-501 0 -7 46 c-3 26 -6 3076
-6 6778 0 6388 1 6733 18 6766 28 56 44 60 277 60 116 0 220 -3 233 -6z"/>
<path d="M5040 14363 c-24 -12 -39 -29 -47 -53 -17 -50 -17 -910 0 -960 22
-64 50 -70 303 -70 193 0 223 -2 228 -16 3 -9 6 -234 6 -500 0 -538 0 -542 60
-563 21 -7 117 -11 261 -11 l229 0 0 -809 c0 -601 -3 -812 -12 -817 -6 -4
-113 -8 -238 -8 -247 -1 -269 -6 -290 -62 -6 -14 -10 -110 -10 -214 0 -104 -4
-200 -10 -214 -18 -49 -51 -56 -262 -56 -283 0 -281 2 -277 -298 2 -130 0
-183 -10 -200 -24 -44 -65 -52 -275 -52 -192 0 -195 0 -223 -24 l-28 -24 -3
-246 -3 -246 -500 0 c-532 0 -553 -2 -578 -48 -7 -13 -11 -101 -11 -236 0
-118 -4 -226 -10 -240 l-10 -26 -493 0 c-324 0 -505 -4 -525 -11 -56 -19 -57
-27 -57 -540 0 -505 0 -506 54 -529 16 -6 106 -11 223 -12 215 -1 238 4 258
58 6 14 10 111 10 215 0 207 7 241 56 259 14 6 108 10 210 10 200 0 241 8 266
52 9 16 14 89 18 258 l5 235 515 5 c283 3 521 9 529 14 34 22 41 71 41 301 0
173 3 225 13 226 6 1 227 1 489 0 504 -2 547 1 571 43 8 14 14 96 17 231 5
216 10 243 50 262 8 4 111 10 227 13 l213 5 27 28 28 27 3 515 3 515 225 0
c241 0 281 7 304 50 17 32 17 1500 0 1540 -19 46 -49 51 -296 53 l-229 2 -3
531 c-2 418 1 534 10 542 8 6 94 11 213 12 259 3 249 4 282 -24 l28 -24 6
-214 c3 -117 9 -221 13 -231 19 -41 54 -47 285 -47 121 0 226 -3 235 -6 14 -5
16 -35 16 -230 0 -255 6 -284 60 -303 21 -7 114 -11 252 -11 l218 0 10 -26 c7
-16 10 -211 10 -511 -1 -529 -2 -521 56 -543 14 -6 108 -10 208 -10 194 0 238
-7 259 -44 8 -14 14 -92 17 -233 l5 -213 28 -27 27 -28 208 -3 c215 -2 243 -7
265 -47 8 -13 14 -97 17 -233 l5 -214 28 -24 28 -24 495 0 c322 0 502 -4 515
-10 18 -10 19 -23 19 -231 0 -249 6 -279 60 -298 24 -8 392 -11 1345 -11 1188
0 1313 -2 1319 -16 3 -9 6 -848 6 -1865 0 -2016 -3 -1907 55 -1929 34 -13 406
-13 440 0 58 22 55 -84 55 1900 0 1984 3 1878 -55 1900 -15 6 -123 10 -241 10
-129 0 -223 4 -235 10 -18 10 -19 23 -19 231 0 318 -8 309 290 309 200 0 226
5 246 48 5 9 11 123 14 252 l5 235 235 5 c253 5 273 9 291 58 6 15 10 104 9
202 0 96 2 200 6 232 l7 58 534 0 c499 0 534 -1 541 -17 10 -25 9 -510 -1
-520 -5 -4 -111 -8 -235 -8 -250 0 -273 -5 -292 -58 -15 -43 -14 -933 1 -977
19 -54 48 -60 303 -60 l224 0 5 -32 c2 -18 5 -127 6 -242 1 -115 6 -217 12
-227 21 -40 46 -44 292 -47 l237 -4 0 -216 c0 -231 8 -284 43 -304 17 -10 147
-14 532 -18 l510 -5 5 -510 c5 -549 5 -546 58 -566 16 -6 115 -10 243 -9 119
0 223 -2 232 -6 16 -6 17 -122 17 -1595 0 -1768 5 -1648 -67 -1668 -21 -6
-120 -11 -221 -11 -192 0 -230 -7 -248 -47 -15 -33 -17 -384 -2 -428 25 -76
20 -75 536 -75 507 0 511 0 537 64 13 31 15 278 14 1853 -1 1000 -4 1829 -8
1842 -3 13 -19 34 -34 45 -26 20 -45 21 -265 26 l-237 5 -5 517 -5 517 -23 23
c-22 22 -29 23 -265 28 l-242 5 -5 230 c-6 259 -11 282 -70 302 -25 9 -173 12
-526 12 -439 1 -493 3 -498 17 -3 9 -6 117 -6 241 l0 225 -29 29 c-18 18 -40
29 -58 29 -15 1 -122 2 -238 3 l-210 2 -3 543 -2 542 222 1 c145 0 235 4 258
12 57 20 61 37 58 274 -3 206 -4 213 -26 235 -22 22 -29 23 -265 28 l-242 5
-5 235 c-5 258 -9 272 -65 296 -50 21 -920 21 -970 0 -56 -24 -60 -38 -65
-296 l-5 -235 -243 -5 -244 -5 -24 -28 c-24 -28 -24 -30 -25 -250 0 -122 -4
-231 -8 -242 -8 -19 -20 -19 -512 -20 -381 -1 -509 -4 -526 -13 -43 -24 -48
-47 -50 -237 -1 -99 -2 -193 -2 -208 -1 -17 -12 -40 -30 -58 l-30 -29 -1058 2
-1058 3 -5 243 -5 244 -28 24 c-34 29 -26 28 -257 28 -265 1 -253 -13 -254
291 -1 197 -8 225 -62 245 -14 6 -108 10 -208 10 -108 0 -196 5 -215 11 -55
19 -61 46 -61 257 0 104 -5 202 -10 218 -19 55 -35 58 -271 64 -161 4 -220 8
-232 19 -29 23 -37 81 -37 268 0 114 -4 191 -11 207 -21 45 -57 51 -261 48
-103 -2 -205 -1 -228 3 l-40 7 0 219 c0 229 -6 266 -45 299 -15 12 -65 16
-259 20 l-241 5 -5 520 c-3 286 -7 521 -8 523 -1 1 -17 11 -34 22 -32 19 -52
20 -515 20 -280 0 -492 4 -507 9 l-25 10 -3 235 -3 236 -28 27 -27 28 -473 3
c-435 2 -475 1 -507 -15z m1020 -550 c3 -2 6 -117 8 -254 l3 -249 -26 -10
c-35 -13 -461 -13 -486 0 -18 10 -19 23 -19 230 0 141 4 228 11 244 11 24 42
41 83 48 30 5 420 -3 426 -9z"/>
</g>
</svg>
