<?xml version="1.0" standalone="no"?>
<!DOCTYPE svg PUBLIC "-//W3C//DTD SVG 20010904//EN"
 "http://www.w3.org/TR/2001/REC-SVG-20010904/DTD/svg10.dtd">
<svg version="1.0" xmlns="http://www.w3.org/2000/svg"
 width="415.000000pt" height="421.000000pt" viewBox="0 0 415.000000 421.000000"
 preserveAspectRatio="xMidYMid meet">

<g transform="translate(0.000000,421.000000) scale(0.100000,-0.100000)"
fill="#000000" stroke="none">
<path d="M2043 3948 c-11 -7 -221 -114 -465 -237 -243 -123 -447 -227 -453
-232 -5 -6 -5 -13 2 -20 8 -8 135 52 452 210 242 122 441 218 442 214 4 -35
-4 -717 -27 -2356 -6 -425 -5 -477 8 -477 14 0 17 32 22 223 6 213 36 2369 36
2550 0 66 3 89 14 93 41 16 243 -97 382 -212 91 -76 151 -104 254 -119 50 -8
130 -44 173 -79 26 -21 27 -26 16 -44 -17 -27 -2 -75 25 -80 16 -4 18 0 12 33
-7 36 -7 37 21 31 22 -5 34 -2 48 14 19 21 50 26 74 11 11 -7 7 -31 -22 -137
-45 -159 -81 -340 -110 -549 -21 -156 -22 -184 -22 -1123 0 -529 -1 -962 -2
-962 -1 0 -30 16 -64 37 -237 138 -639 283 -789 283 -42 0 -48 -4 -89 -51 -54
-63 -129 -112 -202 -133 -31 -9 -83 -34 -116 -55 -83 -56 -218 -185 -293 -280
-35 -45 -64 -81 -65 -81 -1 0 -15 19 -32 42 l-31 43 10 350 c11 379 4 1236
-12 1590 -17 385 -55 864 -76 953 -7 35 -29 20 -27 -19 8 -185 11 -228 15
-235 16 -27 44 -434 59 -844 12 -342 10 -1723 -3 -1735 -4 -4 -39 21 -77 57
-168 155 -416 278 -563 278 -35 0 -48 -4 -48 -14 0 -10 16 -17 48 -21 91 -11
175 -38 269 -86 125 -64 213 -127 301 -217 l73 -75 -3 -60 c-3 -52 0 -62 14
-65 14 -3 18 3 18 27 0 43 14 39 45 -15 29 -50 51 -53 47 -8 -2 24 14 48 82
131 142 170 263 262 419 318 59 21 138 79 179 133 37 49 36 49 228 2 177 -42
490 -174 643 -270 l47 -30 0 -69 c0 -87 9 -131 26 -131 11 0 14 19 14 82 0 98
12 94 34 -10 26 -124 58 -165 97 -125 27 26 21 66 -20 147 l-28 56 31 4 c17 3
59 8 93 11 170 16 317 86 578 272 17 12 40 24 53 28 20 6 22 3 22 -29 0 -54
28 -48 32 6 3 41 4 43 51 56 30 9 47 19 47 29 0 13 -8 15 -45 10 l-45 -7 0
1474 c0 810 -3 1475 -6 1479 -3 3 -35 -14 -70 -38 -102 -70 -188 -106 -272
-116 -152 -17 -300 -87 -457 -214 -75 -61 -104 -65 -169 -22 -80 53 -126 74
-181 80 -83 9 -147 36 -205 86 -91 79 -205 157 -293 199 -95 47 -143 58 -174
40z m1794 -590 c-4 -281 -7 -935 -7 -1453 l0 -941 -34 -12 c-18 -7 -73 -41
-122 -76 -191 -137 -337 -203 -497 -225 -100 -14 -150 -14 -180 0 -23 10 -25
18 -31 113 -12 176 -8 1760 4 1891 20 224 71 491 136 723 25 89 26 94 9 112
-10 11 -24 20 -32 20 -7 0 -13 3 -13 6 0 18 159 125 244 165 71 33 203 69 256
69 35 0 158 54 225 99 17 11 34 20 39 20 6 1 7 -204 3 -511z m-768 -2879 c13
-39 14 -49 2 -49 -5 0 -13 18 -19 40 -12 47 1 54 17 9z"/>
<path d="M3400 2990 c-12 -12 -20 -33 -20 -53 0 -76 98 -98 129 -30 16 34 14
47 -10 77 -25 32 -70 35 -99 6z"/>
<path d="M3544 2836 c-6 -14 22 -66 35 -66 17 0 19 14 6 41 -19 35 -34 45 -41
25z"/>
<path d="M3520 2576 c-33 -49 -37 -66 -16 -66 12 0 76 87 76 103 0 22 -33 1
-60 -37z"/>
<path d="M3320 2360 c-38 -32 -42 -40 -27 -45 19 -8 95 50 96 73 2 22 -23 12
-69 -28z"/>
<path d="M3110 2203 c-19 -13 -42 -28 -50 -33 -11 -7 -12 -12 -4 -20 9 -9 19
-7 40 6 63 39 74 51 61 62 -8 7 -22 3 -47 -15z"/>
<path d="M465 3920 c-11 -18 4 -27 87 -55 170 -55 396 -178 546 -297 41 -33
68 -48 79 -44 59 23 -290 251 -525 344 -145 57 -178 66 -187 52z"/>
<path d="M390 2369 c0 -1471 1 -1550 18 -1547 16 3 17 86 20 1551 2 1542 2
1547 -18 1547 -20 0 -20 -6 -20 -1551z"/>
<path d="M1310 2656 c0 -12 39 -23 104 -29 36 -4 27 20 -12 31 -53 16 -92 15
-92 -2z"/>
<path d="M1060 2503 c-33 -51 -35 -59 -20 -68 11 -7 81 94 74 107 -11 17 -25
7 -54 -39z"/>
<path d="M1544 2517 c-2 -7 6 -36 18 -65 16 -36 27 -49 36 -43 10 6 9 19 -8
64 -21 56 -36 70 -46 44z"/>
<path d="M915 2250 c-29 -58 -30 -60 -10 -60 8 0 26 22 40 50 29 58 30 60 10
60 -8 0 -26 -22 -40 -50z"/>
<path d="M1610 2185 c0 -51 3 -65 15 -65 12 0 15 14 15 65 0 51 -3 65 -15 65
-12 0 -15 -14 -15 -65z"/>
<path d="M2785 2123 c-47 -12 -68 -24 -59 -33 15 -15 124 9 124 26 0 14 -26
16 -65 7z"/>
<path d="M815 2028 c-25 -70 -34 -102 -31 -106 13 -12 33 10 45 48 7 23 15 48
18 56 3 8 -1 14 -11 14 -9 0 -19 -6 -21 -12z"/>
<path d="M2560 1943 c-34 -54 -35 -59 -15 -66 9 -4 23 11 43 48 16 30 27 57
24 60 -12 12 -24 3 -52 -42z"/>
<path d="M1620 1895 c0 -51 3 -65 15 -65 12 0 15 14 15 65 0 51 -3 65 -15 65
-12 0 -15 -14 -15 -65z"/>
<path d="M735 1705 c-7 -62 -1 -82 21 -64 19 16 20 119 0 119 -9 0 -16 -18
-21 -55z"/>
<path d="M2456 1683 c-20 -57 -20 -83 -3 -83 14 0 50 108 41 122 -11 18 -23 6
-38 -39z"/>
<path d="M1631 1623 c1 -59 10 -85 26 -75 17 11 5 122 -13 122 -10 0 -14 -14
-13 -47z"/>
<path d="M730 1603 c-51 -19 -68 -85 -30 -123 61 -61 159 32 103 98 -20 23
-50 33 -73 25z"/>
<path d="M2352 1407 c-20 -34 -27 -55 -20 -62 11 -11 29 9 58 67 16 30 17 37
5 41 -9 4 -24 -12 -43 -46z"/>
<path d="M1686 1381 c-6 -10 52 -101 64 -101 21 0 19 21 -5 56 -14 20 -25 41
-25 45 0 12 -27 12 -34 0z"/>
<path d="M2165 1240 c-11 -5 -32 -9 -47 -9 -43 -1 -37 -31 6 -31 49 0 96 19
89 36 -6 16 -18 17 -48 4z"/>
<path d="M1906 1215 c-4 -10 1 -15 14 -15 11 0 23 -1 27 -2 4 -2 9 5 11 15 4
22 -43 24 -52 2z"/>
</g>
</svg>
