<?xml version="1.0" encoding="UTF-8" standalone="no"?>
<!DOCTYPE svg PUBLIC "-//W3C//DTD SVG 1.1//EN" "http://www.w3.org/Graphics/SVG/1.1/DTD/svg11.dtd">
<svg width="100%" height="100%" viewBox="0 0 834 834" version="1.1" xmlns="http://www.w3.org/2000/svg" xmlns:xlink="http://www.w3.org/1999/xlink" xml:space="preserve" xmlns:serif="http://www.serif.com/" style="fill-rule:evenodd;clip-rule:evenodd;stroke-linejoin:round;stroke-miterlimit:2;">
    <g transform="matrix(4.16667,0,0,4.16667,-8217.2,-6662.77)">
        <g transform="matrix(0.1,0,0,-0.1,0,2976)">
            <g transform="matrix(0.0846252,1.22178e-16,1.44398e-15,0.0844527,19372.5,11475.8)">
                <path d="M12870,27153C12694,27119 12819,27180 8660,25078C6457,23964 4633,23045 4606,23035C4531,23006 4412,22925 4348,22857C4236,22741 4155,22577 4130,22415C4123,22366 4120,20023 4122,14560L4125,6775L4148,6702C4243,6395 4498,6178 4800,6145C4836,6142 8067,5540 11980,4808C19008,3493 19097,3477 19225,3476C19408,3475 19479,3495 19685,3611C19740,3642 19911,3732 20065,3812C20219,3891 21877,4754 23750,5729C25623,6705 27208,7529 27272,7561C27413,7630 27464,7664 27535,7735C27625,7826 27689,7933 27732,8070L27755,8145L27755,23805L27727,23895C27643,24163 27437,24368 27185,24434C27152,24443 23966,25058 20105,25802C12903,27188 12977,27174 12870,27153ZM18993,24599C23999,23628 24888,23453 24873,23442C24863,23435 24749,23375 24620,23308C24491,23242 23199,22572 21750,21819L19114,20452L13445,21510C10326,22091 7646,22591 7488,22621C7330,22650 7202,22676 7204,22678C7207,22680 8522,23372 10127,24216C12262,25338 13052,25749 13070,25746C13084,25744 15749,25227 18993,24599ZM26223,8579C26215,8572 20010,5400 20004,5400C20002,5400 20001,8495 20002,12277L20005,19154L26225,22548L26228,15567C26229,11728 26227,8583 26223,8579ZM12075,20197L18475,19004L18478,12142L18480,5280L18458,5285C18445,5288 15569,5814 12065,6455C8562,7096 5685,7622 5673,7625L5650,7630L5650,14510C5650,20008 5653,21390 5663,21390C5669,21390 8555,20853 12075,20197Z" style="fill:white;fill-rule:nonzero;"/>
            </g>
        </g>
        <g transform="matrix(0.1,0,0,-0.1,0,2976)">
            <g transform="matrix(0.0846252,1.22178e-16,1.44398e-15,0.0844527,19372.5,11475.8)">
                <path d="M8792,17324C8659,17299 8515,17246 8447,17200C8403,17170 8278,17052 8247,17012C8190,16938 8129,16793 8098,16655C8072,16544 8072,16684 8110,13205C8138,10667 8138,10655 8159,10590C8224,10394 8335,10238 8490,10128C8628,10030 8687,10001 8798,9978C8972,9943 9094,9968 9250,10073C9329,10126 9406,10237 9446,10356C9488,10481 9488,10430 9469,12374C9449,14377 9448,14322 9500,14328C9521,14330 9530,14323 9547,14293C9567,14258 9688,13911 9776,13640C9795,13582 9852,13411 9904,13260C9956,13109 10041,12859 10094,12705C10146,12551 10233,12299 10286,12145C10339,11991 10397,11818 10415,11760C10433,11702 10453,11642 10460,11625C10467,11609 10476,11586 10481,11575C10485,11564 10523,11452 10564,11325C10606,11199 10665,11023 10695,10935C10726,10847 10769,10721 10792,10656C10885,10380 10941,10247 11003,10155C11042,10097 11163,9949 11210,9900C11268,9841 11437,9710 11455,9710C11460,9710 11622,9635 11652,9619C11732,9577 11778,9567 11914,9564C12111,9558 12166,9569 12324,9647C12405,9687 12536,9788 12580,9844C12609,9882 12670,9970 12670,9975C12670,9977 12690,10021 12715,10071C12740,10121 12780,10219 12806,10289C12831,10358 12857,10431 12865,10450C12872,10469 12888,10512 12901,10545C12913,10578 12927,10614 12931,10625C12936,10636 12953,10683 12970,10730C12986,10777 13020,10871 13045,10940C13071,11009 13100,11088 13110,11115C13120,11143 13139,11194 13153,11230C13167,11266 13206,11372 13240,11465C13274,11559 13308,11649 13315,11665C13334,11709 13355,11764 13390,11865C13407,11915 13434,11989 13449,12030C13465,12071 13483,12123 13489,12145C13496,12167 13505,12194 13510,12205C13535,12259 13617,12478 13706,12730C13730,12799 13754,12864 13760,12875C13777,12912 13858,13125 13868,13160C13874,13179 13890,13227 13905,13265C13919,13304 13936,13349 13941,13365C13946,13382 13954,13404 13959,13415C13964,13426 13980,13467 13996,13505C14023,13572 14058,13620 14079,13620C14099,13620 14119,13588 14129,13537C14136,13503 14145,12827 14154,11575C14167,9712 14168,9663 14188,9595C14241,9411 14312,9287 14435,9165C14519,9081 14561,9051 14700,8977C14905,8869 15101,8864 15305,8959C15360,8985 15473,9091 15519,9159C15565,9228 15584,9278 15608,9395C15626,9483 15626,9565 15609,12409C15596,14515 15588,15352 15580,15404C15536,15673 15487,15824 15390,15993C15339,16082 15211,16234 15140,16288C15030,16372 14928,16437 14870,16460C14845,16470 14786,16494 14738,16513C14670,16540 14614,16553 14489,16571C14330,16593 14327,16593 14212,16576C14099,16558 14008,16534 13943,16504C13926,16497 13909,16490 13906,16490C13902,16490 13856,16461 13802,16427C13709,16366 13615,16278 13574,16215C13564,16199 13542,16167 13525,16145C13499,16110 13433,15985 13395,15895C13388,15879 13363,15811 13339,15745C13316,15679 13293,15621 13288,15616C13284,15610 13280,15600 13280,15593C13280,15580 13222,15426 13194,15363C13186,15345 13164,15286 13145,15233C13127,15179 13086,15068 13055,14985C13024,14903 12981,14788 12960,14730C12897,14557 12829,14376 12819,14355C12810,14335 12785,14269 12690,14015C12565,13679 12479,13450 12454,13380C12439,13339 12419,13287 12410,13265C12400,13243 12379,13189 12362,13145C12346,13101 12316,13023 12296,12973C12276,12922 12260,12875 12260,12869C12260,12863 12247,12826 12231,12787C12214,12747 12176,12645 12144,12560C12113,12475 12054,12315 12012,12205C11971,12095 11929,11984 11920,11958C11884,11863 11866,11835 11840,11832C11823,11830 11807,11837 11793,11852C11768,11880 11730,11949 11730,11968C11730,11976 11724,11996 11716,12013C11708,12031 11683,12101 11660,12170C11638,12239 11615,12304 11610,12315C11605,12326 11597,12351 11591,12370C11586,12389 11563,12457 11540,12520C11517,12583 11461,12743 11415,12875C11370,13007 11325,13135 11316,13160C11307,13185 11275,13277 11246,13365C11216,13453 11175,13570 11155,13625C11134,13680 11067,13874 11005,14055C10943,14237 10855,14491 10810,14620C10676,15004 10661,15049 10614,15190C10590,15264 10565,15334 10560,15345C10539,15390 10430,15697 10385,15840C10364,15908 10302,16086 10248,16230C10237,16260 10226,16294 10223,16305C10220,16316 10214,16330 10210,16335C10206,16341 10197,16363 10190,16385C10170,16448 10113,16568 10062,16655C9972,16811 9876,16927 9744,17042C9632,17139 9605,17158 9500,17213C9367,17282 9289,17306 9125,17329C8945,17354 8947,17354 8792,17324Z" style="fill:rgb(212,255,0);fill-rule:nonzero;"/>
            </g>
        </g>
    </g>
</svg>
