<svg xmlns="http://www.w3.org/2000/svg" viewBox="0 0 551.08 542.68">
  <path d="M799.24,660c-.31,4-.44,8.53-1.11,13a6.55,6.55,0,0,1-2.8,4.31q-19.86,10.59-40,20.73c-9.73,4.88-19.79,9.11-29.42,14.18-19.43,10.23-38.67,20.8-58,31.28-13.08,7.11-26.09,14.35-39.18,21.44-19.62,10.64-39.32,21.16-58.92,31.84-4.76,2.59-9.34,5.53-13.87,8.49-.89.58-1.32,2-1.73,3.11-1.68,4.56-2.49,9.65-5,13.63-7,10.86-17.31,15.85-30.19,13.94-4.47-.67-8.69-3.12-13-4.88-2.56-1.05-6.36-1.73-7.25-3.66-1.8-3.91-3.27-8.77-2.6-12.87,1.36-8.28-4.16-11-9.44-14.13q-34.38-20.15-68.92-40-34.32-19.9-68.66-39.77c-21.29-12.27-42.73-24.31-63.92-36.75-8.73-5.12-17-11-25.42-16.67a5.25,5.25,0,0,1-1.81-3.8c-.07-12,.45-24.08,0-36.09-.67-19.5-2.24-39-2.85-58.48-.62-19.76-.32-39.55-.81-59.31-.66-26.41-1.83-52.81-2.54-79.22s-1.11-52.9-1.66-79.35c-.11-5.42-1.34-11.11-.05-16.17,1.18-4.63,5-8.64,8-12.65.14-.19,4,2.12,5.84,3.55,4.92,3.71,9.7,7.61,14.64,11.3.27.2,2.22-.92,2.21-1.41-.17-10-.6-20-.73-30.06,0-1.64,1.41-4.79,1.63-4.74,3.24.69,6.4-5.6,9.64,0,6.44,11,18.57,14.07,28.9,19a187.57,187.57,0,0,0,36,12.44c27.4,6.71,55.19,11.83,82.52,18.81,12.19,3.11,24.59,7.65,35.11,14.34,9.15,5.81,16.56,15,23.33,23.72,8.95,11.57,16.52,24.2,24.54,36.16.69-1.31,2.13-4.13,3.64-6.91,4.47-8.16,8-17.09,13.67-24.3,10.9-13.83,24.62-23.92,41.25-31.14,12-5.2,24.37-4.27,36.3-7.56,14.39-4,29.11-6.73,43.68-10.08,11.33-2.61,22.9-4.55,33.86-8.28,7.18-2.44,13.52-7.44,20.14-11.44,11.14-6.74,22.33-13.41,33.24-20.5,3.43-2.23,5.94-5.83,9-8.63A26,26,0,0,1,761,293.7c.75,1.76,2.16,3.53,2.16,5.29,0,10.59-.44,21.17-.66,31.75,0,.77.34,1.53.91,3.85,4.67-5.67,8.79-10.47,12.67-15.45,2.13-2.74,3.49-6.17,5.92-8.54,1.16-1.13,4.16-1.1,6.05-.58a36.12,36.12,0,0,1,9.09,4c1.57,1,3.56,3,3.53,4.54-.3,13.62-1.24,27.22-1.54,40.84s.05,27.19-.13,40.79c-.28,21.1-.92,42.2-1.15,63.31-.19,17.87,0,35.76,0,53.64q0,45.43,0,90.89c0,16.6-.08,33.21,0,49.82C797.79,658.49,798.63,659.14,799.24,660ZM757.75,305.92c-12.93,8.39-24.06,15.79-35.38,22.89-8.15,5.12-16.09,11.09-25,14.39-12.18,4.53-25.1,7.2-37.82,10.1-18.58,4.24-37.25,8-55.91,11.89-5.92,1.22-12.34,1.08-17.8,3.33-12.76,5.27-26.13,10.3-34.5,22.19-8.13,11.55-17.66,22.87-22.39,35.82-4.43,12.13-4.27,26.24-4.55,39.51-.51,24.88.12,49.78.29,74.67.12,18.51.31,37,.4,55.53.14,30.39.12,60.78.36,91.18.19,24.24.68,48.49,1,72.73.1,7.56,0,15.12,0,22.69l2.13.43c2.14-2.78,4.19-5.63,6.44-8.32,9.81-11.74,20.27-23,29.37-35.27,11.64-15.69,26.9-26.89,43.43-36.2,14.17-8,29.46-14,44.34-20.65,5.93-2.67,11.9-6.26,18.14-7,16.35-2,32.85-2.75,49.3-3.8,10-.65,20.13-.61,30.14-1.52,3.94-.36,10.55,1.27,9.24-6.87a30.2,30.2,0,0,1-.29-4.76c0-16,0-31.92,0-47.88,0-11.13-.28-22.27-.36-33.41-.16-19.47-.32-39-.38-58.42q-.12-44.52-.1-89l-.09-108.78ZM519.41,796.09c.81-3.34,1.36-4.72,1.46-6.14.3-4.53.63-9.08.61-13.62-.09-22.05-.17-44.11-.51-66.17-.36-23.61-1.12-47.22-1.48-70.84-.29-19.47-.21-38.94-.36-58.4-.15-19.06-.47-38.12-.54-57.18-.08-25.52.09-51-.06-76.57a52.91,52.91,0,0,0-1.9-12.59c-.66-2.54-2.74-4.69-3.66-7.21C505.58,407.09,492.1,391,477,376.23c-9.38-9.19-21.18-14.47-34.29-16.8-9.11-1.62-18.14-3.73-27.13-6-26.56-6.59-53.41-12.31-79.49-20.46-15.11-4.72-29-13.47-43.36-20.44-1.46-.7-2.83-1.58-4.23-2.38-.63,1.9-1.84,3.81-1.81,5.7.7,38.09,1.41,76.19,2.37,114.29.85,33.68,2,67.35,3,101,1.14,39.77,2.44,79.54,3.09,119.31.12,7.47,3.95,10.77,9.5,13a223.28,223.28,0,0,0,22.71,7.75q27.19,7.77,54.55,14.94c11.93,3.12,24.73,4.07,35.8,9a161.5,161.5,0,0,1,37.13,23c12.07,10,22.4,22.25,32.75,34.16,5.79,6.68,9.91,14.78,15.11,22C507.73,781.31,513.15,788,519.41,796.09ZM743.14,679.6c-4.11,0-5.91-.1-7.7,0q-24.57,1.65-49.13,3.38c-5.14.37-10.7-.26-15.33,1.5-13.68,5.19-27.11,11.09-40.42,17.2-9.56,4.39-19.79,8.26-27.9,14.66A374.59,374.59,0,0,0,563,752.59c-10.41,11-19,23.64-28.3,35.68-1.39,1.8-2,4.2-3,6.33l1.37,1.28ZM282.93,358.09c1.57-4.84-5.83-7-11.05-10.49-2-1.31-4.43-1.89-6.67-2.81-.37,2-.81,4.09-1.1,6.16a27.93,27.93,0,0,0-.27,4.29q.92,65,1.87,130.06c.24,18.07.12,36.16.61,54.22,1,36.15,2.21,72.28,3.46,108.42a5.88,5.88,0,0,0,2.13,4.18c4.24,2.8,8.73,5.23,13.17,7.71,3.14,1.76,4.05.46,3.91-2.78-.3-6.86-.4-13.72-.53-20.59-.59-30.56-1.12-61.13-1.76-91.7-.5-24.39-1.12-48.78-1.72-73.18-.33-13.51-.67-27-1.1-40.53-.18-5.41-.87-10.82-.9-16.24C282.86,397.26,282.93,379.71,282.93,358.09ZM764,652.23h1.49c.14,2.79.43,5.59.39,8.38-.07,6,.36,10,8.05,5.4,3.5-2.07,5.37-3.51,5.08-7.7-.36-5.33,0-10.7-.07-16.06-.11-28.6-.34-57.2-.3-85.8,0-26.9.42-53.81.54-80.72.1-21.16,0-42.32,0-63.48,0-24.75.09-49.5,0-74.25,0-.89-1-1.77-1.52-2.65-4.88,3.59-11.23,6.28-14.17,11.07-2.43,4-1,10.4-1,15.74.14,24.47.56,48.95.56,73.43,0,25-.57,50.1-.49,75.14.06,15.43,1.17,30.85,1.28,46.28C764.17,588.76,764,620.49,764,652.23ZM309.48,674.1l-.52,1c3.5,2,7.05,3.85,10.48,5.94,15.84,9.63,31.61,19.39,47.48,29,12.37,7.45,24.88,14.66,37.29,22,15.39,9.16,30.72,18.42,46.13,27.55q25.82,15.3,51.75,30.41a7.57,7.57,0,0,0,2.57.46,7.41,7.41,0,0,0-.61-2.63c-2.33-3.32-4.89-6.47-7.21-9.79-7.29-10.44-14-21.35-21.9-31.29C464.91,734.2,453.4,723,439,715.14c-8.81-4.79-17.24-10.58-26.55-14s-19.54-4.39-29.27-6.82c-14.85-3.72-29.65-7.69-44.42-11.71C329,679.89,319.25,676.93,309.48,674.1ZM525.05,829.84c4.5-1.6,9.48-2.46,13.33-5,3.53-2.35,6.19-6.32,8.44-10.06.69-1.15-1.21-3.87-1.93-5.87-4.13,1.58-9.8,2-12,5-2.82,3.84-4.82,4.77-8.85,3.23-6-2.29-11.93-4.72-18.06-6.54-3.63-1.07-4.81,1.11-3.51,4.5C505.73,823.58,514.61,829.05,525.05,829.84Z" transform="translate(-249.61 -293.7)"/>
  <path d="M631.82,452.72c9.47-1.55,19.75,4.21,25.77,17.06,8.09,17.27,3.87,33.25-5.6,48.7-8.48,13.83-21.79,21.77-35,29.94-10.92,6.74-15.75,25.57-9.48,36.51,3.38,5.91,2,8.9-4.6,10.35-4.61,1-9.12,2.76-13.78,3.23-1.6.17-4.74-2.31-5.05-4-1.62-8.73-4.83-18-3.24-26.3,2.91-15.18,7.53-30.22,24.94-36.72,11.43-4.27,20.35-12.71,27.37-22.76,6-8.55,4.63-23-4.2-28.36-4.32-2.62-12-1.75-17.39-.12-9,2.69-17.06,7.55-19.24,18.27-.25,1.24-3.66,2.56-5.61,2.58-3.22,0-6.45-.91-9.66-1.54-5.93-1.18-7.08-4.21-4.13-9.59,3.53-6.43,5.54-14.12,10.3-19.34C594.73,458,610,452.79,631.82,452.72Zm-5.92,17.9c.64.18,3.48.24,5.38,1.61,10.88,7.89,15.27,22.79,9.63,35-6.75,14.58-18.53,24.27-32.95,31-3.62,1.69-8,3.31-10.18,6.3-9.53,12.8-15.81,26.67-8.43,42.85.7,1.54,3.67,3.18,5.3,2.92,3.18-.5,6.49-1.66,5-6.65-4.37-14.42.25-27.31,9.68-37.69,5.67-6.25,14.58-9.44,21.51-14.69C646.05,519.71,655.74,505,655.49,485c-.09-7.15-8.45-22.26-15.06-22.95-9.68-1-19.85-1.29-29.31.59-14.47,2.89-26.07,10.86-31.34,25.66-.41,1.13.26,3.8.76,3.89,2.33.42,6.51,1,6.94.06C594.78,476.62,607.68,470.87,625.9,470.62Z" transform="translate(-249.61 -293.7)"/>
  <path d="M614.38,622.34a63.71,63.71,0,0,0,2.08,7.7,8.24,8.24,0,0,1-5,11c-11.68,3.5-21-4.59-18.37-17.19.95-4.52,2.87-6.19,6.89-7,3.26-.63,6.37-2.14,9.64-2.58C616.31,613.37,614.3,618.76,614.38,622.34Zm-7.55.06c-2.76,1.54-6.09,2.35-6.39,3.79-.47,2.28.68,5.25,2,7.35.46.71,5.3-.32,5.3-.57A90.17,90.17,0,0,0,606.83,622.4Z" transform="translate(-249.61 -293.7)"/>
  <path d="M512.46,722.11c-.84,1-1.8,2.85-2.57,2.77a6.65,6.65,0,0,1-4.29-2.23c-6.15-8.14-11.73-16.72-18.19-24.59-6.34-7.71-13.4-14.84-20.35-22-6.06-6.27-12.27-12.43-18.67-18.36-10-9.26-19.41-19.49-30.54-27.15-19.77-13.6-42.85-17.7-66.46-19.69-14-1.19-26-8-36.57-17-.67-.56-.65-3.23,0-3.7,1-.78,3.49-1.33,4.2-.69,13.59,12.17,30.41,14.63,47.58,16.3,26.68,2.59,50.17,12.84,69.88,30.87,12.2,11.17,23,23.87,35.24,35,15.47,14.09,27.34,31,39.54,47.67A16.18,16.18,0,0,1,512.46,722.11Z" transform="translate(-249.61 -293.7)"/>
  <path d="M326.26,454.69c1.47,1.27,2.73,3.17,4.43,3.72,13.95,4.52,27.86,9.27,42,12.92,7.4,1.9,15.77.42,22.92,2.81,11.08,3.7,22.25,8.24,32,14.56,12.07,7.83,22.94,17.6,33.92,27,10.69,9.16,20.76,19,31.33,28.35,3,2.68,6.93,4.39,10.24,6.81,1.42,1,3,2.65,3.28,4.21.24,1.37-.93,3.84-2.11,4.34s-3.58-.3-4.75-1.33c-18.7-16.31-37.16-32.9-55.94-49.11-16.34-14.1-32.86-27.89-56.09-29.1a148.31,148.31,0,0,1-27.82-3.61c-15.61-3.86-31.54-7.71-43.11-20.24-2.25-2.44-3.65-5.75-5-8.86-.38-.87.9-2.46,1.41-3.72,1,.55,1.93,1.07,2.87,1.64,3.12,1.89,6.27,3.75,9.35,5.71A19.73,19.73,0,0,1,327.7,453Z" transform="translate(-249.61 -293.7)"/>
  <path d="M508.69,685.57c-1.26.52-2.54,1.5-3.8,1.47-2.22-.06-5.21.05-6.53-1.26-16.09-16-32.49-31.81-47.67-48.68-12.93-14.39-25.24-29.7-43.62-36.75-10.68-4.1-23-3.88-34.37-6.28a151.12,151.12,0,0,1-22.49-6.76c-9.5-3.62-18.8-7.8-28-12.16-1.92-.91-3-3.65-4.39-5.55,2.29,0,4.83-.76,6.83,0,11.14,4.16,21.87,9.65,33.26,12.82,14.75,4.12,30.24,5.61,44.92,9.92a83.18,83.18,0,0,1,26.21,13.25c9.42,7.12,17.44,16.15,25.65,24.75,5.3,5.56,9.49,12.19,14.82,17.72,7.82,8.11,16.15,15.74,24.41,23.42,3.65,3.4,7.7,6.37,11.48,9.62C506.27,681.82,506.8,682.94,508.69,685.57Z" transform="translate(-249.61 -293.7)"/>
  <path d="M399.15,459.46c-18.89,3.37-34.29-3.92-50.13-9-4.08-1.3-8.32-2.08-12.34-3.51-4.68-1.65-10-2.83-13.59-5.91-4.75-4.09-8.15-9.78-11.91-14.95-.35-.48.7-2.79,1.52-3.09a4.16,4.16,0,0,1,3.54,1c8.51,8.36,16.6,17.05,29.79,18a35.49,35.49,0,0,1,13.38,4.16c13.42,7,28,5.86,42.29,6.71,18.11,1.08,32.09,10.43,45,22.05q23.82,21.48,47.64,42.94a24.19,24.19,0,0,1,5,5.37c.78,1.36.29,3.44.37,5.2-1.58-.19-3.72.23-4.67-.64-11.65-10.63-22.82-21.8-34.73-32.11s-23.95-20.84-37.17-29.34C416,461.87,406.36,461.41,399.15,459.46Z" transform="translate(-249.61 -293.7)"/>
  <path d="M511.38,746.21c-1,.89-1.92,2.21-3.17,2.68a3.27,3.27,0,0,1-2.82-1.48c-5.19-14.14-16-24.18-25.8-34.8-15.74-17.06-31.71-34-48.33-50.15-6.5-6.34-14.36-12.55-22.76-15.37-11.51-3.86-24.23-4-36.24-6.54-18.88-4.06-37.89-8-54.24-19.32-1-.66-2.27-.83-3.25-1.47s-2.46-1.55-2.65-2.54a4,4,0,0,1,1.45-3.37c.86-.49,2.54,0,3.67.5,8.83,3.93,17.29,9.11,26.48,11.7,14.09,4,28.76,5.8,43,9.24,11.67,2.81,23.69,5.35,34.41,10.45,7.81,3.71,14,11.1,20.44,17.35q14,13.56,27.26,27.87c8.77,9.42,17.44,19,25.54,29,5.76,7.11,10.53,15,15.67,22.62A17.42,17.42,0,0,1,511.38,746.21Z" transform="translate(-249.61 -293.7)"/>
  <path d="M502.08,502.49c-.68,1-1.45,2.86-2,2.8-1.58-.2-3.72-.71-4.52-1.87-13.27-19.26-31.08-33.89-49.32-47.93-12.47-9.6-26.45-15.51-42.79-16.33a495.28,495.28,0,0,1-53.34-5.84c-10.95-1.74-21.82-5.37-29.5-14.36a97.77,97.77,0,0,1-8.48-12.38c-.38-.62.58-2.69,1.46-3.25.67-.43,2.5.1,3.28.8,4.71,4.24,9.71,8.26,13.76,13.08,6.71,8,16.36,8.55,25.15,9.79,18.07,2.55,36.47,2.84,54.52,5.48,9,1.32,18.51,4.26,26.07,9.14a357.77,357.77,0,0,1,41.14,31.18c8.67,7.57,15.47,17.3,23,26.12C501.27,499.76,501.48,501,502.08,502.49Z" transform="translate(-249.61 -293.7)"/>
  <path d="M500.55,649.14c-3.69-2.69-8-5.22-11.56-8.56-8.21-7.69-16.2-15.63-24-23.71a120.49,120.49,0,0,0-46.82-30.19c-8.06-2.85-16.78-3.81-25.19-5.67a65.74,65.74,0,0,1-8.75-2.15c-12.23-4.49-24.3-9.4-36.6-13.67-7.37-2.56-15.36-3.52-22.48-6.56-4.9-2.09-8.86-6.46-13.06-10-.34-.3.39-2.53,1.18-3.27a3.6,3.6,0,0,1,3.21-.5c7,2.93,14,6.15,21,9.11,10.1,4.26,20,9.1,30.44,12.36,13.25,4.14,27,6.68,40.39,10.38,17.79,4.91,34.79,11.85,48.86,24.14,12.82,11.2,25,23.12,37.53,34.67,2.66,2.46,5.75,4.51,8.15,7.19,1,1.13.85,3.39,1,5.16C503.77,648.1,502.33,648.44,500.55,649.14Z" transform="translate(-249.61 -293.7)"/>
  <path d="M382.51,378.8c-12.51,1.61-24.42.53-35.72-5.6-7.49-4.06-15.84-6.52-23.65-10-1.11-.5-1.34-3-2-4.53,1.77-.22,3.77-1.08,5.29-.56,6.6,2.3,12.92,5.49,19.6,7.45,10,2.92,20.05,5.84,30.29,7.31,8.25,1.19,16.85-.25,25.23.32,25.76,1.76,48,11,65.13,31.14,11,12.91,22.51,25.31,33.51,38.18.93,1.09-.33,4-.57,6.11-1.5-.67-3.39-1-4.44-2.06C479.54,430,464.89,412.29,448,397.09c-7.89-7.11-19.68-10.81-30.34-13.65C406.34,380.41,394.26,380.23,382.51,378.8Z" transform="translate(-249.61 -293.7)"/>
  <path d="M510.16,579.57c-1.16,1.62-2,3.7-2.82,3.74a7.79,7.79,0,0,1-4.86-1.77c-11.28-9.48-22.3-19.26-33.67-28.62s-22.92-18.45-34.59-27.4c-7.77-5.95-15.31-12.63-24-16.78-8.39-4-18.09-5.35-27.28-7.56-16.42-3.94-33.05-7.07-49.25-11.74-6.24-1.8-11.63-6.71-17.15-10.57-.86-.6-.34-3.16-.46-4.82,1.44.28,3,.26,4.3.87,8.08,3.76,15.73,9,24.19,11.24,16.05,4.2,32.62,6.33,48.84,10s30.5,10.28,42.89,22.07,26.38,21.45,39.63,32.13c6,4.85,11.79,10,17.85,14.76,4.17,3.3,8.75,6.07,12.92,9.38C508.16,575.62,508.91,577.66,510.16,579.57Z" transform="translate(-249.61 -293.7)"/>
</svg>
