<?xml version="1.0" standalone="no"?>
<!DOCTYPE svg PUBLIC "-//W3C//DTD SVG 20010904//EN"
 "http://www.w3.org/TR/2001/REC-SVG-20010904/DTD/svg10.dtd">
<svg version="1.0" xmlns="http://www.w3.org/2000/svg"
 width="2209.000000pt" height="2208.000000pt" viewBox="0 0 2209.000000 2208.000000"
 preserveAspectRatio="xMidYMid meet">

<g transform="translate(0.000000,2208.000000) scale(0.100000,-0.100000)"
fill="#000000" stroke="none">
<path d="M1595 20956 c-49 -21 -55 -48 -55 -255 0 -114 -4 -201 -11 -221 -21
-59 -27 -60 -549 -60 l-472 0 -29 -29 -29 -29 0 -204 c-5 -4752 1 -12770 9
-12790 18 -49 39 -53 291 -58 l235 -5 5 -235 c6 -269 9 -281 81 -300 27 -8
186 -10 487 -8 246 1 457 -1 470 -6 46 -16 54 -54 56 -265 1 -211 7 -239 53
-260 16 -8 179 -11 523 -11 483 0 500 -1 510 -19 6 -12 10 -106 10 -235 0
-118 4 -226 10 -241 18 -47 59 -55 275 -55 l197 0 29 -29 29 -29 0 -197 c0
-211 8 -252 51 -276 18 -9 136 -11 485 -10 499 2 516 1 546 -51 10 -17 13 -76
13 -224 1 -219 6 -244 61 -264 15 -6 225 -10 508 -10 400 0 485 -2 502 -14 18
-13 19 -32 24 -243 3 -125 9 -235 13 -243 22 -44 26 -45 562 -50 l510 -5 5
-235 c5 -243 9 -268 50 -290 11 -6 99 -10 210 -10 206 0 247 -8 271 -52 9 -16
14 -84 15 -227 2 -184 4 -206 21 -230 11 -14 31 -29 44 -32 13 -4 247 -7 520
-8 443 -1 498 -3 503 -17 3 -9 6 -114 6 -234 0 -142 4 -228 11 -244 23 -49 40
-50 534 -50 253 1 479 -1 503 -4 l42 -4 0 -223 c0 -137 4 -234 11 -254 20 -56
43 -61 292 -61 160 0 226 -3 235 -12 9 -9 12 -76 12 -241 0 -144 4 -236 11
-249 26 -48 29 -48 806 -48 673 0 731 1 763 18 52 26 60 59 59 252 -1 223 -2
215 25 247 l24 28 221 5 c213 5 221 6 243 28 22 22 23 29 28 261 3 132 9 243
13 248 5 4 233 8 508 9 386 1 505 4 524 14 41 22 48 57 49 263 1 207 7 235 53
256 15 7 96 11 214 11 217 0 249 7 268 60 7 21 11 115 11 255 0 194 2 224 16
229 9 3 241 6 516 6 l500 0 29 29 29 29 0 219 c0 120 3 228 6 241 l6 22 494 0
c532 0 547 1 576 52 10 17 13 81 14 247 1 205 3 225 20 238 14 10 114 13 505
13 326 0 496 4 512 11 48 22 52 40 57 264 3 116 9 217 13 225 19 40 45 45 248
46 212 1 248 7 268 50 7 16 11 102 11 244 0 120 3 225 6 234 5 14 60 16 503
17 273 1 507 4 520 8 13 3 34 19 45 34 20 27 21 42 22 233 2 222 7 244 60 264
15 6 219 10 490 10 522 0 514 -1 533 68 6 20 11 135 11 255 l0 217 428 1 c235
1 452 0 483 -1 70 -2 130 14 155 41 17 19 19 43 24 263 l5 241 241 5 c270 6
274 6 295 79 7 25 9 2075 7 6501 -3 5619 -5 6468 -17 6487 -8 12 -26 26 -38
32 -32 15 -2040 15 -2078 1 -48 -18 -55 -57 -55 -305 l0 -225 -62 -2 c-35 -1
-263 -2 -508 -2 -412 -1 -448 -2 -473 -19 -16 -10 -32 -29 -37 -43 -6 -14 -10
-123 -10 -242 0 -119 -4 -222 -8 -229 -5 -9 -74 -13 -245 -15 l-237 -3 -27
-28 -28 -27 -5 -243 -5 -242 -785 -5 c-432 -3 -793 -9 -803 -14 -38 -18 -42
-45 -45 -288 l-4 -238 -1041 0 c-972 0 -1044 -1 -1077 -18 -57 -28 -60 -43
-60 -293 0 -198 -2 -228 -16 -233 -9 -3 -357 -6 -775 -6 -838 0 -816 2 -838
-60 -7 -21 -11 -115 -11 -255 l0 -223 -26 -6 c-14 -4 -121 -6 -238 -5 -144 1
-220 -2 -234 -10 -43 -23 -47 -46 -48 -256 -1 -110 -2 -217 -3 -237 l-1 -38
-224 0 c-235 0 -277 -6 -299 -44 -9 -15 -13 -154 -17 -534 l-5 -513 21 -5 c12
-3 120 -4 240 -2 251 3 265 7 284 78 7 26 10 206 10 521 -1 264 1 484 5 487 4
4 106 7 228 7 240 0 275 6 296 51 7 16 11 98 11 228 0 112 3 218 6 235 l6 31
768 0 c534 0 777 3 799 11 17 6 37 21 44 33 8 14 14 98 17 261 l5 240 1062 5
1062 5 21 21 c33 32 39 83 37 301 -1 111 1 205 4 208 4 3 348 6 765 6 453 0
774 4 796 10 66 17 68 26 68 280 0 125 3 234 6 243 5 14 35 16 235 16 149 0
237 4 253 11 50 23 56 57 56 297 0 174 3 222 14 231 10 8 153 11 510 11 305 0
503 3 514 9 45 24 47 33 52 285 l5 241 238 3 c267 3 278 0 297 -67 7 -24 10
-1985 10 -5954 0 -3970 3 -5924 10 -5937 25 -47 43 -50 257 -50 129 0 211 4
227 11 13 7 30 26 38 43 10 25 13 1138 13 5961 0 5697 1 5931 18 5957 10 14
30 29 45 33 46 12 409 7 432 -5 12 -6 28 -27 36 -45 12 -30 14 -915 14 -6264
l0 -6229 -25 -6 c-13 -3 -243 -6 -511 -6 -521 1 -517 1 -543 -49 -6 -10 -11
-114 -11 -243 -1 -123 -5 -229 -9 -236 -5 -9 -203 -12 -786 -14 -853 -3 -813
0 -835 -62 -5 -16 -10 -112 -10 -213 0 -209 -8 -243 -62 -262 -18 -6 -112 -11
-220 -11 -218 0 -240 -6 -258 -68 -7 -23 -10 -116 -8 -253 3 -185 1 -216 -12
-219 -8 -2 -474 -5 -1035 -6 -561 -2 -1032 -3 -1047 -4 -15 0 -40 -11 -55 -24
l-28 -24 -5 -232 c-5 -215 -6 -233 -24 -246 -17 -12 -176 -14 -1045 -14 -957
0 -1028 -1 -1061 -18 -53 -26 -59 -55 -59 -309 l-1 -223 -504 0 c-310 0 -515
-4 -531 -10 -48 -18 -55 -57 -55 -305 0 -173 -3 -225 -12 -226 -7 -1 -103 0
-213 1 -224 2 -275 -6 -303 -47 -15 -24 -17 -56 -18 -253 0 -125 -4 -232 -8
-238 -11 -19 -486 -17 -512 2 -19 14 -19 89 -24 6008 l-5 5993 -263 0 c-223 0
-264 2 -272 15 -6 9 -10 213 -10 507 0 287 -4 502 -10 517 -17 46 -39 51 -290
56 l-235 5 -5 235 c-3 164 -9 242 -18 257 -24 43 -45 47 -268 44 -116 -1 -223
1 -237 4 l-27 7 0 230 c0 241 -5 274 -47 294 -10 5 -247 11 -528 14 l-510 5
-5 241 c-4 194 -8 244 -20 259 -39 47 -20 46 -1078 45 -548 -1 -1009 1 -1024
5 -56 14 -63 42 -64 240 -1 236 0 230 -28 262 l-24 28 -789 5 -788 5 -5 242
-5 243 -28 27 -27 28 -514 3 -514 3 -6 22 c-3 12 -6 117 -6 234 0 134 -4 221
-11 236 -22 49 -31 50 -559 54 -272 1 -501 5 -507 8 -10 3 -13 58 -13 229 0
124 -4 236 -10 250 -18 49 -52 56 -259 56 -104 0 -201 4 -215 10 -54 20 -59
43 -60 263 -1 224 -5 239 -61 263 -47 19 -386 19 -430 0z m-93 -1102 c40 -25
38 222 38 -6262 0 -4369 -3 -6198 -11 -6220 -19 -56 -50 -62 -298 -62 -208 0
-221 1 -231 19 -14 27 -14 12421 0 12472 17 61 24 63 224 69 168 5 252 0 278
-16z m1128 -224 c5 -245 9 -268 51 -291 15 -8 166 -11 513 -10 271 1 500 -1
509 -5 15 -5 17 -29 17 -225 0 -230 9 -286 48 -306 9 -4 249 -10 532 -13 l515
-5 0 -235 c0 -270 3 -281 76 -300 28 -8 186 -11 493 -9 334 2 457 -1 473 -10
43 -22 48 -46 53 -268 5 -204 6 -213 28 -235 l23 -23 1339 -3 1339 -2 1 -236
c1 -262 5 -283 61 -303 22 -7 191 -11 530 -11 l499 0 0 -229 c0 -126 4 -241
10 -255 21 -55 41 -60 290 -60 126 -1 232 -5 237 -9 4 -5 10 -239 13 -520 3
-282 9 -518 14 -526 22 -34 71 -41 301 -41 l225 0 -2 -2976 -3 -2976 -28 -24
c-28 -24 -30 -24 -256 -24 -163 0 -230 3 -239 12 -9 9 -12 194 -12 770 0 844
2 816 -64 843 -27 12 -84 15 -250 15 -203 0 -216 1 -226 19 -14 26 -14 476 0
502 10 18 23 19 231 19 257 0 281 5 298 67 7 26 11 361 11 1033 0 927 -1 997
-18 1030 -26 53 -56 59 -300 59 l-212 1 -10 26 c-6 14 -10 117 -10 229 0 112
-4 215 -10 229 -19 52 -38 56 -278 58 -186 3 -224 6 -237 19 -13 13 -16 50
-18 235 -2 231 -6 251 -50 276 -15 9 -89 15 -234 18 -280 7 -256 -18 -263 263
-6 242 -11 259 -77 275 -23 6 -671 9 -1572 8 -999 -1 -1545 2 -1565 9 -58 19
-66 54 -66 278 l0 199 -29 29 -29 29 -472 0 c-522 0 -528 1 -549 60 -7 20 -11
105 -11 217 0 211 -8 243 -60 262 -23 8 -185 11 -531 11 l-499 0 0 225 c0 243
-6 282 -52 306 -31 17 -414 17 -446 0 -45 -24 -52 -57 -52 -256 0 -200 8 -243
51 -265 15 -9 94 -13 250 -14 153 -1 232 -5 239 -12 8 -8 10 -86 8 -258 -3
-232 -4 -249 -22 -262 -16 -11 -65 -14 -232 -14 -117 0 -224 -4 -239 -10 -49
-18 -56 -60 -53 -281 l3 -199 28 -27 27 -28 237 -5 237 -5 7 -25 c4 -14 7
-120 8 -237 1 -209 1 -212 25 -240 l24 -28 230 -5 c175 -4 233 -8 246 -19 15
-12 16 -41 14 -264 l-3 -251 -25 -7 c-14 -4 -240 -7 -502 -8 -289 -1 -487 -5
-503 -11 -56 -21 -56 -12 -53 -825 l3 -745 28 -27 27 -28 230 -3 c194 -3 231
-6 242 -19 10 -12 13 -72 13 -252 0 -130 -3 -244 -7 -253 -7 -16 -27 -18 -226
-18 -248 0 -277 -5 -298 -56 -20 -47 -20 -391 0 -438 21 -50 50 -56 291 -56
185 0 214 -2 226 -17 11 -12 15 -70 17 -246 2 -127 1 -241 -2 -254 l-6 -23
-223 0 c-243 0 -278 -7 -304 -60 -10 -19 -13 -138 -13 -488 0 -524 0 -523 69
-542 20 -5 118 -10 219 -10 212 0 231 -5 250 -68 7 -24 12 -112 12 -226 l0
-188 29 -29 c16 -16 40 -29 53 -30 13 0 223 0 468 1 409 1 448 -1 480 -17 56
-29 60 -47 60 -260 0 -105 4 -203 10 -217 21 -56 23 -56 575 -54 l506 3 -1
234 c-1 259 -5 280 -62 300 -20 7 -104 11 -218 11 -202 -1 -230 4 -250 49 -12
26 -16 464 -4 482 3 5 475 9 1050 9 1150 0 1090 3 1113 -61 6 -19 11 -107 11
-215 0 -100 4 -194 10 -208 23 -61 -40 -58 1077 -57 560 0 1034 -3 1053 -7
l35 -8 0 -264 0 -265 -1317 -3 c-822 -1 -1326 2 -1342 8 -14 5 -33 22 -43 37
-16 24 -18 48 -15 198 4 304 3 305 -276 305 -185 0 -237 -8 -258 -41 -5 -8
-11 -112 -14 -231 l-5 -218 -28 -27 -27 -28 -246 -3 -245 -3 3 -243 c2 -198 6
-246 18 -261 38 -46 21 -45 1084 -45 625 0 1013 -3 1029 -9 47 -18 51 -41 52
-256 0 -216 6 -243 52 -264 18 -8 232 -11 759 -11 789 0 787 0 814 -50 8 -15
12 -81 11 -202 -2 -190 6 -243 40 -274 19 -17 43 -19 240 -24 288 -7 262 19
269 -269 4 -174 8 -222 20 -236 33 -39 71 -45 294 -45 161 0 217 -3 223 -12 4
-7 10 -118 13 -246 l5 -234 28 -24 c28 -24 31 -24 228 -24 218 0 245 -6 267
-55 15 -33 17 -2631 2 -2655 -8 -13 -51 -15 -270 -18 l-260 -3 0 228 c0 197
-2 233 -18 263 -26 53 -56 59 -304 59 -217 1 -218 1 -223 24 -3 12 -6 122 -7
244 -3 216 -4 223 -26 245 l-23 23 -517 5 c-284 3 -518 7 -519 8 -1 1 -3 110
-5 242 l-3 240 -28 27 -27 28 -1050 5 c-842 4 -1052 8 -1062 18 -10 10 -13 64
-14 220 0 114 -4 222 -8 240 -13 56 -45 65 -246 66 -195 2 -234 -3 -264 -34
-20 -19 -21 -34 -26 -249 -4 -173 -8 -232 -19 -244 -12 -15 -41 -17 -232 -17
-120 0 -229 4 -244 10 -46 18 -55 59 -55 264 0 102 -4 196 -10 210 -5 14 -21
33 -35 42 -25 16 -65 17 -484 15 -405 -2 -462 -1 -498 14 -30 12 -45 25 -52
47 -6 18 -11 110 -11 213 0 193 -8 237 -44 258 -15 9 -154 13 -531 17 l-510 5
-5 237 c-5 219 -7 239 -26 264 -11 15 -34 32 -50 36 -16 4 -113 8 -215 7 -121
-1 -194 3 -208 10 -41 22 -46 47 -51 269 l-5 214 -28 24 c-28 24 -31 24 -223
24 -207 0 -251 8 -273 49 -15 27 -16 12427 -1 12466 5 14 20 30 32 35 13 5
129 8 258 7 l235 -2 5 -235z m1047 -3606 c37 -23 45 -74 41 -281 -3 -169 -5
-195 -21 -210 -16 -16 -43 -18 -258 -20 l-240 -3 -8 23 c-11 28 -12 436 -2
474 l7 28 190 6 c213 6 259 3 291 -17z m1095 -562 c22 -22 23 -29 26 -235 3
-207 3 -213 -19 -232 -20 -19 -39 -20 -516 -20 -480 0 -495 1 -509 20 -12 16
-14 61 -12 244 l3 225 25 13 c19 10 130 12 502 11 l477 -3 23 -23z m1623 -522
c49 -19 56 -59 53 -287 -3 -189 -4 -206 -22 -219 -29 -21 -1553 -21 -1582 0
-18 13 -19 30 -22 232 -3 224 3 268 36 277 37 10 1511 7 1537 -3z m1602 0 c12
0 35 -11 50 -24 l28 -24 5 -221 c5 -213 6 -221 28 -243 l23 -23 502 -5 c276
-3 503 -7 504 -8 1 -1 9 -9 17 -18 14 -13 16 -49 16 -235 0 -206 -1 -220 -20
-239 -20 -20 -33 -20 -1330 -20 -1297 0 -1310 0 -1330 20 -19 19 -20 33 -20
238 0 173 3 222 14 238 13 18 30 19 230 22 118 1 226 6 240 12 14 5 33 22 43
37 16 24 18 52 18 235 0 198 1 208 21 229 12 11 36 24 53 28 25 5 362 5 908 1z
m-3200 -556 c10 -13 13 -73 13 -224 0 -126 4 -220 11 -239 22 -63 -8 -61 818
-61 530 0 757 -3 775 -11 33 -15 36 -39 36 -265 0 -116 4 -202 11 -217 25 -54
-29 -52 1084 -57 567 -3 1037 -9 1046 -13 34 -17 39 -55 39 -272 0 -181 -2
-216 -16 -229 -14 -14 -148 -16 -1325 -16 -1442 0 -1355 4 -1378 -61 -7 -19
-11 -109 -11 -221 0 -215 8 -248 62 -267 21 -8 435 -11 1334 -11 1171 0 1304
-2 1318 -16 14 -13 16 -48 16 -225 0 -226 7 -265 52 -291 16 -9 89 -14 250
-18 124 -3 230 -9 235 -13 4 -5 8 -117 8 -249 0 -226 -1 -240 -19 -254 -16
-11 -65 -14 -233 -14 -245 0 -265 -5 -282 -68 -6 -20 -11 -117 -11 -215 0
-279 -2 -277 278 -277 113 0 202 4 221 11 56 20 61 44 61 282 0 168 3 217 14
233 14 18 28 19 255 19 157 0 244 -4 251 -11 7 -7 11 -251 11 -794 0 -703 -2
-785 -16 -799 -13 -13 -52 -17 -245 -19 -220 -4 -229 -3 -249 17 -20 20 -21
32 -21 236 0 241 -5 264 -61 284 -22 8 -254 11 -765 11 -527 0 -740 3 -758 11
-48 22 -56 59 -56 272 0 181 -1 196 -21 220 -11 15 -38 31 -59 37 -27 7 -367
10 -1039 10 -798 -1 -1003 1 -1020 12 -37 23 -42 54 -39 283 l3 219 25 7 c14
4 363 7 777 8 521 0 758 4 775 11 48 22 53 42 56 245 4 224 -4 260 -58 287
-32 17 -91 18 -792 18 -674 0 -758 2 -772 16 -14 13 -16 48 -16 225 0 226 -7
265 -52 291 -18 10 -124 13 -514 13 -401 0 -494 3 -507 14 -15 12 -17 42 -17
245 0 185 3 236 14 252 14 18 32 19 503 20 543 1 538 1 560 64 18 54 17 391
-2 436 -26 64 -28 64 -564 64 -530 0 -510 -2 -512 63 0 18 0 109 1 203 2 276
3 274 -266 274 -210 0 -247 7 -269 51 -20 38 -22 451 -2 467 19 16 46 17 557
15 447 -2 486 -3 497 -19z m4912 -538 c18 -21 16 -2137 -2 -2148 -17 -11 -479
-10 -497 2 -12 8 -16 50 -20 243 -5 246 -7 253 -54 280 -15 8 -89 12 -243 12
-161 0 -225 3 -234 12 -9 9 -12 74 -12 241 1 127 4 239 7 250 9 28 63 34 275
31 192 -3 224 3 248 51 10 19 13 140 13 513 0 474 1 488 20 507 19 19 33 20
254 20 188 0 236 -3 245 -14z m-5480 -556 c27 -14 32 -63 29 -278 -3 -179 -4
-184 -27 -203 -22 -18 -46 -19 -517 -19 l-493 0 -15 22 c-13 18 -16 57 -16
214 0 107 5 204 10 221 10 27 33 46 67 55 35 9 945 -2 962 -12z m19 -1082 c9
-9 12 -79 12 -255 0 -229 -1 -243 -19 -253 -13 -6 -197 -10 -530 -10 -494 0
-511 1 -521 19 -6 12 -10 109 -10 246 0 137 4 234 10 246 10 18 27 19 528 19
390 0 521 -3 530 -12z m1097 -549 c6 -6 10 -97 9 -251 0 -225 -2 -242 -19
-255 -16 -11 -105 -13 -527 -11 -330 2 -511 7 -517 13 -11 11 -17 492 -7 503
15 14 120 17 571 14 314 -1 483 -6 490 -13z m-1090 -540 c6 -6 12 -103 15
-244 7 -306 -19 -278 263 -285 241 -6 258 -11 276 -77 12 -44 10 -442 -2 -460
-6 -10 -117 -13 -500 -13 -448 0 -495 2 -527 18 -52 25 -59 57 -59 279 -1 188
-1 192 -25 220 l-24 28 -221 5 c-213 5 -221 6 -243 28 -22 22 -23 28 -26 267
l-3 244 38 3 c100 8 1028 -3 1038 -13z m5986 -1649 c18 -10 19 -24 19 -244 0
-201 -2 -235 -16 -247 -12 -10 -70 -13 -239 -13 -191 -1 -227 1 -240 15 -13
13 -16 48 -16 215 -1 260 -1 250 17 268 13 14 49 16 235 16 133 0 228 -4 240
-10z m-525 -544 c11 -16 14 -68 14 -257 0 -208 -2 -238 -17 -250 -12 -11 -65
-14 -237 -14 -252 0 -268 4 -284 72 -11 43 -8 444 3 462 5 9 74 11 257 9 234
-3 251 -4 264 -22z m1061 -2 c37 -23 45 -75 41 -271 l-3 -183 -28 -27 -27 -28
-225 0 c-170 0 -227 3 -237 13 -19 19 -19 472 1 495 11 14 41 17 195 20 209 3
253 0 283 -19z m-521 -548 c20 -28 21 -463 0 -491 -13 -18 -31 -19 -221 -22
-226 -4 -267 4 -286 54 -5 13 -9 123 -9 244 0 218 0 220 23 229 12 5 125 8
250 7 213 -2 230 -3 243 -21z m509 -536 c53 -20 55 -39 55 -527 0 -407 -2
-451 -18 -483 -29 -58 -43 -61 -284 -58 -119 2 -220 7 -225 11 -4 5 -8 239 -8
521 0 420 2 516 14 529 12 15 41 17 227 17 117 0 224 -4 239 -10z m5483 -2765
c21 -25 22 -33 22 -234 0 -151 -3 -211 -12 -223 -11 -13 -48 -17 -214 -21
-222 -6 -255 0 -281 53 -18 35 -18 395 0 430 l13 25 189 5 c216 6 251 1 283
-35z m-9828 15 c19 -19 20 -33 20 -223 0 -284 13 -272 -280 -268 -193 2 -206
3 -222 23 -16 18 -18 45 -18 234 0 201 1 215 20 234 19 19 33 20 240 20 207 0
221 -1 240 -20z m2204 -516 c12 -5 15 -40 16 -235 0 -135 5 -239 11 -252 24
-53 16 -52 567 -55 l512 -3 0 -230 c0 -251 6 -280 56 -299 14 -6 128 -10 254
-10 199 0 229 -2 234 -16 3 -9 6 -117 6 -240 0 -136 4 -233 10 -245 24 -43 56
-49 284 -49 183 0 217 -2 231 -16 14 -14 15 -69 13 -520 l-3 -503 -23 -23
c-22 -22 -29 -23 -244 -26 -121 -2 -232 -1 -244 2 l-24 6 0 221 c0 332 13 319
-319 319 -221 0 -221 0 -226 23 -3 12 -6 123 -7 245 l-3 224 -28 24 -28 24
-492 0 c-271 0 -502 3 -514 6 -21 6 -22 9 -23 229 0 135 -5 236 -12 255 -18
53 -51 60 -268 60 -220 0 -242 6 -259 68 -6 20 -11 119 -11 220 0 192 -7 229
-47 248 -10 5 -247 11 -528 14 l-510 5 -3 215 c-2 134 1 229 8 252 20 71 -21
67 832 68 421 0 773 -3 782 -6z m6517 -9 c16 -9 34 -27 39 -41 14 -36 13 -471
-1 -479 -6 -4 -224 -7 -486 -6 -293 1 -489 -3 -512 -9 -75 -20 -75 -23 -81
-294 l-5 -241 -510 -5 c-546 -5 -546 -5 -565 -56 -6 -14 -10 -108 -10 -210 0
-192 -7 -232 -45 -264 -14 -12 -62 -16 -234 -20 -119 -3 -222 -9 -230 -14 -34
-22 -41 -71 -41 -301 l0 -225 -514 0 -515 0 -28 24 -28 24 0 230 c0 179 3 233
14 245 12 15 41 17 230 17 312 0 301 -12 301 326 0 184 2 213 16 218 9 3 116
6 239 6 222 0 224 0 252 24 l28 24 3 246 3 246 502 0 c458 0 505 2 537 18 52
26 63 73 54 248 -3 78 -3 174 1 213 l7 71 775 0 c679 0 778 -2 804 -15z
m-3797 -1127 c10 -25 12 -86 10 -243 -3 -184 -6 -212 -21 -222 -12 -10 -77
-13 -239 -13 -189 0 -225 2 -238 16 -14 13 -16 49 -16 239 0 190 2 226 16 239
13 14 50 16 245 16 l230 0 13 -32z"/>
<path d="M14700 13852 c-54 -27 -62 -70 -57 -293 3 -103 2 -199 0 -213 l-5
-26 -230 0 c-249 0 -273 -4 -296 -55 -8 -18 -12 -98 -12 -254 l0 -228 -76 -6
c-41 -4 -141 -5 -222 -3 -248 7 -252 3 -251 -269 0 -203 8 -242 54 -264 26
-12 215 -18 407 -12 15 1 40 12 55 25 l28 24 5 244 5 243 235 5 c266 6 281 9
299 77 6 21 11 135 11 256 l0 217 813 -2 812 -3 5 -235 c3 -164 9 -242 18
-257 25 -44 46 -48 292 -53 l235 -5 3 -534 c2 -421 0 -536 -10 -543 -7 -4
-239 -8 -515 -8 l-502 0 -28 -24 -28 -24 -5 -214 c-3 -146 -9 -220 -18 -235
-24 -42 -46 -46 -243 -44 -148 2 -195 -1 -223 -13 -67 -28 -67 -28 -64 -556
l3 -470 28 -27 27 -28 193 -3 c124 -2 206 1 230 8 60 18 67 45 67 270 0 214 6
240 61 259 19 7 108 11 220 11 117 0 197 4 212 11 46 21 52 49 52 264 1 211 5
233 48 257 15 8 87 12 227 12 225 1 241 5 260 60 5 16 10 123 10 242 0 117 3
219 6 228 5 14 35 16 235 16 141 0 237 4 252 11 52 24 52 19 55 514 2 314 0
472 -8 498 -20 68 -34 72 -291 72 -125 0 -231 4 -236 8 -4 5 -10 116 -13 248
-5 232 -6 239 -28 261 -22 22 -28 23 -260 26 -140 2 -241 7 -247 13 -6 6 -10
99 -10 237 0 171 -3 233 -13 250 -30 52 -25 52 -809 52 -673 0 -731 -1 -763
-18z"/>
<path d="M15255 9491 c-11 -5 -29 -19 -40 -31 -19 -21 -20 -38 -23 -499 l-3
-477 23 -34 c15 -21 35 -37 57 -42 18 -5 118 -8 222 -6 l189 3 27 28 28 27 3
478 c2 524 3 514 -58 544 -30 15 -63 18 -220 17 -102 0 -194 -4 -205 -8z"/>
</g>
</svg>
