<svg xmlns="http://www.w3.org/2000/svg" viewBox="0 0 518.93 967.48">
  <path d="M885.34,651.19a3.83,3.83,0,0,0,4.42-.75c2.34-2.14,5.31-2.93,8.32-3.38a41.77,41.77,0,0,0,8.31-2.22c3.16-1.14,6.36-2.15,9.55-3.2.91-.31,1.85-.53,2.74-.88l19.16-7.58a12.28,12.28,0,0,1,1.78-.72c6.81-1.54,12-5.86,17.13-10.17a37.31,37.31,0,0,1,3.41-2.63q5.63-3.63,11.35-7.14c5.73-3.49,11.49-6.91,17.24-10.37a23.34,23.34,0,0,0,5.62-4.43,144.41,144.41,0,0,1,15.25-14.53,55.64,55.64,0,0,0,4.12-4q4.83-5,9.59-10a20.36,20.36,0,0,0,3.06-3.67,10.28,10.28,0,0,1,5.7-4.86,7.29,7.29,0,0,0,4.65-5.1,4.24,4.24,0,0,0-.93-4.46q-4-4.15-8-8.2a9.19,9.19,0,0,0-2.72-1.93q-6.6-2.79-13.31-5.36a24.24,24.24,0,0,0-4.18-1c-6-1.13-11.9-2.36-17.76-4-8.44-2.41-17-4.74-25.74-5.49-6-.51-12-1.57-18.16-1.08-3,.24-6.06-.29-9.08-.53a14.41,14.41,0,0,0-6.14.57c-3.4,1.23-6.95.69-10.45.39-2.22-.2-4.45-.37-6.67-.56-3.5-.29-7-.5-10.49-.94a27.48,27.48,0,0,0-7.63-.28,32.53,32.53,0,0,1-4.31.1l-11,.14c-4.8.06-9.59.14-14.38.17A2.4,2.4,0,0,1,863,521a1.13,1.13,0,0,1,.78-1.5,7.88,7.88,0,0,1,1.88-.24c4.94-.24,9.92,0,14.82-.9a8.66,8.66,0,0,1,1.91-.07c4.15.06,8.31.18,12.46.19a48.16,48.16,0,0,1,12.37,1.21,29.26,29.26,0,0,0,5.71.59c3,.18,6.07.17,9.1.43a41.59,41.59,0,0,0,9.52-.28c3.6-.5,7.32-.1,11,0,1.12,0,2.24.34,3.34.27,12.41-.83,24.54.94,36.54,3.87,5.27,1.28,10.5,2.76,15.74,4.14a30.87,30.87,0,0,0,4.2,1,60.58,60.58,0,0,1,20.14,5.82,5.84,5.84,0,0,0,1.77.72c3.46.4,5.63,2.67,7.81,5.08a70,70,0,0,0,6.15,6,8.19,8.19,0,0,1,3,7.21c-.3,3.67-.22,7.33-.17,11,0,2.66-.81,5.34-1.29,8s-1,5.65-1.58,8.46a38.5,38.5,0,0,1-1.1,4.66c-1.8,5.47-3.54,11-5.58,16.33a154,154,0,0,0-5.43,18.88c-1.6,6.69-3.2,13.37-6.27,19.58a4.3,4.3,0,0,0-.39.88c-1.74,6.65-4.49,13-6.59,19.5s-4,12.79-6,19.21a9.31,9.31,0,0,1-4,5.21c-.53.36-1,.78-1.56,1.11-6.19,3.8-9.24,9.56-10.27,16.53-.77,5.21-1.38,10.44-2.07,15.66a22.75,22.75,0,0,1-.62,3.78c-2,6.27-3.06,12.73-4.32,19.16a19.65,19.65,0,0,1-1.52,5,28,28,0,0,0-2.58,9.17,81.71,81.71,0,0,1-2.83,13.58,6.22,6.22,0,0,0-.3,1.41c-.54,6.9-2.81,13.43-4.19,20.15-1.13,5.46-1.8,11-2.67,16.55-.2,1.26-.35,2.53-.61,3.78-1.52,7.19-2.12,14.6-4.59,21.54s-2.56,14.44-4.15,21.6c-.84,3.73-1.82,7.43-2.63,11.17-.7,3.27-1.23,6.58-1.87,9.87a43.77,43.77,0,0,1-1.51,7c-2.81,7.53-3.72,15.53-5.86,23.21-.3,1.07-.28,2.22-.48,3.32q-1.17,6.36-2.39,12.71c-.31,1.56-.75,3.1-1.07,4.67q-1.89,9.39-3.74,18.8a30.46,30.46,0,0,0-.68,4.73,24.83,24.83,0,0,1-1.26,6.54,42.69,42.69,0,0,0-1.32,8,21.73,21.73,0,0,1-1.89,7.38,17.65,17.65,0,0,0-1.35,8.44,27.25,27.25,0,0,1,0,4.78c-.36,2.39-.64,4.61.56,7,.8,1.56,0,3.08-1.52,4.12a19.11,19.11,0,0,1-3.38,1.78c-6.65,2.72-13.31,5.44-20,8a65.35,65.35,0,0,1-7.75,2.49c-4.18,1.06-8.41,1.92-12.62,2.85a134.7,134.7,0,0,0-21.15,6.17,22.73,22.73,0,0,1-10.74,2,19.72,19.72,0,0,0-5.7.56,117.5,117.5,0,0,1-20.89,2.55,61.27,61.27,0,0,0-7.62.86c-10.67,1.56-21.36,1-32,0-4.75-.46-9.46-1.41-14.19-2.13a34.86,34.86,0,0,0-3.8-.46,43.23,43.23,0,0,1-15.7-4q-14.31-6.15-28.63-12.24c-.44-.19-.88-.39-1.31-.6l-18.5-9a8.41,8.41,0,0,0-2.19-1c-2.84-.48-3.9-2.53-4.56-5-.17-.61-.19-1.26-.35-1.88a66.47,66.47,0,0,0-1.76-6.44,75.23,75.23,0,0,1-4.19-15.23c-.18-1.26-.51-2.5-.76-3.75a74.59,74.59,0,0,1-1.77-8.93c-.55-6.56-2.13-12.92-3.54-19.31-1.93-8.74-3.87-17.47-5.65-26.23-1-5-1.57-10.11-2.63-15.1-2.21-10.48-4.61-20.91-7-31.36a9.67,9.67,0,0,0-.59-1.82c-2.18-4.88-3-10.09-3.94-15.29-.17-.94-.24-1.91-.49-2.83A184.41,184.41,0,0,1,666.43,821c-.7-4.89-2-9.69-3-14.54-.23-1.09-.45-2.2-.58-3.3-.67-5.56-1.9-11-2.9-16.51a144.91,144.91,0,0,0-5-20.9c-1.59-4.66-2.22-9.65-3.34-14.47-1-4.2-2-8.39-3.06-12.57a20.28,20.28,0,0,1-.69-2.79c-.69-7.22-3.1-14-5.15-20.88a42.64,42.64,0,0,1-1.48-7.51,9.39,9.39,0,0,0-4.16-7.2c-2.64-1.78-5.3-3.53-7.92-5.33-2.87-2-5.11-4.32-4.76-8.23.22-2.42,0-4.72-2-6.6-.69-.65-.81-2-1-3.1-.52-3.3-.83-6.6-2.23-9.74a30.43,30.43,0,0,1-1.55-6.49,18.24,18.24,0,0,0-2.24-5.79,26.39,26.39,0,0,1-3.12-8,38.52,38.52,0,0,0-2-5.89,177,177,0,0,1-6.55-19c-.57-2.15-.74-4.4-1.25-6.57-1.06-4.49-1.81-9-3.55-13.39a77.53,77.53,0,0,1-5.58-25.63,11.84,11.84,0,0,1,.22-2.85c.52-2.47,1.25-3.18,3.93-3.15,1.62,0,2.45-.56,2.72-2,1.15-6,5.09-10.1,8.83-14.52a24.25,24.25,0,0,1,13.33-7.9,62.92,62.92,0,0,0,12.06-4.62,58,58,0,0,1,7.16-2.67c7.15-2.34,14.57-3.59,21.84-5.44,6.19-1.58,12.31-3.43,18.67-4.29,7.28-1,14.55-2,21.83-3a9.73,9.73,0,0,1,1.43-.11c6.39-.09,12.78-.2,19.17-.25a31,31,0,0,0,9.69-1.48,21,21,0,0,1-.81-3.09,2.74,2.74,0,0,1,2.4-3,5.69,5.69,0,0,1,4.15.69c.54.34,1,.76,1.54,1.13a24.79,24.79,0,0,0,11.83,4.84,31.33,31.33,0,0,1,6.88,2,18.53,18.53,0,0,0,6.55,1.29,29.36,29.36,0,0,1,6.58,1.08c4.51,1,9.07,2,13.74,1.33a2.21,2.21,0,0,0,1.28-1.17c.12-.26-.22-1-.55-1.2-3.47-2.26-6.87-4.65-10.52-6.58a12.77,12.77,0,0,0-6-1.29,73.91,73.91,0,0,1-16.66-1.69,55.14,55.14,0,0,0-6.63-1.07,16.91,16.91,0,0,1-11-5.34,7.56,7.56,0,0,0-6.33-2.64c-7.14.41-13.49-2.05-19.49-5.63a18.78,18.78,0,0,0-2.89-1.69c-3.25-1.21-5-3.93-6.64-6.64a214.83,214.83,0,0,1-11.06-22.29,162.39,162.39,0,0,1-8.42-22.88,44.12,44.12,0,0,0-3-7c-2-4.33-3.76-8.82-7-12.47a14.33,14.33,0,0,1-2.29-3.64c-2.3-5.08-4.48-10.21-6.73-15.31a73.75,73.75,0,0,0-3.41-7.38,31.14,31.14,0,0,1-4-18.42,53.45,53.45,0,0,0,.08-7.16c-.27-4,.39-8,.71-11.94q.28-3.57.36-7.16c.09-4.31.06-8.62.17-12.93a16.6,16.6,0,0,0-.68-6.14,18.75,18.75,0,0,1-.92-4.2c-.5-5.08-1-10.16-1.33-15.25-.33-5.58-.44-11.17-.65-16.75-.08-1.92,0-3.85-.29-5.75a56.73,56.73,0,0,1,0-11.94,4.41,4.41,0,0,0-1.07-3.45c-1.69-2.11-3.06-4.48-4.74-6.59a35.62,35.62,0,0,1-5.21-9.55c-1-2.48-2.71-4.36-5.8-4.14a5,5,0,0,1-3.85-1.65c-.58-.54-1.16-1.09-1.7-1.68a16.09,16.09,0,0,0-9.39-5.38,4.38,4.38,0,0,1-3.74-2.6,4.54,4.54,0,0,0-2.8-2.46,61,61,0,0,0-5.86-2.1c-3.22-.91-6.48-1.71-9.74-2.49a47.64,47.64,0,0,0-5.65-1.07,158.15,158.15,0,0,0-22-1.12c-3,.09-6,.44-9-.06a8.46,8.46,0,0,0-4.13.87,5.73,5.73,0,0,1-4.63.28,13.9,13.9,0,0,0-5.64-.83c-1.91,0-3.82-.24-5.73-.44-.74-.08-1.53-1.16-1.28-1.76s.7-1.25,1.16-1.32a13.47,13.47,0,0,1,4.24-.19,7.53,7.53,0,0,0,5.88-1.34,15.88,15.88,0,0,1,7-2.9,5.14,5.14,0,0,0,2.24-.79c3.63-2.62,8.12-3.79,11.44-6.91a10.12,10.12,0,0,1,5.11-2.46c3.13-.63,6.21-1.51,9.33-2.16a27.12,27.12,0,0,1,4.75-.55c2.55-.09,5.12.15,7.55-.92a2.53,2.53,0,0,1,.95-.15c4-.07,8,0,12-.23A58,58,0,0,1,629,222.45a60.78,60.78,0,0,0,8.06.83c-.14-2-.92-5.27-2-6.35-1.6-1.64-2.32-3.8-3.7-5.53-2-2.5-4.11-4.9-6.25-7.27a8.31,8.31,0,0,0-2-1.31c-2.6-1.56-5.23-3.07-7.82-4.66-2.31-1.41-4.48-3.06-7.32-3.36a3.88,3.88,0,0,1-2.15-1c-2.16-2.09-5-2.82-7.61-3.89-2.37-1-4.67-2.09-6.94-3.27-5.19-2.68-10.6-4.46-16.52-4.39a14.28,14.28,0,0,1-3.33-.29c-3.12-.72-4.15-3.74-2.23-6.28a5.37,5.37,0,0,1,4-2.39c2.94-.17,5.54-1.43,8.27-2.29,9.66-3,19.45-5.22,29.69-3.86a31.06,31.06,0,0,0,3.35.15,32.44,32.44,0,0,1,9.39,1.63A102.59,102.59,0,0,0,639.18,173a61,61,0,0,1,7.34,2.19,4.82,4.82,0,0,0,1.41.21,1.21,1.21,0,0,0,.84-.31.93.93,0,0,0,.11-.85c-1.93-3.31-3.59-6.8-6.41-9.49a32.22,32.22,0,0,1-5.45-6.65c-2.7-4.48-6.61-7.83-10.68-10.91s-8-6.39-12.8-8.36a17.34,17.34,0,0,0-9.82-1.16c-3,.54-6,.88-9,1.24a4.91,4.91,0,0,1-4.34-1.56c-1.63-1.72-1.49-4.34.64-5.29,3.77-1.68,7.61-3.53,11.61-4.28,3.84-.71,7.92-1.25,11.91-.27a3.62,3.62,0,0,0,1.43.06c6.3-1.07,12.37.67,18.52,1.48,8.16,1.08,15.72,4.16,23.38,6.9,6.8,2.43,13.06,6,19.47,9.22,2.28,1.15,4.32,2.74,6.52,4,1.37.81,2.81,1.48,4.25,2.16.54.26,1.3-.35,1.28-1,0-1-.17-1.91-.18-2.86a46.1,46.1,0,0,1,.07-5.26c1.29-12.71,2.74-25.41,3.91-38.13.42-4.59.24-9.25.22-13.87a13.63,13.63,0,0,0-2-7.32,4.22,4.22,0,0,1-.37-4.11,2.91,2.91,0,0,1,4.67-1.41,12.34,12.34,0,0,1,4,5.29,12.13,12.13,0,0,1,.77,2.77c.76,5.45,4.26,8.88,8.78,11.27,4.36,2.3,8.78,4.54,13.72,5.58a65.23,65.23,0,0,1,8.23,2.56,31,31,0,0,1,9.28,4.9A106.88,106.88,0,0,1,751,119.52c1.73,1.82,3.3,3.87,5.93,5.25a13.23,13.23,0,0,0,.63-2.4,47.81,47.81,0,0,0,.08-5.74,16.11,16.11,0,0,1,1.81-8.33c1.69-3.43,3.66-6.73,5.56-10s3.79-6.29,5.54-9.52c.59-1.09.47-2.58,1.1-3.63,2-3.29,2.69-7.17,4.63-10.42,2.41-4,3.62-8.49,5.22-12.82a10.61,10.61,0,0,1,.8-2.24A3.8,3.8,0,0,1,786,57.77c1.36.13,1.82,1.29,2.17,2.3a9.82,9.82,0,0,1,.42,3.24c0,2.24-.17,4.47-.28,6.7a9.76,9.76,0,0,0,2.26,6.64c4.31,5.55,8.55,11.16,12.8,16.75,1,1.28,1.82,2.64,2.85,3.86,1.63,1.95,3.3,3.88,5.09,5.69,1.2,1.21,1.89,1.21,3.37.1,2.65-2,5.8-3.43,7.51-6.54A5.7,5.7,0,0,1,824,94.93a33.92,33.92,0,0,0,8.45-9c2.22-3.4,5.11-6.57,5.8-10.88a10.82,10.82,0,0,1,1.57-3.47,4.69,4.69,0,0,1,3-2.29,2.2,2.2,0,0,1,2.5.91c.81,1.73,1.76,3.44,1.63,5.45-.26,4.2.76,8.25,1.42,12.35.43,2.68.84,5.37,1.41,8a25.7,25.7,0,0,0,1.54,5A76.61,76.61,0,0,0,857,112a57.84,57.84,0,0,1,7.4,15.54c.27.92.68,1.79,1,2.68.88,2.2,2.25,2,3.63.46a9.55,9.55,0,0,0,2-3.27c1.29-3.76,4.07-6.47,6.48-9.42,1.41-1.73,3.33-1.82,5.1-.35a18.5,18.5,0,0,1,2.38,2.9A259.71,259.71,0,0,0,907.12,103c.82-.75,1.76-1.37,2.65-2,1.79-1.35,3.67-2.58,5.35-4a75.57,75.57,0,0,1,9-7.08,13.17,13.17,0,0,0,4.94-5.74c.87-1.89,1.82-3.74,2.86-5.53a8.2,8.2,0,0,1,1.9-2.09,2,2,0,0,1,2.62.13c.23.22.38.54.64.71,2,1.27,2.12,3.12,1.36,5a90.93,90.93,0,0,1-3.89,8.73,15.35,15.35,0,0,0-2,8.74,28.36,28.36,0,0,0,1.1,5.14c1.77,6.14,3.66,12.24,5.38,18.4.74,2.6,1.12,5.3,1.75,7.94a1.68,1.68,0,0,0,2.57,1.23c5-2.57,9.71-5.55,12.42-10.84a11.56,11.56,0,0,1,2.68-3.32c2.3-2,5.26-.85,5.68,2.19a17.42,17.42,0,0,1-.12,3.81c-.35,4.14-.64,8.29-1.14,12.41a15.22,15.22,0,0,0,2.69,10.43,41.66,41.66,0,0,1,5,11.87c1.69,5.84,3.49,11.62,6.56,16.93,1.75,3,1.71,6.44,2.13,9.76.08.62-.1,1.27-.07,1.91.07,1.83.66,2.59,2.57,2.84,2.06.27,4.15.25,6.21.45,3,.28,6,.51,9,1a20.21,20.21,0,0,1,9.43,4.49c.86.7,1.73,1.43,2.65,2.05,5,3.39,8.49,8.17,11.55,13.26a23.5,23.5,0,0,0,4.15,5.19,37.88,37.88,0,0,1,5.88,6.89,34.74,34.74,0,0,0,15.67,12.87c3.22,1.42,6.45,2.78,9.66,4.22a6.68,6.68,0,0,1,3.76,3.51,3.35,3.35,0,0,1-.66,4c-.88.9-2.08,1.63-2.61,2.7-1,2-2.54,2.25-4.39,2a9.23,9.23,0,0,1-2.31-.59,51.77,51.77,0,0,1-5.7-2.5c-5.1-2.85-10.64-4.35-16.26-5.62a24,24,0,0,0-9.52-.46c-3,.52-6,.44-9,1.32a70.34,70.34,0,0,0-19.77,9.55,32.68,32.68,0,0,0-7.93,7.59c-1.63,2.18-3.21,4.38-4.85,6.55a24.7,24.7,0,0,0-4.38,10c-1.5,7-3.26,14-4.82,21-1.35,6.08-2.56,12.18-3.87,18.26-.34,1.56-.83,3.08-1.26,4.61a24.79,24.79,0,0,0-1,3.69,49.69,49.69,0,0,1-2.64,11.13c-2.27,6.35-2.63,13.13-4.13,19.66a56.84,56.84,0,0,0-1.45,10.42,39.23,39.23,0,0,1-1.65,8.45c-1.12,4.16-2.48,8.26-3.7,12.4a19.39,19.39,0,0,0-.72,3.26,55.47,55.47,0,0,1-3,12.56,90.38,90.38,0,0,0-3.76,13.36c-1,5.17-2.46,10.25-3.63,15.38-.61,2.64-1,5.33-1.52,8a16.64,16.64,0,0,1-.43,2.36c-1.5,4.41-2,9-2.84,13.58a23.72,23.72,0,0,1-3.21,8c-2.14,3.55-4.27,7.1-6.54,10.56a45.65,45.65,0,0,1-8.2,10,80.88,80.88,0,0,1-16.06,11.23c-5.47,2.74-11.52,3.75-17.61,4.25-2.23.18-4.46.4-6.7.41-4.63,0-9.26-.06-13.88-.11l-3.84-.05a13.55,13.55,0,0,0-7.7,2.28c-4.15,2.71-8.27,5.45-12.4,8.19a7.84,7.84,0,0,0-1.9,1.45c-1.1,1.4-3.22,2.18-2.92,4.5,1.86.68,3.45-.39,5-1,4.7-2,9.36-4.09,13.92-6.38a12,12,0,0,1,8.32-1.27c1.15.25,2.17.61,2.51,1.89a3.22,3.22,0,0,1-1.34,3.78,55.8,55.8,0,0,1-5.14,2.55c-4.67,2.08-9.29,4.25-14,6.11-9.81,3.83-19.45,8.13-30,9.63a129.88,129.88,0,0,0-14.47,3.31,40.68,40.68,0,0,1-15.69.87c-1.27-.17-2.54-.3-3.8-.53-5.81-1.07-11.68-1.89-17.4-3.34-4.32-1.09-8.62-2.31-13-3.35-6.86-1.65-6.83-1.65-13.67-.93-4.29.46-8.6.66-12.9.89-4.79.24-9.59.28-14.37.6-3,.21-6,.75-9,1.18-6,.85-12,1.58-18,2.66-5,.9-10,2.29-15,3.36-5.31,1.14-10.54,2.57-15.79,3.89A75,75,0,0,0,632,547.38a49,49,0,0,1-5.83,2.16c-1.2.42-2.45.72-3.65,1.17-3.79,1.4-7.27,3.29-9.86,6.54-2,2.48-4.46,4.55-6,7.45-1.61,3.07-2,6.39-2.28,9.72a4.73,4.73,0,0,0,1,2.58,3.71,3.71,0,0,1,.55,3.62,3.36,3.36,0,0,0,.76,3.55,11.11,11.11,0,0,0,1.93,2.11c6.62,5,12.68,10.69,19.85,15,2.58,1.54,4.86,3.59,7.33,5.34a56.49,56.49,0,0,0,4.81,3.12c4,2.29,8.11,4.42,12.09,6.75,3.42,2,6.75,4.2,10.09,6.36a49.63,49.63,0,0,0,7.91,4.47c2.06.85,4,2,6,3,4,2,8.06,3.87,12.09,5.79a2.39,2.39,0,0,0,.43.2,91.7,91.7,0,0,1,12.18,4.18c3.85,1.79,8.24,2.44,12.43,3.43a22.83,22.83,0,0,0,5.7.66,44.8,44.8,0,0,1,14.12,2.33c.75.23,1.52.42,2.47.67a21.74,21.74,0,0,1,1.07-3.5,2.27,2.27,0,0,1,3.61-.9,38.1,38.1,0,0,1,4.64,4.14,19.86,19.86,0,0,0,6.09,4.57,14.28,14.28,0,0,1,2.53,1.36c3.46,2.73,7.46,3.18,11.72,3.28,5.58.13,11.16.74,16.74,1.11,3.67.24,7.34.58,11,.61,13,.11,25.9.07,38.85.17,3.35,0,6.7.21,10,.52a27.75,27.75,0,0,0,12.26-1.42c4-1.47,8.14-2.85,12.23-4.18,6.11-2,11-5.82,15.4-10.28a16.21,16.21,0,0,0,1.81-2.78,3.33,3.33,0,0,1,4.11-1.56c1.85.6,3.54,1.42,4.3,3.47a2.87,2.87,0,0,1-.68,3.48c-2.15,1.91-4.33,3.78-6.5,5.67l.2.25Zm-51,362a41,41,0,0,0,15.54-2.4,20.62,20.62,0,0,1,7.08-1,21.7,21.7,0,0,0,9.73-2.16c3.75-1.78,7.58-3.4,11.44-4.9,3.27-1.27,6.64-2.29,10-3.38,2.58-.84,5.2-1.55,7.76-2.45q4.74-1.67,9.4-3.55c2.36-1,4.67-2.06,7-3.11s4.37-2,6-3.85,3.35-3.87,5.07-5.75a6.2,6.2,0,0,0,1.86-3.79,28.33,28.33,0,0,1,2.17-7.82,40,40,0,0,0,1.71-6c1.1-5.47,2.08-11,3.11-16.46.26-1.42.51-2.84.84-4.23,2.75-11.66,5.59-23.31,7.07-35.22.89-7.17,3.31-14,5.07-20.94a124,124,0,0,0,3.07-15c1.08-8.73,2.72-17.36,4.63-25.94,1.67-7.48,3.34-15,5.22-22.4,1.52-6.05,2.73-12.14,4-18.24,2.74-13.3,5.82-26.52,8.37-39.86,1.24-6.43,2.89-12.78,4.4-19.15,1-4.35,2.33-8.64,3.18-13q2.73-14.12,4.26-28.41a12.19,12.19,0,0,0,0-1.91c0-.63-.84-1.21-1.37-.92a11.68,11.68,0,0,0-3.21,2,15,15,0,0,1-7,4,81,81,0,0,0-13.59,5.92,102.15,102.15,0,0,1-15.78,6.92c-7.45,2.39-15,4.68-22.18,7.68a112.75,112.75,0,0,1-19.24,5.67c-1.87.41-3.78.69-5.63,1.2a36.28,36.28,0,0,0-5.87,2A54,54,0,0,1,873.77,741c-4.88.79-9.72,2-14.72,1.16a1.93,1.93,0,0,0-.48,0c-3.67.21-7.33.37-11,.65a235.83,235.83,0,0,1-46.39-1.07c-.63-.08-1.27-.06-1.91-.1-7-.45-14-.86-21-1.36-2.38-.18-4.76-.55-7.14-.86-8.87-1.15-17.73-2.35-26.61-3.44-6-.74-12.07-1.24-17.91-3.13a26.65,26.65,0,0,0-6.13-.94c-3.67-.26-7.36-.29-10.78-1.9a3.77,3.77,0,0,0-1.4-.33c-5.57-.16-10.56-2.3-15.58-4.42a30.26,30.26,0,0,0-6.34-2.11c-7.5-1.31-14.33-4.34-21.09-7.66-4.15-2-8.48-3.71-12.75-5.52a2.41,2.41,0,0,0-1.38-.23c-.38.1-.92.51-1,.85a6.65,6.65,0,0,0,.12,2.35c1.51,6.36,3,12.73,4.61,19.07,2.21,8.83,4.59,17.61,6.38,26.54.71,3.57,1.06,7.33,3,10.56a15,15,0,0,1,1.82,5.9,76.09,76.09,0,0,0,1.61,9.91,65,65,0,0,1,2.23,13.68,56.09,56.09,0,0,0,2.82,15c1.25,3.78,2.64,7.56,2.85,11.61.56,10.77,3.31,21.12,6,31.47,1.71,6.49,3.73,12.89,4.73,19.56.62,4.1,1.3,8.21,2.12,12.28,2.64,13,5.36,25.94,8.06,38.92a12,12,0,0,0,.49,1.85c2.1,5.54,2,11.66,4.45,17.11a2.28,2.28,0,0,1,.17.94c.11,4.67,1.41,9.15,2.18,13.71.61,3.62,1.36,7.22,2.17,10.8a11.73,11.73,0,0,0,1.52,4,27.3,27.3,0,0,1,3.36,6.86,13.35,13.35,0,0,0,9.11,8.52,47.73,47.73,0,0,1,8.67,3.92,20.54,20.54,0,0,0,3.46,1.62c6.37,2.08,12.53,4.78,19.12,6.16a25.82,25.82,0,0,1,3.66,1.13,150.49,150.49,0,0,0,21.48,6.59c7.17,1.56,14.3,3.28,21.67,3.57,5.26.2,10.53.43,15.78.78,2.53.17,4.67-.07,6.33-2.36a2.7,2.7,0,0,1,3.9-.42c2,1.38,4.22,1.32,6.47,1.2C831.63,1013.4,832.75,1013.3,834.35,1013.17Zm34.56-518.95v.1a14.66,14.66,0,0,0,2.39,0c4.87-.83,9.93-.39,14.62-2.31a6.62,6.62,0,0,1,1.88-.38,17.31,17.31,0,0,0,6.35-2.06A60.09,60.09,0,0,0,914.29,473a50.67,50.67,0,0,0,9.9-21.06c1-5.16,2-10.33,3.13-15.47.82-3.74,1.8-7.45,2.72-11.16,1-4.18,2-8.37,3.14-12.52,1.51-5.55,3.23-11,4.73-16.59,1.11-4.16,1.93-8.41,3-12.57a172,172,0,0,0,4.54-22c.79-6.17,2.1-12.27,3.21-18.4.14-.78.43-1.54.65-2.31,1.51-5.21,3.27-10.36,3.8-15.82a16.33,16.33,0,0,1,.86-3.24A130.18,130.18,0,0,0,957.75,306c.56-3,1.33-5.92,1.94-8.89a45.45,45.45,0,0,0,.89-5.65c.16-2.14-1.11-2.8-3.09-1.77-.57.29-1.09.66-1.64,1-5.66,3.36-10.43,7.9-15.66,11.82-4.48,3.35-8.79,6.86-13.85,9.36-8,4-15.89,8.24-24.58,10.65-.31.09-.6.22-.91.31-7.64,2.3-15.24,4.81-23.18,5.89-4.28.58-8.57,1.07-12.86,1.54-1.9.2-3.82.34-5.73.35a58.8,58.8,0,0,0-11.91,1.17,19.44,19.44,0,0,1-3.81.36,26.91,26.91,0,0,0-8,1.24,27.1,27.1,0,0,1-9,1.34,191.63,191.63,0,0,1-22.43-1.75c-4.73-.67-9.54-1.51-14.28-1.33-7.5.27-14.64-1.31-21.75-3.09A81,81,0,0,0,754.25,326a126.16,126.16,0,0,1-21.76-3.32,45.9,45.9,0,0,1-14.1-5.79,37.67,37.67,0,0,0-5.15-2.5c-1.46-.66-3-1.21-4.43-1.84-3.08-1.33-6.09-2.85-9.23-4a178.44,178.44,0,0,1-22.75-10.12c-3.94-2.11-8.09-3.83-12.15-5.69a12,12,0,0,0-2.27-.73,1.63,1.63,0,0,0-1.8,1.22,39.67,39.67,0,0,0,.06,5.23c.33,3.19.71,6.33.07,9.54a13.77,13.77,0,0,0,.11,4.29,158.13,158.13,0,0,1,1.35,20.05,13.69,13.69,0,0,0,.45,2.82c.39,1.88.81,3.75,1.24,5.62a18.93,18.93,0,0,1,.35,7.58,41.82,41.82,0,0,0-.06,7.17c0,1.91.12,3.82,0,5.73-.23,5.1-.66,10.2-.82,15.3s-.18,9.91-.07,14.86c.08,3.17.16,6.39,1.64,9.36,3.42,6.85,6.77,13.74,10.21,20.59a52.88,52.88,0,0,0,3.72,6.67c3.85,5.55,6.5,11.72,9.42,17.75a18.39,18.39,0,0,1,1.23,3.62,172.91,172.91,0,0,0,8,23.05,143.09,143.09,0,0,0,10.66,20.34,12.78,12.78,0,0,0,5.56,5.1c5,2.39,10,5.06,15.81,5.11a7.64,7.64,0,0,1,1.42.23,20.44,20.44,0,0,0,7.6,0,42.3,42.3,0,0,1,9.06-.49,61.71,61.71,0,0,1,16.33,3.55c4.44,1.52,8.34,4,12.47,6.09a38.47,38.47,0,0,1,5.57,3.66A113.32,113.32,0,0,0,792.9,523a7.27,7.27,0,0,0,4.13.94c6.05-.67,12-1.82,17.3-5.1a54,54,0,0,0,10.38-7.65,52.64,52.64,0,0,1,4.84-3.91A175.7,175.7,0,0,1,846,495.74a13,13,0,0,1,8.06-2.25C859,493.84,864,494,868.91,494.22Zm-15.16,239,0,.14c1,0,1.92,0,2.88,0,10.29-.21,20.39-1.4,29.9-5.71a19.15,19.15,0,0,1,3.65-1.16,186.57,186.57,0,0,0,26.57-8.06c2.68-1,5.42-1.92,8.12-2.93,7.76-2.9,15.91-4.78,23.24-8.82.83-.45,1.83-.58,2.71-1,2.49-1.07,5-2.16,7.42-3.29,2-.93,3.94-2.25,6-2.84a20.41,20.41,0,0,0,9.9-6.42,15,15,0,0,1,6.33-4.16,19.28,19.28,0,0,0,5-2.7,40.94,40.94,0,0,1,9.5-5.53,6.27,6.27,0,0,0,4-4.86c1.58-6.51,3.8-12.88,4.49-19.59a7.51,7.51,0,0,1,.25-.93q2.55-9.72,5.11-19.46c1.59-6,2.76-12.15,5.29-17.89a19.58,19.58,0,0,0,.66-2.3c1.55-5,3.26-10,4.55-15.1a35.87,35.87,0,0,1,1.68-4c1.19-3.13,2.32-6.28,3.46-9.43a3.32,3.32,0,0,0,0-1c0-.76-1.12-1.56-1.72-1.12a19.18,19.18,0,0,0-3.27,2.73c-3.77,4.42-8.41,7.83-12.91,11.41-2.75,2.18-5.4,4.48-8.12,6.69a15,15,0,0,1-3.47,2.53,43,43,0,0,0-8.52,5.28c-1.68,1.2-3.56,2.12-5.34,3.2-2.45,1.48-4.92,3-7.34,4.5-2.57,1.62-5.1,3.3-7.64,5-2,1.3-4.07,2.51-6,4-2.41,1.83-4.49,4.15-7.05,5.71s-5.52,2.44-8.31,3.63l-.43.2c-3.4,1.39-6.79,2.8-10.19,4.16-2.08.83-4.18,1.6-6.28,2.38-7.18,2.67-14.35,5.36-21.55,8A35.56,35.56,0,0,1,901,656c-7.06,1.3-13.94,3.6-21.19,3.87a13.87,13.87,0,0,0-1.88.37A75.13,75.13,0,0,1,863.22,662a30.79,30.79,0,0,0-8.51,1.24,18.1,18.1,0,0,1-5.17.69c-4.48,0-8.94-.17-13.38.63a9.45,9.45,0,0,1-2.86,0,55.07,55.07,0,0,0-14.34,0c-1.58.19-3.19.12-4.78.16-2.24.06-4.48,0-6.7.18a96,96,0,0,1-20.55-.21,70.47,70.47,0,0,0-7.58-1.06c-5.44-.11-10.8-.89-16.19-1.35-9.55-.82-18.89-3.06-28.45-3.73a4.25,4.25,0,0,1-1.39-.35c-6.35-2.77-13.29-3.36-19.9-5.16a166.11,166.11,0,0,1-23-7.92c-9.5-4.14-18.91-8.54-28.2-13.13-8-4-15.39-9.09-22.9-13.95-.27-.18-.51-.39-.77-.57-1.16-.83-2.31-1.68-3.5-2.47q-12.39-8.19-24.79-16.33c-1.09-.71-2.11-2.56-3.64-1.28-1.1.91-.07,2.41.11,3.63a8.2,8.2,0,0,0,.65,1.79,25.75,25.75,0,0,1,1.95,9.33,41.93,41.93,0,0,0,2.44,11.68c.91,2.88,1.79,5.78,2.66,8.67,1.57,5.2,3.42,10.32,4.34,15.69a6.3,6.3,0,0,0,.54,1.33c1.21,3,2.09,6.11,3.74,8.78,1.78,2.86,1.31,6.24,2.89,9a3.86,3.86,0,0,1,.36.89,38,38,0,0,1,1.1,4.16,22.93,22.93,0,0,0,5.48,12c.75.84,1.52,1.67,1.36,2.93-.32,2.5,1.39,3.89,3.13,5a22.41,22.41,0,0,0,5.7,2.41,7.48,7.48,0,0,1,4.11,2.2,6.44,6.44,0,0,0,1.93,1.39,192.43,192.43,0,0,0,17.65,8.54c3.7,1.51,7.39,3,11.14,4.4,2.69,1,5.47,1.74,8.22,2.57,2.29.68,4.62,1.23,6.89,2,3.95,1.27,7.83,2.76,11.81,3.92,3.21.94,6.52,1.59,9.8,2.26a29.66,29.66,0,0,0,3.78.34A73.85,73.85,0,0,1,726,723a195.83,195.83,0,0,0,21.82,3.09,31,31,0,0,1,8.47,1.39,22.79,22.79,0,0,0,4.72.73c2.2.31,4.42.59,6.62.94,3.78.6,7.54,1.61,11.4,1.24a25.48,25.48,0,0,1,9.48.78,16.94,16.94,0,0,0,7.57.83,14.22,14.22,0,0,1,7.09.65,23,23,0,0,0,7.09.89c3.19,0,6.37.35,9.56.41,7.19.13,14.38.32,21.56.23C845.5,734.11,849.62,733.55,853.75,733.22ZM822.5,323.79v.29c3.36,0,6.72-.05,10.07,0a46.68,46.68,0,0,0,9.06-.73,61,61,0,0,1,9.52-1c5-.07,9.67-2.05,14.59-2.54a1.52,1.52,0,0,0,1.25-2.15,22.37,22.37,0,0,0-4.87-9.25c-1.86-2-3.83-3.86-5.84-5.68a25,25,0,0,0-15.2-6.36,54.94,54.94,0,0,0-15.69,1.42c-6.25,1.35-12.52,2.6-18.82,3.69-5.76,1-11.48.2-17.15-.94a12.51,12.51,0,0,1-3.53-1.42c-1.67-.93-3.28-2-4.86-3.08-2.7-1.84-4.93-4.05-5.62-7.45-.26-1.24-.92-2.4-1.17-3.64-.55-2.63,1.47-4.35,4-3.48,1.71.58,3.12,1.46,3.65,3.44a7.14,7.14,0,0,0,1.72,3.33c3.84,3.51,8.12,6.25,13.61,6.2,1.75,0,3.51-.09,5.26-.19,6.91-.39,13.57-2.23,20.24-3.78s13.3-1.67,20-1.5a22.54,22.54,0,0,1,9.67,2.55,43.62,43.62,0,0,0,4.41,1.84,1.08,1.08,0,0,0,1.38-1.35c-1.42-4.4-2.67-8.89-4.44-13.15a45.68,45.68,0,0,0-5.31-9.61,57.46,57.46,0,0,1-5.48-8.41,27.28,27.28,0,0,0-8.08-9.94,23.45,23.45,0,0,1-3.48-3.28,28.82,28.82,0,0,0-8.4-6.26,83.41,83.41,0,0,0-17.85-6.91,29.08,29.08,0,0,0-10.44-1.13c-7.52.81-13.55,3.73-15.83,11.68a19.71,19.71,0,0,0-1,3.68c-.22,2.52-1.15,4.27-3.83,4.75a3.51,3.51,0,0,0-2.69,2.46c-.71,1.78-1.53,3.51-2.32,5.26-2.56,5.58-6.88,10-10.26,15a5.38,5.38,0,0,1-2.26,1.67,3.42,3.42,0,0,1-4.26-1.17,3.22,3.22,0,0,1-.34-4c.6-.94,1.28-1.83,2-2.71,2.15-2.79,4.33-5.54,6.46-8.33a22.76,22.76,0,0,0,4.9-11.79,101.76,101.76,0,0,0,.66-12.92,40.44,40.44,0,0,0-4.36-17.53c-2.07-4-4.05-8-6.05-12a68.43,68.43,0,0,0-8.76-13.68c-1.64-1.95-3.12-4-4.76-6-1-1.18-1.43-3.29-3.28-3.13-2.23.19-2.26,2.51-2.61,4.09a33.13,33.13,0,0,1-5.62,12.07c-2.88,4-5.69,8.09-8.19,12.35-1.78,3-3.82,5.92-5.45,9a44,44,0,0,0-5,22.2,41.66,41.66,0,0,0,1.13,9.49c.36,1.39-.64,2.44-2.07,2.67a3.34,3.34,0,0,1-3.71-1.63c-1.64-3.12-3.12-6.35-2.47-10a13.08,13.08,0,0,0,0-4.75,17.33,17.33,0,0,1,.64-8.06c1.59-5.35,3.16-10.73,6-15.6,3.06-5.23,5.68-10.75,9.74-15.32a33.36,33.36,0,0,0,8-15.58,66.68,66.68,0,0,0,1.61-11.81c.09-4.11,0-8.32-1.93-12.19-.68-1.33.49-3.66,1.93-4.47a3.68,3.68,0,0,1,4.34,1,14.09,14.09,0,0,1,1.63,3.44c.64,2,1.1,4,1.66,6a23.78,23.78,0,0,0,5.93,10.79,14.87,14.87,0,0,1,1.59,1.78c2.19,2.94,4.33,5.92,6.53,8.85a21,21,0,0,0,2.22,2.5,1.47,1.47,0,0,0,2.42-.33c.36-.71.59-1.48.93-2.2,2.62-5.63,4.8-11.56,10.21-15.36a3.37,3.37,0,0,0,1.26-2.95,34.09,34.09,0,0,0-4-17.55c-2.35-4.36-4.78-8.67-6.73-13.24a18.89,18.89,0,0,0-4.26-6.3c-3.11-3-5.92-6.28-9-9.28s-6.36-5.81-9.57-8.7a21.51,21.51,0,0,0-7.51-4.13,44.53,44.53,0,0,0-5.07-1.47,58.37,58.37,0,0,1-17.67-7.22,16.17,16.17,0,0,0-2.59-1.23,1.74,1.74,0,0,0-2.49,1.44,53.45,53.45,0,0,0-.68,6.67,133.86,133.86,0,0,1-2,19.06,88.93,88.93,0,0,0-1.36,16.7,22.65,22.65,0,0,0,.4,4.28,5.21,5.21,0,0,0,3.1,3.95c2.48,1.11,3.13,2.3,2,4.45s-.57,3.59.87,5.14a24.52,24.52,0,0,1,1.73,2.29c1.9,2.57,3.83,5.12,5.7,7.71,1.5,2.09,2,4.35.61,6.7-1,1.71-2.62,2-4,.67a32.46,32.46,0,0,1-3.28-4.09c-3.33-4.68-6.41-9.6-11.24-13-2.62-1.82-5.37-3.47-8-5.22a162,162,0,0,0-37-17.95,84.07,84.07,0,0,0-19.62-4.33,8.37,8.37,0,0,0-2.32.28.87.87,0,0,0-.31.77,2.47,2.47,0,0,0,.83,1.12,36,36,0,0,1,9,7.73c.28.36.8.54,1.13.88,1.56,1.6,3.18,3.14,4.62,4.85,1.65,1.94,3.11,4,4.67,6.05,3.71,4.8,7.64,9.43,10.75,14.66,1.15,1.93,2.39,3.81,2.27,6.19a3.08,3.08,0,0,0,1.64,2.75,32,32,0,0,0,4.42,2.86,77.88,77.88,0,0,1,10.19,6.25c3.58,2.39,7,5.11,10.34,7.77,1.2.93,1.36,3.62.49,4.86a3.66,3.66,0,0,1-3.92,1,10.38,10.38,0,0,1-2.15-1,18.41,18.41,0,0,1-3.11-2.25,42.07,42.07,0,0,0-9.81-6.8,61,61,0,0,1-6.13-3.76,61.21,61.21,0,0,0-11.4-6c-9-3.88-18.65-5.61-28-8.24a13.28,13.28,0,0,0-2.37-.35c-3.81-.37-7.63-.76-11.46-1.06A30.06,30.06,0,0,0,595.86,176a1.4,1.4,0,0,0-.85,1c0,.37.46.78.79,1.1a2.71,2.71,0,0,0,.84.45l15.29,6.87a26.26,26.26,0,0,1,9.09,6.09,24.23,24.23,0,0,0,6,4.75c6.54,3.77,11.38,9.2,15.33,15.51a5.57,5.57,0,0,1,1.1,2.11c.36,3.61,2.74,6.45,3.57,9.88.6,2.5,2.34,4,4.84,4.81,3.18,1.06,6.24,2.46,9.39,3.62,8.26,3,13.47,9.42,18,16.46,1.06,1.63,1.87,3.35,3.94,3.93a4.43,4.43,0,0,1,1.22.74c1.75,1.2,2,2.36.94,4a11.77,11.77,0,0,1-1.78,2.24,2.63,2.63,0,0,1-3.11.57c-2.29-1.24-4.33-3-4.91-5.53a15.25,15.25,0,0,0-2.1-4.74,49.26,49.26,0,0,0-7.68-9.17,27.65,27.65,0,0,0-10.18-6.18c-6.92-2.42-14-4.54-21.1-6.31-6.17-1.53-12.4-3.15-18.89-2.67-4.14.3-8.28.85-12.44.35a3.92,3.92,0,0,0-1,.07c-4.43.55-8.89.95-13.29,1.71a52.76,52.76,0,0,0-7.29,2.23c-.24.08-.58.59-.52.68a2,2,0,0,0,.89.85,3.91,3.91,0,0,0,1.42.14,25.3,25.3,0,0,1,10.74,2.06,26.68,26.68,0,0,0,3.66,1.11c4.31,1.18,8.66,2.26,12.93,3.56a45.49,45.49,0,0,1,5.71,2.46c1.45.66,2.84,1.49,4.31,2.1a25.07,25.07,0,0,1,6.52,4,38.1,38.1,0,0,0,8.34,5.58,8.57,8.57,0,0,1,2.21,1.76c1,1,2,2.09,2.94,3.13,3.72,3.91,8.15,7.17,10.92,12,2.57,2.13,3.88,5.07,4.92,8.1a8.06,8.06,0,0,0,4,4.55c2.08,1.18,4.07,2.52,6.1,3.79s4.24,2.88,6.5,4c6.4,3.28,12.83,6.52,19.35,9.53A46.33,46.33,0,0,0,702.89,303a50.76,50.76,0,0,1,12.68,4.25,94.12,94.12,0,0,0,17.55,6.36c7.72,2,15.38,4.31,23.06,6.49a39.06,39.06,0,0,0,9.91,1.58c2.23,0,4.45.41,6.67.63,1.11.12,2.22.32,3.33.36,4.79.21,9.59.62,14.38.48a126.23,126.23,0,0,1,18.64.56C813.51,324.21,818,323.79,822.5,323.79Zm162.29-126,0,.16c-.32,0-.64,0-1,0-2.85.26-5.79.11-8.36,1.71s-5.74.3-8.37,1.62a14.89,14.89,0,0,0-3.28,1.93,29.46,29.46,0,0,0-3.56,3.84,44.44,44.44,0,0,0-6.4,11.67c-2.29,5.7-3.16,11.69-4.58,17.56-.68,2.81-.5,5.74,1.8,8.07a4.43,4.43,0,0,1,1.14,4,2.09,2.09,0,0,1-1.94,1.79,6.64,6.64,0,0,1-2.66-.8c-1.23-.71-2.27-1.74-3.5-2.46a4.63,4.63,0,0,1-2.48-4.34c.12-5.23-.27-10.51,1.82-15.54a26.86,26.86,0,0,0,1.38-5.57c.12-.69-.06-1.82-.52-2.11a2.78,2.78,0,0,0-2.19.27,25,25,0,0,0-11.48,11.17,84.46,84.46,0,0,0-4.92,12.44c-1.28,3.94-2.05,8-3.07,12.06a22.56,22.56,0,0,1-2.57,6.68c-.76,1.21-1.26,2.58-2,3.82-2.08,3.6-4.16,7.18-6.34,10.72a10.26,10.26,0,0,1-2.25,2.45,83.63,83.63,0,0,1-12.39,9,53.61,53.61,0,0,0-5.26,3.34,39.73,39.73,0,0,1-19.47,7.39,10.36,10.36,0,0,0-2.78.59c-2.15.87-2.73,2.76-1.49,4.63a10.85,10.85,0,0,0,1.52,1.85,14.3,14.3,0,0,1,3.42,5.7c.51,1.51,1.08,3,1.65,4.49s1,1.88,2.44,1.77c2.86-.24,5.73-.49,8.57-.94a62.68,62.68,0,0,0,12.52-3.12c6.72-2.52,13.29-5.47,20.25-7.38a16.16,16.16,0,0,0,3-1.34c1.85-.93,3.69-1.89,5.5-2.9,5-2.8,10.57-4.6,14.57-9a10.12,10.12,0,0,1,2.87-1.71,46.2,46.2,0,0,0,8.28-5.64c2.56-2.2,5.15-4.25,6.87-7.22a19.14,19.14,0,0,1,1.92-2.13c3.85-4.66,8.11-8.95,11.25-14.23a37.44,37.44,0,0,1,6.53-8.81c10-9.2,21.51-15.32,35.16-17,1.11-.14,2.21-.4,3.32-.46,2.54-.12,5.09-.18,7.63-.21.79,0,1.58.2,2.37.23.29,0,.79-.15.84-.33.12-.41.22-1.05,0-1.31a90.69,90.69,0,0,1-6.4-8.93,12.6,12.6,0,0,0-2.32-2.41,24.29,24.29,0,0,1-5.43-6.65,47.36,47.36,0,0,0-10.83-12.67,19.49,19.49,0,0,0-9.35-4.58C991.16,198.33,988,198.12,984.79,197.75ZM871,290.9c3.72,0,10.52-1.73,13.66-3.71,5.92-3.75,12.1-7.1,17.37-11.87a30.27,30.27,0,0,0,5.93-6.78q3.07-5.15,5.9-10.43a12.88,12.88,0,0,0,1.65-4.47c.46-4.5,2-8.7,3.32-13,2.38-7.84,5.5-15.32,11.15-21.48.63-.69,1.57-1.46.86-2.44-.38-.52-1.35-.68-2.09-.85a10.08,10.08,0,0,0-1.91-.08c-11-.26-22-.49-33-.78a38.61,38.61,0,0,0-11.36,1.22,124.35,124.35,0,0,0-11.69,4.26c-5.69,2.16-9.9,6.28-14,10.52a6,6,0,0,0-.82,1.17,38.77,38.77,0,0,0-5.63,17.62c-.06,1.09,0,2.47-.66,3.2-1.87,2.19-1,4,.11,6.11a15.68,15.68,0,0,0,3.3,4.63,10.83,10.83,0,0,1,2.72,3.32c2,4.31,4.89,8.22,6.34,12.86a84.39,84.39,0,0,0,3.33,7.94,4.53,4.53,0,0,0,4.08,2.86Zm-46.14-57.85a5.67,5.67,0,0,0,.93,1c4.81,3.17,9.46,6.53,13.13,11.07a8.77,8.77,0,0,0,1.84,1.52c1.08.77,2.07.41,2.62-.9a10.07,10.07,0,0,0,.51-1.35c.7-2.62,1.35-5.26,2.06-7.88a27,27,0,0,1,6.44-11.6c3-3.18,6.7-5.39,10.08-8.05a36.91,36.91,0,0,1,13.32-6.28c3.69-1,7.46-1.74,11.18-2.67a19.47,19.47,0,0,1,7.13-.41,11.22,11.22,0,0,0,3.32.06,2.56,2.56,0,0,0,1.74-1.35c1.62-6,1.62-12-1-17.81-1.77-3.93-3.8-7.75-5.83-11.55a21.5,21.5,0,0,0-2.77-3.89c-4-4.57-7.63-9.43-11.24-14.3a25.79,25.79,0,0,1-1.77-2.83c-2.34-4.16-5-8.19-6.31-12.84a2.17,2.17,0,0,0-.19-.44,1.4,1.4,0,0,0-2.37-.43c-1.85,1.58-3.6,3.23-3.25,6a2.35,2.35,0,0,1-.18,1.4,4.38,4.38,0,0,1-1.52,1.71,6.7,6.7,0,0,1-2.78.54,5.06,5.06,0,0,0-4.13,2.05c-4.44,5.43-9.2,10.6-13.17,16.44a30.74,30.74,0,0,0-5.2,14.71c-.31,3.18-.6,6.36-.8,9.55-.13,2-.51,3.82-2.42,4.9-1.34.76-1.41,2-1.35,3.32a46,46,0,0,1-2.12,16.56c-.34,1-.4,2.19-.64,3.28C828.77,228.76,828.42,229.45,824.86,233.05Zm-51.18,2.12c.53-.12.9-.09,1.13-.26.64-.47,1.2-1,1.82-1.54,1.64-1.26,3.13-2.88,5-3.68,4.21-1.81,8.37-4.06,13.27-3.32a9.22,9.22,0,0,0,2.86-.18,13,13,0,0,1,5.68.51c5.08,1.37,10.33,2.15,15.22,4.23a.63.63,0,0,0,.46,0c.36-.22.86-.43,1-.78a2.38,2.38,0,0,0,0-1.4,5.21,5.21,0,0,1,1.68-5.61,6.46,6.46,0,0,0,1.55-2.9c.57-1.83.94-3.72,1.4-5.58,1.35-5.49,1.16-11.08.92-16.66a6.31,6.31,0,0,0-.65-2.29c-1.21-2.6-2.53-5.15-3.72-7.76a59.68,59.68,0,0,1-2.34-5.75,50.14,50.14,0,0,0-3.67-8.83c-2.89-5.14-6-10.18-7.84-15.84a9.77,9.77,0,0,0-1.18-2.61,14.63,14.63,0,0,1-2.61-6.61.87.87,0,0,0-1.49-.36c-1.1,1.57-2.14,3.16-3.17,4.77-1.45,2.28-2.62,4.8-4.34,6.85a60.34,60.34,0,0,1-10.17,9.44A188.77,188.77,0,0,0,770,181.51a9.12,9.12,0,0,0-2.25,3c-1.49,3.53-2.88,7.1-4.12,10.73a19,19,0,0,0-.72,4.71,7.07,7.07,0,0,0,4.26,7.36c1.14.56,2.26,1.17,3.34,1.82a.91.91,0,0,1,0,.85,6.85,6.85,0,0,1-1.55,1c-2.09,1-2.27,1.18-1.28,3.17a35.88,35.88,0,0,1,2.5,7.72c.9,3.72,1.81,7.44,2.76,11.16A18.32,18.32,0,0,0,773.68,235.17Zm150-27.38c4,.1,7.92.76,11.93-.11,2.59-.56,4.84-1,6.24-3.67.85-1.61,2.88-1.57,4.09-.23a14.17,14.17,0,0,1,1.58,2.37c1,1.68,1.9,2.09,3.29.4a76.28,76.28,0,0,0,5-6.41c2-3.12,5-4.8,8.38-6,1-.38,2.18-.52,3.22-.88a4.4,4.4,0,0,0,2.8-2.47c1.21-3.16,2.19-6.35.75-9.75-1.61-3.82-3.15-7.67-4.68-11.53-.71-1.77-1.3-3.59-2-5.37-1.86-4.75-3.56-9.57-5.69-14.19a29.16,29.16,0,0,1-2.84-8.58c-.76-6.11-2-5.26-6.31-3.17a29.82,29.82,0,0,0-2.81,1.81c-1.89,1.2-3.73,2.47-5.69,3.53a22,22,0,0,0-5.32,4,18,18,0,0,1-4.33,3.7,31.53,31.53,0,0,0-10.41,9c-4,5.08-7.17,10.53-8.45,17-.9,4.54-2,9-3,13.55a17.25,17.25,0,0,0-.41,2.35c-.19,2,.2,3.64,2.46,4.59s2.67,2.2,2,4.63c-.28,1.07-.79,2.08-1.14,3.14a1.57,1.57,0,0,0,1.31,2.11,17.37,17.37,0,0,0,2.38.2C918.54,207.81,921.09,207.79,923.65,207.79Zm-94.26-21.61c1.43-2,1.27-4.12,1.73-6.12,1-4.53,2.15-9.09,4.86-12.92a114.69,114.69,0,0,1,9.39-12.06c3.37-3.62,6.5-7.46,9.8-11.15s3.93-8,2.66-12.49a56.65,56.65,0,0,0-5.77-13.64c-1.72-2.88-3.51-5.71-5.15-8.63-2.26-4-4.53-8-4.45-13a22.79,22.79,0,0,0-1.25-6.07,2.33,2.33,0,0,0-1.29-1.21c-.28-.12-.95.21-1.19.52C833.3,96.83,826.65,103,819.79,109a26.4,26.4,0,0,0-8.35,13.11c-.84,3.05-1.11,6.13.41,9.3s2.52,6.55,1.59,10.2a8.65,8.65,0,0,0,.1,2.86,3.16,3.16,0,0,1-1,3c-2,1.52-1.67,3.14-.61,5,1.88,3.34,3.62,6.75,5.45,10.11,1,1.82,1.94,3.68,3.1,5.4a33.07,33.07,0,0,1,4.28,9.57c.43,1.54.87,3.08,1.41,4.58A6.32,6.32,0,0,0,829.39,186.18Zm-63.22-51.34a4.94,4.94,0,0,0,.29,4.38,152.27,152.27,0,0,1,10.08,24.24,1.22,1.22,0,0,0,2,.58,27.69,27.69,0,0,0,5.09-3.51c4.58-4.63,9.26-9.17,11.63-15.55,1.06-2.85,2.32-5.5,2.35-8.66a13.2,13.2,0,0,1,4.08-9.86c.12-.11.21-.25.33-.35a7.07,7.07,0,0,0,2.27-4.61,13.44,13.44,0,0,1,2.15-6.26c1.62-2.22,1.24-4.41-.48-6.55q-4.47-5.59-8.74-11.35c-3.43-4.59-7.34-8.82-10.39-13.7a20,20,0,0,0-2.84-3.21,1.46,1.46,0,0,0-2.12.22c-.74,1.22-1.44,2.47-2.07,3.75-1.54,3.15-2.92,6.38-4.56,9.48C772.52,99,769.78,104,766.92,109a22.18,22.18,0,0,0-2.61,12.93c.24,3.47.34,7,1.54,10.38A10.81,10.81,0,0,1,766.17,134.84ZM933,133a48.76,48.76,0,0,0-2.66-14.07c-1.55-4.85-3.27-9.65-4.57-14.59a18.25,18.25,0,0,0-1.45-3.52,1.09,1.09,0,0,0-1.64-.4,16.84,16.84,0,0,0-2.64,2c-3.88,3.78-8.64,6.46-12.46,10.36-2.42,2.48-5.58,4.21-8.34,6.37s-6,4.3-8.12,7.35a40,40,0,0,0-7.19,18,6.41,6.41,0,0,1-1.09,3.08,3.22,3.22,0,0,0-.15,4,17.83,17.83,0,0,0,1.35,2.52c3,3.89,5.94,7.92,9.29,11.53a46.17,46.17,0,0,1,7.26,10.6c.44.85.86,1.71,1.36,2.51a1.14,1.14,0,0,0,1.95-.17c.75-2.27,1.45-4.55,2.16-6.83,2.88-9.18,7.54-17.19,15-23.45a18.14,18.14,0,0,0,3.2-3.52A6.52,6.52,0,0,1,927.5,142C931.82,140.49,933,137,933,133ZM581.11,236.22l-.24.52c2.66.45,5.32.93,8,1.31.26,0,.63-.47.87-.78,0-.05-.34-.62-.55-.64C586.49,236.46,583.8,236.35,581.11,236.22ZM879.42,132.16a5.64,5.64,0,0,0-.69-.66c-.09-.06-.32,0-.43.11a3.32,3.32,0,0,0-1.11,3.44c0,.14.2.36.29.35.29,0,.75-.05.82-.21C878.73,134.18,879.07,133.13,879.42,132.16Z" transform="translate(-541.18 -57.75)"/>
  <path d="M807.3,656.68c-6.73.29-12.9-.71-19.08-1.49-3.8-.48-7.56-1.21-11.33-1.92-3.6-.68-7.24-1.28-10.76-2.27a60.73,60.73,0,0,1-22.5-11.35,55.57,55.57,0,0,1-9.24-9.66,2.66,2.66,0,0,1,1.74-4.32,12.32,12.32,0,0,1,7.44,1.3,2.93,2.93,0,0,1,1.76,2.67c0,2.36,1.4,3.92,3.09,5.13A88.36,88.36,0,0,0,758,641c4,2.1,8.3,3.23,12.59,4.52,8.81,2.65,17.91,3.34,26.94,4.16,11.38,1,22.67-.1,33.42-4.5a25.81,25.81,0,0,1,4.59-1.28,94.43,94.43,0,0,0,10.55-3.1c7.48-2.47,14-6.88,21.26-9.84,4-1.63,7.79-3.68,11.64-5.62a6.09,6.09,0,0,1,5.52-.28,3,3,0,0,1,.9,5.11,30,30,0,0,1-5.65,3.55c-2.27,1.15-4.7,2-7.06,3-3.84,1.58-7.56,3.36-11.27,5.25a88.1,88.1,0,0,1-20.54,7.81,39.68,39.68,0,0,0-6,1.75A75.74,75.74,0,0,1,807.3,656.68Z" transform="translate(-541.18 -57.75)"/>
  <path d="M807.62,624.85c-9,0-16.3-.4-23.32-3.09a15.89,15.89,0,0,0-4.23-.59c-8.35-.72-8.37-.66-15.74-3.56a124.7,124.7,0,0,1-11.87-5.1c-6.24-3.22-12.24-6.87-17.14-12-1.1-1.16-2.38-2.15-3.44-3.33-1.38-1.52-.57-3.51,1.5-3.93a4.37,4.37,0,0,1,3.66.61,24.43,24.43,0,0,1,3.62,3.08,23.23,23.23,0,0,0,5.22,4.14c4.6,2.89,9.39,5.4,14.25,7.84a62.33,62.33,0,0,0,20.48,6.22,46.73,46.73,0,0,1,5.64,1.07c4.53,1.14,9.18,1.27,13.79,1.47,4.93.21,9.9.48,14.82-.4,1.56-.28,3.14-.49,4.71-.76,2.36-.4,4.73-.77,7.07-1.23,2-.41,4.08-.82,6.06-1.42,4.44-1.33,8.79-3,13.26-4.13,4.73-1.26,8.72-4,12.85-6.32,1.73-1,3-2.85,4.39-4.36a20,20,0,0,1,6.83-5.15,5.15,5.15,0,0,1,4.6.25,3.29,3.29,0,0,1,.64,5.53c-3.32,2.72-6.36,5.79-9.59,8.64a37.66,37.66,0,0,1-11.15,6.41,26.47,26.47,0,0,1-2.74.88c-4.9,1.41-9.79,2.81-14.64,4.43a94.28,94.28,0,0,1-15.41,3.39C816.54,624.22,811.26,624.49,807.62,624.85Z" transform="translate(-541.18 -57.75)"/>
  <path d="M796.16,641.12a11,11,0,0,1-2.47-.29,113.88,113.88,0,0,0-17.37-3.37,26.76,26.76,0,0,1-5.09-1.29c-4.25-1.41-8.5-2.8-12.66-4.41a33.1,33.1,0,0,1-9.13-5.19,39.76,39.76,0,0,0-3.56-2.42,29.26,29.26,0,0,1-2.81-1.81q-4.59-3.84-9.07-7.8a16.24,16.24,0,0,1-2.16-2.52,2.27,2.27,0,0,1-.16-2.69,2.68,2.68,0,0,1,2.42-1.3,6.05,6.05,0,0,1,4.36,1.7c5.41,5.54,12.41,8.93,18.35,13.76a4.19,4.19,0,0,0,.83.46c7.19,3.51,14.52,6.52,22.51,7.69a96.71,96.71,0,0,1,9.85,1.9,26.4,26.4,0,0,0,9,.9c5.25-.5,10.48-1.1,15.71-1.67a112.69,112.69,0,0,0,27.38-6.65c3.43-1.29,6.89-2.52,10.29-3.92a56.76,56.76,0,0,0,11.49-6.75,74.38,74.38,0,0,1,7.76-4.69c1.75-1,3.34-.17,4.91.82,2.5,1.57,2.67,2.65.51,4.69a6.13,6.13,0,0,1-.72.63c-8,5.53-16,11.1-25.54,13.9-5,1.49-10,3.36-15,5.08a65.15,65.15,0,0,1-15,2.81c-2.06.2-4.11.52-6.17.77-1.74.21-3.48.44-5.23.59C805.27,640.41,801.14,640.72,796.16,641.12Z" transform="translate(-541.18 -57.75)"/>
  <path d="M799,605.94c-6-.75-12-1.49-18-2.26a11.6,11.6,0,0,1-2.35-.44c-6.32-2.2-12.66-4.35-18.92-6.71a67.57,67.57,0,0,0-8.12-2.78,31.73,31.73,0,0,1-14.37-7.26c-1.41-1.29-3.05-2.32-4.55-3.5a16.54,16.54,0,0,1-2.5-2.21,2.66,2.66,0,0,1,1.46-4.2,5.51,5.51,0,0,1,4.93,1.15c2,1.54,4.12,3,6.13,4.59a30.3,30.3,0,0,0,10.69,5.16c3.52,1,6.89,2.49,10.36,3.64,7.11,2.35,14,5.25,21.49,6.55a104.94,104.94,0,0,0,16.66,1.56A46.52,46.52,0,0,0,812.31,598a195.29,195.29,0,0,0,31.6-9.36c4.59-1.85,9.05-4,13.59-6a5.9,5.9,0,0,0,3.3-3.26,5,5,0,0,1,4.1-2.95c2.67-.46,5.38-1,8.05,0a2.94,2.94,0,0,1,1.09,5,2.67,2.67,0,0,1-.36.31,26.66,26.66,0,0,1-3.81,2.88c-6,3.08-11.89,6.2-18,9-3.91,1.77-8.08,3-12.16,4.34-3.33,1.14-6.66,2.25-10,3.24-2.29.67-4.65,1.12-7,1.63-3,.65-5.93,1.24-8.89,1.89A60.69,60.69,0,0,1,799,605.94Z" transform="translate(-541.18 -57.75)"/>
  <path d="M792.16,587.06c-4.13-.19-8.28-.26-12.33-1.34a20.38,20.38,0,0,0-4.26-.55,23.5,23.5,0,0,1-9.16-2.27c-6.22-2.88-12.65-5.36-19.12-7.61a61.48,61.48,0,0,1-11.55-5.72c-2.18-1.31-4.32-2.7-6.47-4.05-.27-.17-.55-.33-.81-.52a2.87,2.87,0,0,1-1-3,2.51,2.51,0,0,1,2.4-2,8.93,8.93,0,0,1,3.68.63,28.17,28.17,0,0,1,4.91,3A36.5,36.5,0,0,0,750,569.16c5.41,1.51,10.43,4,15.61,6a60.76,60.76,0,0,0,11,3.28,89.22,89.22,0,0,0,22.89,1.29,83,83,0,0,0,22-4.11c5.26-1.86,10.69-3.24,15.91-5.2A75.13,75.13,0,0,0,856.15,560a25,25,0,0,1,6.89-3.23,4.22,4.22,0,0,1,1.42-.15c1.73,0,3.53,1.11,3.84,2.35a3.72,3.72,0,0,1-1.66,4.17c-2.62,1.81-5.28,3.58-8,5.22-6.29,3.78-12.64,7.53-19.74,9.63-5.5,1.63-10.91,3.62-16.43,5.12-5.21,1.42-10.66,2-16,2.74C801.71,586.52,797,587.72,792.16,587.06Z" transform="translate(-541.18 -57.75)"/>
  <path d="M783.8,555.69c-7.81,0-15.12-2.22-22.36-4.84-3.75-1.35-7.57-2.48-11.36-3.69-1.68-.54-3.37-1-5-1.54a23.7,23.7,0,0,1-12.54-9.87,5.43,5.43,0,0,1-.84-2.19,2.67,2.67,0,0,1,2.41-3c2-.18,4.06.14,5,2,2.32,4.67,6.79,6,11.1,7.66,2.53,1,5.21,1.5,7.77,2.37,2.27.76,4.47,1.7,6.69,2.59a12.13,12.13,0,0,0,2.62,1.13c6,.74,11.78,3,17.94,2.18,1.43-.18,2.87-.25,4.3-.3,5.64-.22,11-1.87,16.38-3.29a9.2,9.2,0,0,0,2.65-1.09c4.14-2.66,8.87-3.49,13.57-4.38,2.19-.41,4.41-.66,6.62-1a14.71,14.71,0,0,0,2.79-.66c4-1.53,8-3.13,12-4.71,1.64-.65,3.27-1.3,4.88-2,4.11-1.75,8.24-3.46,12.29-5.32,2.22-1,4.24-1.21,6.32.24a3,3,0,0,1,.51,4.54,6.29,6.29,0,0,1-1.49,1.19,38.63,38.63,0,0,1-4.25,2.17c-6.52,2.62-13.1,5.06-19.58,7.76a82.77,82.77,0,0,1-17.5,4.83,63,63,0,0,0-11.46,3.31c-7.32,2.75-14.85,4.88-22.75,5.31C788.24,555.27,786,555.51,783.8,555.69Z" transform="translate(-541.18 -57.75)"/>
  <path d="M787.58,569a74.78,74.78,0,0,1-18.76-2.4c-5.75-1.38-11.53-2.65-17.3-3.91a20.32,20.32,0,0,1-8.58-4c-3.22-2.6-6.15-5.59-10-7.36a3,3,0,0,1,1.73-5.65,9.05,9.05,0,0,1,4,1.24,51,51,0,0,1,7.33,5.35,16.72,16.72,0,0,0,8,4.07c3.42.77,6.74,2,10.16,2.75,3.89.85,7.89,1.26,11.79,2.08a54.94,54.94,0,0,0,13.81,1.27c12.15-.57,24.18-1.8,35.66-6.35,4.74-1.88,9.69-3.24,14.52-4.91q6.32-2.19,12.59-4.55a21.51,21.51,0,0,0,5.77-3.33c1.88-1.49,4-2.64,6.63-2.07a3.69,3.69,0,0,1,2.68,1.8,3,3,0,0,1-.8,4.21,28,28,0,0,1-4.06,2.52,108.47,108.47,0,0,1-15.43,6.53c-3.36,1-6.62,2.37-9.94,3.52q-7,2.44-14,4.8a18.82,18.82,0,0,1-2.32.6C810.51,567.23,800,569.05,787.58,569Z" transform="translate(-541.18 -57.75)"/>
  <path d="M641.21,273.4l-.47-.52a5.08,5.08,0,0,1,.85-.11c.11,0,.22.18.33.28Z" transform="translate(-541.18 -57.75)"/>
  <path d="M775.41,478.55c-.8-.17-1.58-.32-2.36-.51-2-.48-4-1.07-6-1.46a25.36,25.36,0,0,1-10-4.39c-2.33-1.66-4.72-3.22-7-5-4.18-3.37-7.24-7.66-10.58-11.71-2.05-2.49-6.72-14-7.06-17.16-.86-8,.19-15.63,4.35-22.67a15.8,15.8,0,0,1,.94-1.66,5.65,5.65,0,0,1,7.69-1.49,3.67,3.67,0,0,1,2.19,3.45c0,.64,0,1.28,0,1.91-.35,5.33,2,9.8,5.3,13.5a41,41,0,0,0,9.7,8.47c2.62,1.53,5.26,3,7.95,4.43a10.61,10.61,0,0,0,3.61,1.2,43.17,43.17,0,0,1,10.6,2.91,61,61,0,0,0,20.64,3.79c5,.12,9.77-1.52,14.34-3.49a19.61,19.61,0,0,1,6.44-1.76,8.69,8.69,0,0,1,3.73.5,6.12,6.12,0,0,1,2.42,2.14,2.38,2.38,0,0,1-.59,3.42,35.24,35.24,0,0,1-7.78,4.67,22.67,22.67,0,0,0-6.72,3.62,17.27,17.27,0,0,1-3.35,1.85c-5.43,2.7-10.8,5.53-16.33,8s-11.18,5.52-17.39,6.63C778.57,478,777,478.28,775.41,478.55Zm-36.19-44.42a59.71,59.71,0,0,0,1.27,6.09c.85,2.74,2,5.4,3,8.09a13.88,13.88,0,0,0,2.77,4.43c3.43,3.76,6.74,7.63,10.49,11.12A26.63,26.63,0,0,0,767.9,470c1.07.3,2.2.46,3.24.83a12.61,12.61,0,0,0,7.52,0c6.42-1.58,12.28-4.46,18.11-7.44a23.61,23.61,0,0,0,4.17-3.14c.15-.11-.06-1.05-.24-1.11-1.22-.35-2.48-.55-3.73-.82-3.42-.73-6.93-1.22-10.26-2.25-5-1.54-9.87-3.66-15.16-4.23a6.05,6.05,0,0,1-2.29-.66c-4.18-2.29-8.7-4.19-12.41-7.11-5.47-4.32-10.89-8.88-14.33-15.21a3.51,3.51,0,0,0-.65-.69c-.4-.41-1.48-.22-1.59.34C739.89,430.35,739.57,432.22,739.22,434.13Z" transform="translate(-541.18 -57.75)"/>
  <path d="M735.89,341.12a38.94,38.94,0,0,1,24.28,7.71,19.44,19.44,0,0,1,2.18,1.86c3.66,3.78,7.3,7.59,10.94,11.39,1.9,2,3.68,4,3.76,7,.05,1.58,1.44,2.41,2.29,3.54a2.66,2.66,0,0,1-1.53,4.44,6.57,6.57,0,0,1-5.92-.93c-2-1.54-4.22-2.9-6.14-4.57-4-3.52-8.78-5.77-13.51-8.07-4.09-2-8.37-1.8-12.65-.85-8.42,1.88-15.09,6.55-20.59,13.07a39.37,39.37,0,0,0-3.23,3.51c-1.72,2.63-4,5-4.13,8.47a2.1,2.1,0,0,1-1.9,1.88,2.59,2.59,0,0,1-2.59-.87,5.77,5.77,0,0,1-1.21-2,25.85,25.85,0,0,1-1.37-6c-.18-5.59.1-11.16,2.83-16.29,1.42-2.67,2.71-5.41,4.11-8.09a29.91,29.91,0,0,1,12-12.7,14.54,14.54,0,0,1,6.79-2C731.85,341.43,733.44,341.28,735.89,341.12ZM716.3,366.87a64.77,64.77,0,0,0,5.48-3.78c4.75-4,10-6.91,16.16-7.85a2.75,2.75,0,0,0,.47-.13,20.61,20.61,0,0,1,11.8-.15,30,30,0,0,0,3.75.75c.35.05.79-.28,1.1-.54.08-.07-.11-.63-.31-.81a15.62,15.62,0,0,0-7-4,49.33,49.33,0,0,0-13.27-1.67A15.34,15.34,0,0,0,723.15,354a48.36,48.36,0,0,0-6.58,10C716.15,364.76,715.56,365.65,716.3,366.87Z" transform="translate(-541.18 -57.75)"/>
  <path d="M780.49,398.88c.61-3.13,1-6.3,1.87-9.36,1.48-5.36,5.14-9.26,9.79-11.89,4-2.27,8.48-3.66,12.73-5.48a4,4,0,0,1,4.85.74,10.69,10.69,0,0,0,5.95,2.83,20.67,20.67,0,0,1,11.55,6.33c1.61,1.76,3.39,3.37,5.11,5a16.23,16.23,0,0,1,4.76,11.68,29.42,29.42,0,0,1-7.63,20.6c-1.23,1.4-3,2.33-4.54,3.47a33.91,33.91,0,0,1-9.92,4.63,17.48,17.48,0,0,1-9.46.45c-2.79-.64-5.59-1.29-8.38-2a5.78,5.78,0,0,1-1.76-.72c-5.64-3.61-10.2-8.16-12.53-14.62A36.18,36.18,0,0,1,780.49,398.88Zm47.37.05a8.58,8.58,0,0,0-2.26-6.65c-1-1.07-1.81-2.23-2.78-3.3a13.32,13.32,0,0,0-5.76-4.15c-2.44-.75-4.9-1.42-7.37-2.06-1.38-.37-2.92-.36-4.18-1a6.28,6.28,0,0,0-6.74.72c-1.72,1.15-3.46,2.29-5.08,3.58a9.92,9.92,0,0,0-3.09,4.72,26.08,26.08,0,0,0-.83,14.61,17.67,17.67,0,0,0,8.46,11.73c5.38,3.11,11.31,4.4,17.24.71,2.72-1.68,5.77-3,7.71-5.58C826.16,408.41,827.1,403.66,827.86,398.93Z" transform="translate(-541.18 -57.75)"/>
  <path d="M883.44,347.94a38.26,38.26,0,0,1,19.81,4.39,9.57,9.57,0,0,1,3.07,2.22,59.28,59.28,0,0,1,10.62,19.14c.62,2,.8,3.73-.67,5.38a4.93,4.93,0,0,0-.87,4.08,20.8,20.8,0,0,1,.2,3.34,3,3,0,0,1-2.7,2.89,4.65,4.65,0,0,1-5.18-2.59,45.09,45.09,0,0,1-2.58-5.66c-1.49-4.22-4.7-6.92-8.43-8.75A75.36,75.36,0,0,0,884.57,368a16,16,0,0,0-9,.31c-3.53,1-7,2.13-10.56,3.16-3.21.94-6.42,1.91-9.66,2.73a7.6,7.6,0,0,1-6.82-1.34,8.42,8.42,0,0,1-.73-.61c-1.4-1.29-1.67-2.7-.58-4.26,2.46-3.54,5-7,8.8-9.33a114.51,114.51,0,0,1,17.54-8.79A25.14,25.14,0,0,1,883.44,347.94Zm4.22,7.75c-3,.21-5,.38-7.1.5a13.46,13.46,0,0,0-6.67,2.44c-.33.22-.47.72-.7,1.09.39.18.83.58,1.17.51a26.45,26.45,0,0,1,9,.09c5.16.68,9.79,2.85,14.57,4.66,1.34.51,2.67,1,4,1.45s2.17-.71,1.78-2a9.91,9.91,0,0,0-7.1-7.16C893.49,356.41,890.13,356.11,887.66,355.69Z" transform="translate(-541.18 -57.75)"/>
  <path d="M959.25,216.25c-.11,0-.28.11-.33.07a1,1,0,0,1-.15-.37l.55-.11Z" transform="translate(-541.18 -57.75)"/>
</svg>
