<?xml version="1.0" standalone="no"?>
<!DOCTYPE svg PUBLIC "-//W3C//DTD SVG 20010904//EN"
 "http://www.w3.org/TR/2001/REC-SVG-20010904/DTD/svg10.dtd">
<svg version="1.0" xmlns="http://www.w3.org/2000/svg"
 width="3621.000000pt" height="3623.000000pt" viewBox="0 0 3621.000000 3623.000000"
 preserveAspectRatio="xMidYMid meet">

<g transform="translate(0.000000,3623.000000) scale(0.100000,-0.100000)"
fill="#000000" stroke="none">
<path d="M19908 35548 c-18 -3 -43 -18 -55 -33 -22 -25 -23 -32 -23 -250 0
-123 -3 -230 -6 -239 -5 -14 -59 -16 -503 -16 -452 0 -499 -2 -531 -18 -55
-27 -63 -66 -56 -257 3 -99 2 -175 -5 -198 -18 -67 -35 -71 -276 -77 -204 -5
-213 -6 -235 -28 l-23 -23 -5 -517 -5 -517 -233 -3 c-266 -3 -284 1 -301 66
-6 20 -11 119 -11 219 0 112 -4 191 -11 206 -23 51 -55 55 -441 57 l-88 0 0
218 c0 119 -5 234 -11 254 -17 62 -39 68 -259 68 -218 0 -250 7 -269 60 -7 20
-11 106 -11 221 0 103 -4 199 -10 214 -22 58 85 55 -1907 55 -1805 0 -1828 0
-1860 -20 -18 -11 -34 -21 -35 -22 -1 -2 -5 -233 -8 -515 -3 -334 -9 -516 -15
-522 -7 -7 -434 -12 -1330 -13 -1429 -3 -1349 0 -1374 -55 -7 -15 -11 -108
-11 -243 0 -120 -3 -225 -6 -234 -5 -14 -60 -16 -508 -16 -380 0 -507 -3 -526
-13 -14 -7 -33 -28 -42 -47 -16 -32 -18 -76 -18 -479 0 -314 3 -455 12 -483
22 -76 1 -73 564 -73 276 0 506 -4 511 -8 12 -13 16 -477 4 -509 l-10 -28
-785 -2 -785 -3 -23 -23 c-22 -22 -23 -28 -26 -260 -2 -140 -7 -241 -13 -247
-6 -6 -189 -10 -507 -10 -540 0 -539 0 -562 -55 -7 -18 -12 -103 -13 -227 -2
-212 -6 -230 -54 -252 -15 -7 -100 -11 -214 -11 -216 0 -249 -8 -268 -62 -14
-40 -15 -936 -1 -972 5 -14 21 -33 37 -43 25 -17 74 -18 797 -20 424 -2 776
-5 783 -7 9 -4 13 -67 15 -245 3 -235 4 -241 26 -263 22 -22 28 -23 267 -26
l244 -3 3 -232 c2 -128 1 -250 -2 -272 l-5 -40 -508 -2 c-566 -1 -546 1 -567
-70 -8 -26 -10 -184 -8 -498 3 -503 2 -494 62 -515 37 -13 396 -13 431 0 46
18 55 59 55 264 0 102 4 196 10 210 21 55 46 61 265 61 139 1 207 5 222 13 43
24 48 47 50 237 1 99 2 206 2 238 l1 57 224 0 c137 0 235 4 255 11 56 20 61
43 61 284 0 130 4 224 10 236 10 19 33 19 1054 19 574 0 1057 -3 1074 -6 17
-4 34 -14 37 -23 3 -9 7 -114 9 -233 3 -132 8 -224 15 -237 25 -46 55 -51 289
-51 156 0 221 -3 230 -12 9 -9 12 -133 12 -499 0 -508 2 -538 44 -562 15 -9
149 -13 509 -17 l489 -5 24 -28 24 -29 -2 -236 -3 -237 -765 -5 c-464 -3 -778
-1 -798 4 -56 16 -62 41 -62 243 0 196 -8 242 -47 273 -25 19 -38 20 -492 21
-256 1 -477 4 -490 8 -13 3 -34 19 -45 34 -19 26 -21 45 -26 240 -3 117 -9
218 -14 226 -25 38 -60 41 -531 41 -506 0 -513 -1 -534 -60 -15 -44 -15 -386
0 -430 19 -53 51 -60 263 -60 102 0 196 -4 210 -10 56 -21 61 -43 63 -291 2
-157 -1 -230 -8 -235 -6 -3 -113 -7 -238 -8 -200 -1 -230 -3 -254 -19 -16 -10
-32 -29 -37 -43 -6 -16 -10 -716 -10 -1855 0 -2014 4 -1875 -61 -1898 -19 -7
-108 -11 -220 -11 -119 0 -197 -4 -213 -11 -59 -27 -56 106 -56 -2167 0 -1412
3 -2089 11 -2115 18 -68 33 -71 299 -77 l235 -5 5 -787 5 -788 28 -27 27 -28
223 -6 c122 -3 223 -7 224 -7 2 -1 11 -14 20 -29 17 -25 18 -93 23 -1060 l5
-1032 23 -23 c22 -22 28 -23 245 -26 122 -1 232 -4 245 -7 l22 -5 0 -763 c0
-483 4 -775 10 -798 18 -63 43 -69 303 -69 196 0 226 -2 231 -16 3 -9 6 -112
6 -230 0 -252 6 -276 67 -293 21 -6 133 -11 256 -11 l217 0 1 -32 c0 -18 0
-609 0 -1313 -1 -991 2 -1288 12 -1315 22 -62 53 -70 275 -69 211 0 232 -5
252 -57 6 -16 10 -415 10 -1028 0 -708 3 -1012 11 -1035 20 -56 43 -61 291
-61 203 0 251 -5 249 -24 -1 -3 -1 -600 -1 -1327 l0 -1321 29 -29 29 -29 197
0 c216 0 257 -8 275 -55 6 -17 10 -387 10 -1023 0 -662 4 -1010 11 -1035 18
-68 33 -71 299 -77 l235 -5 5 -510 c3 -280 9 -518 14 -528 20 -42 53 -47 294
-47 l230 0 6 -62 c3 -35 4 -128 2 -208 -2 -80 1 -167 6 -193 18 -85 -10 -81
573 -87 l510 -5 5 -242 c5 -236 6 -243 28 -265 l23 -23 1032 -5 c967 -5 1035
-6 1060 -23 15 -9 28 -18 29 -20 1 -1 4 -100 7 -219 6 -199 8 -219 27 -245 11
-15 32 -31 45 -34 38 -11 934 -10 963 1 54 20 61 46 64 260 1 107 5 205 7 217
3 13 17 31 32 40 25 17 95 18 1060 23 l1032 5 23 23 c22 22 23 29 28 265 l5
242 510 5 c281 3 518 9 528 14 41 20 47 54 47 289 0 160 3 226 12 235 9 9 75
12 235 12 249 0 272 5 292 61 8 22 11 265 11 805 l0 774 235 0 c150 0 243 4
258 11 54 25 52 -39 52 1379 1 723 4 1321 8 1328 6 9 64 12 232 12 123 0 235
4 249 10 59 22 56 -53 56 1388 0 1194 2 1320 16 1326 9 3 114 6 235 6 231 0
265 6 285 47 5 10 11 617 14 1348 l5 1330 235 5 c243 5 268 9 290 50 6 12 10
283 10 789 0 423 3 776 6 785 5 14 35 16 229 16 234 0 276 6 298 44 9 15 13
154 17 531 l5 510 241 5 c270 6 274 6 294 79 6 23 10 411 10 1067 l0 1032 35
6 c19 4 125 6 235 5 218 -2 240 3 260 57 6 15 10 330 10 794 0 517 3 771 10
775 6 4 106 6 223 6 243 0 273 6 299 59 17 32 18 91 18 778 l0 744 29 29 c34
33 23 32 246 29 193 -2 236 7 257 57 8 21 11 295 10 1047 -1 1114 2 1054 -58
1076 -14 6 -128 10 -254 10 l-230 0 -2 788 c-3 861 0 820 -62 842 -16 6 -128
10 -258 10 l-228 0 2 2453 3 2452 242 5 243 5 27 28 28 27 5 243 5 242 517 5
517 5 23 23 c23 22 23 27 23 242 l0 220 -28 27 -27 28 -191 2 c-105 0 -207 4
-225 8 -62 11 -69 35 -71 240 -1 99 -2 193 -3 208 0 18 -11 40 -29 58 l-29 29
-1031 0 -1030 0 -28 -24 -28 -24 -5 -240 c-3 -132 -7 -243 -10 -246 -3 -3
-231 -6 -506 -6 -532 -2 -541 -1 -563 47 -7 15 -11 100 -11 228 0 201 0 204
24 232 l24 28 214 5 c220 5 247 10 268 50 6 12 10 194 10 507 0 268 3 498 6
510 6 21 9 22 245 25 l239 3 27 28 28 27 0 220 c0 291 29 264 -287 268 -169 2
-245 7 -250 15 -3 6 -7 111 -8 234 0 123 -5 235 -10 249 -21 55 -16 55 -815
54 -590 -1 -740 1 -762 12 -19 9 -31 25 -38 52 -12 42 -13 445 -1 464 5 9 138
12 504 12 377 0 503 3 522 13 14 7 33 28 42 47 16 32 18 77 18 490 0 413 -2
458 -18 490 -11 24 -28 39 -52 47 -27 9 -406 12 -1612 12 -868 0 -1582 3
-1588 6 -6 4 -10 103 -10 265 0 226 2 259 16 264 9 3 112 6 229 6 118 0 225 4
239 10 52 19 61 49 64 229 4 194 -1 242 -33 279 l-23 27 -244 5 -243 5 -5 243
-5 244 -28 24 c-15 13 -36 24 -45 24 -305 4 -910 3 -934 -2z m1000 -550 c9 -9
12 -82 12 -269 0 -225 -2 -258 -16 -263 -9 -3 -114 -6 -234 -6 -139 0 -228 -4
-243 -11 -46 -21 -51 -48 -57 -294 l-5 -230 -235 -5 c-251 -5 -267 -9 -289
-57 -8 -16 -11 -264 -11 -781 0 -416 -3 -767 -6 -779 l-6 -23 -494 0 c-532 0
-547 -1 -576 -52 -9 -16 -13 -77 -15 -208 -1 -102 -2 -209 -2 -237 l-1 -53
-225 0 c-263 0 -287 5 -305 67 -8 27 -10 265 -8 803 l3 765 240 5 c167 3 247
9 262 18 34 19 43 73 43 269 0 112 4 191 11 206 20 44 50 50 241 48 102 -1
194 3 217 9 65 17 71 38 71 252 0 101 5 199 10 219 17 62 46 69 270 69 220 0
242 6 259 68 6 20 11 134 11 254 l0 217 23 4 c12 2 252 5 532 6 386 1 514 -2
523 -11z m-4964 -548 c51 -19 56 -40 58 -261 3 -232 8 -250 75 -268 24 -7 218
-11 526 -11 268 0 488 -1 489 -2 1 -2 4 -236 8 -520 l5 -517 23 -23 c22 -22
30 -23 242 -28 212 -5 220 -6 242 -28 l23 -23 0 -494 0 -494 -23 -23 c-22 -22
-30 -23 -227 -26 -223 -3 -256 3 -275 54 -6 14 -10 108 -10 210 0 214 -8 246
-65 270 -30 12 -175 14 -1046 14 -1125 -1 -1048 -6 -1068 67 -7 24 -11 207
-11 490 0 263 -4 462 -10 477 -19 50 -49 56 -288 56 -156 0 -221 3 -230 12 -9
9 -12 71 -12 218 0 113 -5 222 -11 243 -19 68 -34 72 -287 74 -156 1 -227 5
-238 13 -11 10 -14 52 -14 225 0 129 4 224 11 244 22 63 -35 60 1076 61 620 0
1021 -4 1037 -10z m-2145 -555 c7 -7 11 -100 11 -249 1 -206 -1 -241 -15 -255
-14 -14 -72 -16 -525 -16 -379 0 -512 3 -521 12 -8 8 -12 77 -14 225 -3 244 1
285 24 291 35 10 1030 2 1040 -8z m7115 -1 c11 -28 7 -429 -5 -463 -19 -55
-45 -61 -263 -61 -122 0 -204 4 -219 11 -48 22 -52 46 -52 278 0 119 3 224 7
234 7 16 29 17 267 17 227 0 260 -2 265 -16z m-8198 -548 c11 -16 14 -65 14
-232 0 -117 4 -224 10 -238 21 -56 25 -56 564 -56 479 0 496 -1 506 -19 6 -12
10 -104 10 -230 0 -115 4 -221 10 -235 5 -14 22 -33 37 -43 24 -16 48 -18 206
-15 103 1 195 -2 218 -8 68 -19 73 -34 76 -269 1 -113 -1 -220 -5 -236 l-8
-30 -242 -5 c-313 -6 -286 17 -290 -248 -2 -119 1 -211 7 -232 18 -61 33 -65
251 -68 171 -2 199 -1 230 15 53 27 59 57 59 304 1 188 3 218 17 223 9 3 479
6 1045 6 1134 0 1086 3 1108 -60 7 -20 11 -105 11 -215 0 -100 5 -195 10 -211
21 -60 10 -59 543 -64 l489 -5 24 -28 24 -29 -2 -236 -3 -237 -235 -5 c-251
-5 -273 -10 -290 -56 -6 -15 -10 -227 -10 -507 0 -265 -3 -492 -6 -504 l-6
-23 -264 0 -264 0 -5 23 c-3 12 -6 123 -7 245 l-3 224 -28 24 c-28 24 -31 24
-223 24 -210 0 -251 8 -275 52 -9 16 -12 73 -11 198 2 189 -5 241 -38 274 -19
20 -34 21 -263 26 l-242 5 -5 241 c-6 271 -7 275 -79 293 -54 15 -391 8 -419
-8 -44 -24 -52 -66 -52 -261 0 -202 9 -242 57 -261 17 -6 114 -10 243 -9 162
0 220 -3 233 -13 17 -11 18 -32 15 -245 l-3 -232 -28 -27 -27 -28 -1033 -5
c-567 -3 -1040 -9 -1050 -14 -41 -20 -42 -34 -47 -538 l-5 -487 -23 -23 c-22
-22 -29 -23 -247 -26 -144 -2 -231 1 -244 7 -19 10 -20 24 -23 244 -2 190 -6
237 -18 252 -32 39 -71 45 -288 45 -183 0 -211 2 -223 17 -11 12 -15 72 -19
245 l-5 230 -28 24 c-28 24 -30 24 -252 24 -123 0 -230 3 -239 6 -14 5 -16 58
-16 493 0 307 -4 500 -11 524 -18 67 -36 72 -264 72 -177 0 -204 2 -228 18
-15 10 -32 29 -37 43 -6 14 -10 108 -10 210 0 205 -9 246 -55 264 -15 6 -126
10 -250 10 -168 0 -226 3 -232 13 -4 6 -10 118 -13 247 -3 129 -9 241 -14 249
-22 34 -71 41 -301 41 l-225 0 0 539 c0 505 1 540 18 544 9 3 617 4 1350 3
1308 -1 1334 -1 1348 -20z m10329 10 c18 -8 38 -23 44 -34 7 -13 11 -106 11
-255 0 -205 -2 -236 -16 -241 -9 -3 -116 -6 -239 -6 -222 0 -224 0 -252 -24
l-28 -24 -5 -491 -5 -491 -28 -27 -27 -28 -213 -5 c-217 -5 -245 -10 -263 -47
-5 -10 -11 -247 -14 -528 l-5 -510 -243 -5 -244 -5 -23 -27 c-14 -16 -26 -46
-29 -75 -4 -26 -5 -241 -3 -478 2 -236 1 -447 -1 -467 l-5 -38 -216 0 c-119 0
-233 -5 -253 -11 -62 -17 -68 -39 -68 -257 0 -113 -4 -202 -11 -221 -19 -55
-46 -61 -257 -61 -104 0 -202 -5 -218 -10 -56 -20 -59 -33 -62 -290 -3 -160
-7 -237 -15 -242 -18 -11 -471 -10 -501 1 l-26 11 0 534 0 535 238 3 c204 3
242 5 264 20 48 32 52 76 45 588 -4 256 -3 471 1 477 6 10 62 13 223 12 118 0
224 0 236 0 12 1 35 12 50 25 l28 24 5 244 5 243 241 5 c270 6 274 6 294 79
15 54 12 906 -3 951 -21 63 -53 71 -273 69 -132 -1 -197 2 -213 11 -43 22 -51
65 -51 265 0 203 7 237 56 255 14 6 110 10 214 10 104 0 200 4 214 10 54 20
61 46 66 275 3 115 9 216 14 223 25 40 43 41 799 42 605 0 733 -2 762 -14z
m-8697 -8 c9 -9 12 -73 12 -225 0 -233 -6 -264 -56 -283 -38 -15 -447 -13
-462 2 -9 9 -12 79 -12 255 0 220 2 243 18 252 26 15 485 14 500 -1z m5964
-1081 c48 -12 53 -35 58 -262 5 -224 9 -242 57 -264 15 -7 100 -11 214 -11
217 0 249 -7 268 -60 7 -21 11 -116 11 -256 l0 -224 -22 -2 c-13 -1 -120 -2
-238 -3 -227 -1 -247 -4 -272 -48 -9 -15 -15 -93 -18 -257 l-5 -235 -235 -5
c-251 -5 -273 -10 -290 -56 -6 -15 -10 -227 -10 -507 0 -265 -3 -492 -6 -504
-6 -23 -7 -23 -228 -23 -190 0 -226 -2 -256 -18 -61 -30 -60 -20 -58 -544 l3
-478 28 -27 27 -28 239 -3 c232 -3 239 -4 244 -24 3 -11 6 -132 7 -268 l1
-249 -245 -3 -246 -3 -27 -28 -28 -27 -3 -193 c-2 -122 0 -206 8 -229 18 -62
40 -68 264 -68 117 0 204 4 219 11 49 22 52 38 55 287 3 221 4 233 24 243 13
7 94 10 231 8 183 -3 216 -1 243 14 45 23 55 77 49 252 -2 77 -2 170 2 208 l6
67 503 0 c336 0 511 -4 527 -11 48 -22 51 -39 52 -274 0 -121 -3 -228 -7 -237
-8 -16 -29 -18 -229 -18 -249 0 -279 -6 -298 -60 -8 -24 -11 -243 -11 -760 0
-506 -3 -737 -11 -759 -23 -65 61 -61 -1347 -61 -908 0 -1288 -3 -1311 -11
-52 -18 -56 -35 -61 -264 -6 -234 -10 -248 -70 -265 -38 -11 -959 -14 -997 -4
l-23 6 0 768 c0 535 -3 777 -11 799 -20 56 -42 61 -297 61 -205 0 -231 2 -236
17 -4 9 -6 131 -6 272 l1 256 -273 0 -273 0 -3 -200 c-4 -233 1 -276 33 -313
l23 -27 244 -5 243 -5 3 -804 c1 -586 -1 -807 -9 -817 -9 -11 -61 -14 -250
-14 -144 0 -247 4 -261 10 -23 11 -23 11 -20 193 4 223 -2 279 -33 315 l-23
27 -767 5 -767 5 -24 28 -24 28 0 462 c0 289 -4 476 -11 499 -17 62 -39 68
-257 68 -108 0 -202 5 -220 11 -54 19 -62 52 -62 269 0 214 -6 240 -61 259
-22 7 -183 11 -500 11 l-468 0 -28 24 -28 24 -3 234 c-2 192 0 237 11 246 11
9 346 11 1363 10 l1349 -3 5 -241 c5 -220 7 -244 24 -263 30 -33 75 -38 306
-36 l215 1 0 230 c0 126 -3 241 -8 256 -4 15 -19 36 -34 45 -24 16 -50 17
-235 15 -115 -2 -222 0 -238 3 l-30 7 0 222 c0 235 -6 277 -44 299 -15 9 -149
13 -509 17 l-489 5 -24 28 c-24 28 -24 31 -24 233 0 215 6 252 47 269 20 8
2114 7 2123 -1 3 -3 7 -370 10 -816 l5 -810 235 -1 c169 0 242 3 259 12 51 28
51 21 51 851 l0 770 218 0 c119 0 234 5 254 11 69 19 68 7 68 569 l0 500 28
11 c16 6 103 10 217 9 249 -3 240 -4 272 24 l28 24 5 222 5 222 28 24 c28 24
31 24 223 24 210 0 251 8 276 52 9 16 14 89 18 258 l5 235 510 5 c529 5 542 6
561 47 5 10 11 124 14 253 l5 235 45 5 c67 7 401 5 432 -3z m-9774 -775 c3
-256 -3 -284 -56 -299 -31 -9 -444 -8 -467 1 -13 5 -15 46 -15 271 l0 265 268
-2 267 -3 3 -233z m14200 -31 c2 -182 -1 -267 -8 -271 -6 -4 -100 -5 -208 -3
-217 3 -285 -5 -305 -41 -8 -14 -14 -91 -17 -226 -6 -219 -12 -249 -57 -269
-15 -7 -96 -11 -214 -11 -216 0 -249 -8 -268 -62 -8 -21 -11 -434 -11 -1334 0
-716 -3 -1309 -6 -1318 -5 -14 -35 -16 -228 -16 -325 0 -319 5 -314 -295 3
-197 11 -225 64 -245 33 -13 395 -13 428 0 50 19 56 48 56 298 l0 230 35 6
c20 4 127 6 239 4 231 -3 247 2 265 69 6 21 11 123 11 226 l0 189 29 29 29 29
197 0 c199 0 250 8 271 41 5 8 11 109 14 224 5 229 12 255 66 275 14 6 112 10
217 10 171 0 195 2 223 19 41 25 44 43 44 290 0 113 4 211 8 218 6 9 198 12
784 14 873 2 817 7 838 -72 13 -47 10 -436 -3 -456 -6 -10 -63 -13 -226 -13
-137 0 -230 -4 -251 -11 -54 -19 -60 -49 -60 -297 0 -178 -3 -222 -14 -231
-11 -9 -77 -12 -238 -10 -198 2 -226 1 -250 -15 -14 -9 -30 -25 -35 -34 -4 -9
-9 -233 -10 -496 -2 -454 -3 -481 -21 -505 -10 -14 -30 -29 -43 -32 -13 -4
-353 -7 -756 -8 -438 -1 -742 -5 -757 -11 -54 -20 -60 -46 -57 -241 1 -106 -2
-194 -9 -218 -21 -78 31 -73 -813 -75 -413 0 -760 -5 -770 -10 -41 -20 -47
-54 -47 -278 0 -117 -3 -223 -6 -235 l-6 -23 -499 0 c-292 0 -508 4 -523 10
-59 22 -56 -14 -56 828 0 424 3 777 6 785 4 12 45 14 228 14 241 -1 275 5 295
49 7 16 11 93 11 207 0 100 5 199 11 219 17 62 39 68 259 68 225 0 253 7 269
67 14 51 14 381 0 422 -6 17 -21 37 -33 44 -15 9 -149 13 -508 17 l-487 5 -23
23 c-23 22 -23 28 -26 267 l-3 245 218 0 c120 0 235 5 255 11 69 19 68 7 68
567 0 412 2 502 14 511 9 8 82 11 233 11 125 -1 230 3 245 9 48 18 53 40 58
268 5 204 6 213 28 235 22 22 31 23 235 28 145 3 219 9 234 18 44 25 48 46 49
258 0 218 6 243 57 264 12 5 365 8 797 7 l775 -2 3 -264z m-14744 -303 c3 -13
6 -121 6 -241 l0 -219 29 -29 c19 -18 40 -29 58 -29 15 0 234 -1 485 -3 l458
-2 27 -28 28 -27 5 -213 c3 -116 9 -220 14 -230 20 -42 54 -47 291 -47 202 0
226 -2 232 -17 4 -9 7 -123 7 -253 1 -187 -2 -240 -13 -253 -12 -16 -97 -17
-1045 -17 -962 0 -1033 -1 -1066 -18 -56 -28 -60 -43 -60 -284 0 -119 -3 -223
-6 -232 -5 -14 -39 -16 -270 -16 l-264 0 0 38 c-4 389 -6 439 -18 459 -25 44
-46 48 -292 53 l-235 5 -5 235 c-5 251 -10 273 -56 290 -14 6 -111 10 -215 10
-281 0 -279 -1 -278 272 0 281 -1 279 284 277 135 -2 197 1 214 10 44 24 51
63 51 299 0 120 3 222 7 225 3 4 370 7 814 7 l807 0 6 -22z m2152 -1642 c18
-14 19 -28 19 -240 0 -203 -2 -227 -18 -243 -16 -16 -40 -18 -236 -18 -201 0
-221 2 -240 19 -20 18 -21 28 -21 238 0 205 1 219 20 238 19 19 33 20 238 20
173 0 222 -3 238 -14z m562 -538 c17 -17 17 -489 0 -506 -9 -9 -78 -12 -249
-12 -203 0 -240 2 -253 16 -14 13 -16 50 -16 249 0 199 2 236 16 249 13 14 50
16 253 16 171 0 240 -3 249 -12z m-1644 -2197 c20 -20 21 -33 26 -241 5 -212
6 -220 28 -242 l23 -23 764 -5 765 -5 27 -28 28 -27 6 -223 c3 -122 7 -223 7
-224 1 -2 14 -11 29 -20 26 -17 117 -18 1628 -23 l1600 -5 5 -235 c6 -266 9
-281 77 -299 21 -6 115 -11 208 -11 142 0 176 3 205 18 56 28 60 43 60 284 0
119 3 223 6 232 5 14 38 16 264 16 196 0 261 -3 267 -12 4 -7 10 -116 13 -243
3 -126 9 -237 13 -245 23 -46 -11 -45 1052 -45 550 -1 1017 3 1037 7 21 5 46
20 57 35 20 24 21 39 21 220 0 214 8 255 55 273 17 6 575 10 1581 10 1709 0
1610 -4 1633 60 7 21 11 117 11 261 l0 229 1055 0 c751 0 1061 3 1078 11 41
19 47 48 47 242 0 100 5 199 11 220 19 70 2 68 536 68 264 0 487 -3 497 -7 48
-18 46 43 46 -1599 0 -1052 4 -1551 11 -1586 17 -80 28 -83 307 -80 l232 2 0
-776 c0 -809 1 -825 41 -851 8 -5 124 -11 259 -14 l245 -5 0 -787 0 -788 -28
-27 -27 -28 -213 -5 c-231 -5 -248 -9 -266 -61 -8 -23 -11 -339 -11 -1075 l0
-1044 -225 0 c-243 0 -281 -6 -307 -52 -10 -17 -13 -75 -13 -224 -1 -219 -6
-244 -61 -264 -15 -6 -217 -10 -485 -10 -520 0 -520 0 -538 -67 -6 -21 -11
-121 -11 -223 0 -207 -5 -228 -60 -247 -26 -8 -229 -11 -755 -9 -396 1 -735
-2 -753 -6 -67 -18 -69 -28 -72 -451 0 -18 -11 -39 -29 -58 l-29 -29 -786 0
-786 0 0 270 0 269 515 3 515 3 27 28 28 27 3 1293 c2 1215 1 1294 -15 1327
-29 58 -39 59 -533 59 -319 0 -455 -4 -480 -12 -67 -23 -65 7 -68 -787 -1
-393 -2 -743 -2 -777 l0 -62 -237 -3 c-246 -3 -270 -7 -290 -48 -4 -8 -10
-123 -13 -255 l-5 -240 -1063 -5 -1064 -5 -23 -27 c-14 -16 -25 -45 -28 -75
-3 -26 -5 -241 -3 -478 2 -462 3 -471 54 -495 36 -16 1499 -15 1535 1 46 21
52 49 53 259 0 114 5 206 12 221 18 45 48 50 297 47 l230 -3 5 -235 c5 -244 9
-268 50 -290 12 -7 110 -11 255 -11 233 -1 235 -1 237 -23 0 -11 2 -118 2
-236 1 -155 5 -221 14 -237 31 -55 -12 -53 1075 -53 707 0 1013 3 1036 11 52
18 56 35 61 266 l5 213 28 27 27 28 770 3 c531 2 777 -1 790 -8 20 -11 20 -21
18 -1093 l-3 -1082 -227 -1 c-125 -1 -239 -5 -253 -8 -13 -3 -33 -18 -42 -33
-16 -25 -18 -72 -23 -538 l-5 -510 -243 -5 -244 -5 -24 -28 c-16 -19 -24 -40
-24 -65 0 -20 -1 -371 -2 -780 -3 -647 -5 -744 -18 -752 -9 -6 -111 -10 -237
-9 -131 0 -230 -4 -241 -10 -49 -26 -47 49 -52 -1380 l-5 -1336 -240 -5 c-132
-3 -247 -8 -255 -13 -47 -23 -45 33 -50 -1382 l-5 -1330 -242 -5 c-236 -5
-243 -6 -265 -28 l-23 -23 -5 -1337 c-3 -735 -6 -1338 -8 -1339 -1 -2 -106 -3
-232 -3 -243 0 -276 -5 -296 -47 -5 -10 -11 -371 -14 -803 l-5 -785 -517 -5
-517 -5 -23 -23 c-22 -22 -23 -29 -28 -265 l-5 -242 -2725 0 -2725 0 -5 235
c-3 129 -9 243 -14 253 -22 46 -35 47 -555 47 -269 0 -496 3 -505 6 -14 5 -16
58 -16 493 0 307 -4 500 -11 524 -18 68 -32 71 -288 70 -138 0 -231 3 -238 9
-10 8 -13 285 -13 1324 0 810 -4 1322 -10 1338 -21 55 -46 61 -265 61 -211 0
-233 4 -257 48 -10 17 -13 226 -11 1016 2 563 -1 1011 -7 1034 -4 22 -18 49
-30 61 -19 20 -33 21 -263 26 l-242 5 -5 1330 c-3 732 -9 1338 -14 1348 -19
40 -56 47 -256 47 -225 0 -253 7 -269 67 -7 25 -11 280 -11 756 0 789 -1 770
60 802 44 23 417 19 445 -5 38 -32 45 -72 45 -264 0 -102 4 -196 10 -211 21
-56 11 -55 849 -55 l770 0 6 -42 c3 -24 5 -128 3 -233 -3 -222 2 -243 71 -264
31 -9 340 -11 1316 -10 1423 2 1313 7 1334 -68 6 -21 11 -123 11 -226 l0 -189
30 -29 30 -30 216 3 216 3 24 28 c24 28 24 32 24 215 0 103 5 204 11 225 21
76 -152 70 1881 68 1229 0 1834 2 1860 9 69 19 72 33 78 300 l5 235 788 5 789
5 23 27 c30 35 40 121 32 288 -11 224 -3 230 285 230 194 0 197 0 225 24 l28
24 0 221 0 221 -28 27 -27 28 -473 0 c-508 0 -523 -1 -546 -51 -7 -16 -11 -93
-11 -207 0 -100 -5 -199 -11 -219 -19 -69 -11 -68 -534 -68 -396 0 -470 -2
-495 -15 -53 -27 -55 -40 -53 -292 1 -229 1 -231 -20 -237 -29 -8 -7025 -7
-7054 0 -21 6 -22 9 -25 245 l-3 239 -28 27 -27 28 -488 5 c-268 3 -494 9
-503 13 -37 19 -44 56 -44 257 0 222 -6 247 -65 267 -26 9 -216 12 -775 12
-407 -1 -752 -1 -767 0 l-28 1 0 220 c0 241 -8 287 -56 309 -16 7 -103 11
-247 11 -160 0 -226 3 -235 12 -9 9 -12 195 -12 775 0 843 2 820 -60 842 -21
7 -114 11 -249 11 -156 0 -220 3 -229 12 -17 17 -16 2057 1 2108 20 57 39 61
293 60 125 0 231 -3 235 -6 5 -3 9 -106 9 -229 0 -123 4 -235 10 -249 22 -58
15 -58 528 -56 258 0 488 -2 511 -6 l41 -7 0 -224 c0 -254 6 -283 60 -302 24
-8 323 -11 1076 -11 l1042 0 6 -62 c4 -35 5 -142 4 -238 -3 -201 2 -221 69
-239 26 -8 1038 -11 3213 -11 3003 0 3177 1 3210 18 56 27 60 45 60 262 0 177
-2 198 -20 228 -11 17 -21 33 -22 34 -2 2 -1465 5 -3253 8 l-3250 5 -5 242 -5
243 -28 27 -27 28 -1057 3 c-826 2 -1059 5 -1065 15 -4 6 -8 109 -8 228 0 125
-4 229 -10 246 -20 57 -20 57 -560 58 -272 0 -501 4 -507 8 -10 6 -13 63 -13
226 0 134 -4 230 -11 250 -21 61 -20 61 -534 61 -507 0 -514 1 -535 56 -6 15
-10 216 -10 485 0 504 -2 519 -57 540 -16 6 -115 10 -246 9 -151 0 -224 3
-233 11 -21 17 -21 3703 0 3754 24 56 41 60 238 57 199 -4 249 5 276 45 16 26
17 152 22 2173 l5 2145 480 5 c264 3 497 2 519 -1 21 -4 48 -16 60 -28z m2707
19 c42 -23 49 -58 49 -253 0 -203 -7 -240 -51 -262 -37 -20 -401 -21 -439 -2
-53 26 -60 61 -58 292 1 115 3 216 6 223 5 16 463 18 493 2z m8196 -8740 c12
-8 26 -25 32 -37 14 -30 15 -402 1 -438 -19 -49 -57 -56 -303 -53 l-222 3 -3
267 -2 267 27 3 c16 2 123 3 238 2 160 0 215 -4 232 -14z m-509 -549 c10 -28
9 -508 -1 -518 -11 -10 -495 -11 -519 -1 -17 7 -18 29 -18 267 0 198 3 261 13
264 6 3 126 6 265 6 241 1 253 0 260 -18z m4326 -542 c42 -20 47 -48 44 -294
l-3 -230 -262 -3 -263 -2 -5 23 c-4 12 -5 123 -3 246 l3 223 28 24 c28 24 31
24 232 24 130 0 213 -4 229 -11z"/>
<path d="M13330 25162 c-55 -27 -61 -59 -58 -314 l3 -219 259 1 c182 0 262 -3
272 -11 11 -9 14 -56 14 -231 0 -258 5 -281 69 -298 22 -6 119 -10 220 -10
145 1 185 -2 210 -14 46 -24 53 -69 49 -284 l-3 -184 -33 -29 -32 -29 -468 -1
c-257 -1 -478 -4 -491 -8 -13 -3 -34 -19 -45 -34 -20 -27 -21 -43 -24 -260 -2
-164 -7 -234 -15 -239 -7 -4 -232 -8 -502 -8 -372 0 -496 3 -515 13 -53 26
-60 62 -60 292 0 116 5 217 10 225 8 13 47 15 238 17 148 0 237 5 251 12 42
23 46 46 51 291 l5 235 235 5 c245 5 268 9 291 51 7 14 11 105 12 258 l1 236
-247 0 c-243 0 -247 0 -269 -23 -22 -22 -23 -29 -28 -261 -3 -132 -9 -243 -13
-247 -4 -5 -110 -9 -235 -9 -154 -1 -234 -5 -249 -14 -44 -23 -48 -44 -53
-291 l-5 -235 -235 -5 c-247 -5 -268 -9 -292 -53 -10 -17 -12 -188 -11 -769 1
-411 4 -756 7 -766 3 -10 19 -25 35 -35 26 -15 73 -17 501 -17 519 0 518 0
539 61 6 19 11 107 11 215 0 100 4 194 10 208 5 14 22 33 37 43 24 16 47 18
204 15 199 -4 250 4 277 46 15 23 17 54 18 242 0 118 1 225 2 238 l2 22 775 0
c846 0 824 2 845 -56 6 -14 10 -109 10 -212 0 -216 8 -248 70 -268 46 -16 897
-18 952 -4 68 19 73 36 73 266 0 216 -5 242 -52 263 -15 7 -95 11 -212 11
-199 0 -243 7 -264 44 -8 14 -14 92 -17 233 l-5 213 -28 27 -27 28 -213 5
c-217 5 -245 10 -263 47 -5 10 -11 237 -14 505 l-5 487 -23 23 -23 23 -511 3
c-390 2 -514 5 -520 15 -4 6 -8 112 -8 235 0 248 -5 271 -61 291 -19 6 -106
11 -213 11 -152 0 -187 -3 -216 -18z"/>
<path d="M21523 24620 c-12 -5 -30 -21 -40 -37 -16 -24 -18 -53 -19 -255 0
-125 -4 -231 -7 -235 -4 -4 -110 -7 -235 -7 -202 -1 -231 -3 -255 -19 -16 -10
-32 -29 -37 -43 -6 -14 -10 -128 -10 -254 l0 -229 -244 -3 c-273 -3 -276 -4
-296 -77 -15 -54 -12 -906 3 -951 22 -64 53 -71 272 -68 210 4 237 10 255 61
6 19 10 206 10 527 0 445 2 499 16 504 25 10 498 7 513 -3 12 -8 15 -51 15
-238 1 -203 3 -232 19 -257 10 -15 29 -31 43 -36 15 -6 231 -10 524 -10 445 0
499 -2 504 -16 3 -9 6 -114 6 -234 0 -135 4 -228 11 -243 22 -49 38 -52 291
-55 l236 -4 4 -236 c3 -253 6 -269 55 -291 14 -7 100 -11 212 -11 114 0 201
-4 221 -11 53 -19 60 -51 60 -264 0 -213 7 -245 60 -264 47 -16 397 -15 430 2
14 7 33 28 42 47 17 33 18 103 18 1033 0 1055 1 1039 -45 1077 -15 12 -65 16
-259 20 l-241 5 -5 240 c-3 132 -9 247 -13 255 -20 41 -43 45 -284 45 -127 0
-235 4 -240 8 -4 5 -8 111 -8 236 0 202 -2 230 -18 254 -10 16 -29 32 -43 37
-32 13 -1491 12 -1521 0z m1577 -757 c0 -120 5 -235 11 -255 17 -63 37 -68
281 -68 117 0 223 -3 236 -6 l22 -6 -1 -497 c-1 -273 -4 -507 -8 -520 -3 -13
-18 -33 -33 -44 -24 -18 -42 -19 -259 -18 -128 1 -235 4 -238 6 -2 3 -5 107
-5 232 -2 245 -6 271 -53 292 -15 7 -104 11 -243 11 -120 0 -225 3 -234 6 -14
5 -16 35 -16 229 0 234 -6 276 -44 298 -15 9 -154 13 -531 17 l-510 5 -3 268
-2 267 815 0 815 0 0 -217z"/>
<path d="M17144 22978 c-39 -19 -44 -49 -44 -278 0 -120 -3 -225 -6 -234 -5
-14 -35 -16 -228 -16 -190 0 -226 -2 -256 -18 -57 -28 -60 -43 -60 -294 l0
-228 -22 -5 c-13 -3 -123 -6 -244 -7 -249 -3 -254 -5 -274 -77 -13 -49 -13
-1433 0 -1482 20 -73 24 -74 288 -77 170 -2 239 -6 244 -15 4 -7 8 -111 8
-232 0 -244 4 -259 60 -287 30 -16 66 -18 256 -18 221 0 222 0 228 -22 3 -13
6 -121 6 -241 l0 -219 29 -29 29 -29 751 0 c512 0 758 3 774 11 49 22 52 38
55 292 l4 237 223 0 c244 0 281 7 304 57 7 15 11 105 11 243 0 120 3 225 6
234 5 14 35 16 235 16 149 0 237 4 253 11 58 27 56 -15 55 1081 -1 551 -4
1014 -8 1027 -3 13 -19 34 -34 45 -27 20 -42 21 -231 22 -132 1 -210 5 -224
13 -42 23 -47 46 -52 269 l-5 214 -28 24 -28 24 -1027 -1 c-686 0 -1034 -4
-1048 -11z m1524 -543 c61 -11 67 -34 67 -260 1 -215 6 -243 52 -264 15 -7 95
-11 212 -11 112 0 201 -4 220 -11 63 -22 61 10 61 -842 0 -697 -2 -775 -16
-781 -9 -3 -114 -6 -234 -6 -139 0 -228 -4 -243 -11 -46 -21 -50 -48 -52 -291
0 -125 -3 -229 -6 -232 -4 -4 -1203 -10 -1536 -7 l-93 1 0 225 c0 248 -7 287
-55 305 -15 6 -128 10 -255 10 -199 0 -229 2 -234 16 -8 20 -8 1572 0 1602 l6
22 230 0 c255 0 277 5 297 61 7 20 11 118 11 255 l0 224 238 2 c370 5 1293 -1
1330 -7z"/>
</g>
</svg>
