<svg xmlns="http://www.w3.org/2000/svg" viewBox="0 0 516.2 634.77">
  <g>
    <path d="M559.68,496c.14-.42.16-1,.45-1.23a17.05,17.05,0,0,1,7.62-3.83,9.31,9.31,0,0,0,4.74-2.13,17.25,17.25,0,0,1,2.5-1.39c2.19-1.3,4.45-2.5,6.51-4a15,15,0,0,1,6.4-3,71.58,71.58,0,0,0,7.9-1.92,29.49,29.49,0,0,1,7.6-.84c1.57,0,3.14-.44,4.71-.59,1.74-.16,3.48-.28,5.22-.33a4.71,4.71,0,0,0,4.16-1.9c2.61-3.74,6.47-5.57,10.7-6.8,2.76-.81,5.5-1.67,8.27-2.45,1.5-.43,2.41.05,2.9,1.62.15.49,0,1.46-.34,1.65a25.69,25.69,0,0,1-3.9,1.73c-3,1.13-6,2.18-9,3.33a6.12,6.12,0,0,0-1.52,1.1.45.45,0,0,0-.13.41c.13.26.36.7.5.68,4.88-.78,9.45,1.09,14.17,1.63,1.75.2,3.48.47,5.23.62a20.56,20.56,0,0,0,2.73-.14c-1-2.88-1.5-5.73-3.89-7.66-1.83-4-5.19-6.84-7.89-10.19a8.82,8.82,0,0,0-3-2.3c-2.55-1.33-5-2.77-7.5-4.25s-4.86-3.06-7.79-3.57a4.53,4.53,0,0,1-2.19-.92c-2.31-2.14-5.22-3-8.08-4a56.83,56.83,0,0,1-7-3.17,35.64,35.64,0,0,0-16.09-4.19,20.23,20.23,0,0,1-3.82-.28c-3.37-.68-4.4-3.92-2.16-6.58a5.17,5.17,0,0,1,3.65-2.09c3.1-.17,5.84-1.51,8.72-2.47a76.4,76.4,0,0,1,22.5-4.36,124.28,124.28,0,0,1,16.23,1c2.66.29,5.21,1.47,7.84,2.14,3.56.9,7.15,1.65,10.71,2.55,2.32.58,4.6,1.33,6.91,2a21.47,21.47,0,0,0,3.26.6c.19,0,.72-.8.63-1a51.25,51.25,0,0,0-6.16-9.1,73.55,73.55,0,0,1-6.46-7.68c-3.08-4.43-7.16-7.77-11.4-10.87-3.83-2.82-7.61-5.78-12.18-7.55a18.54,18.54,0,0,0-10.32-1c-2.83.51-5.68.88-8.54,1.23a5.06,5.06,0,0,1-4.79-1.6c-1.46-1.68-1.35-3.71.42-5a10.85,10.85,0,0,1,2.57-1.22,16.76,16.76,0,0,0,3.16-1.06c5.2-3.28,11-2.9,16.75-3,1.75,0,3.5.07,5.25.1a55.21,55.21,0,0,1,6.69.14c7.74,1.06,15.56,1.89,23,4.38,9.55,3.19,19,6.6,27.87,11.49,3.21,1.78,6.38,3.64,9.56,5.46a12.69,12.69,0,0,0,1.65,1c1,.39,2.33,1.21,3.06.87,1.42-.65.46-2.21.43-3.4a52.16,52.16,0,0,1,0-5.73c1.09-12.09,2.37-24.16,3.36-36.26.4-4.76.35-9.57.28-14.36,0-3-.45-6.08-2.26-8.7a4,4,0,0,1-.31-4.1c.86-2.1,2.84-2.82,4.66-1.44a12.21,12.21,0,0,1,4.44,6.09,13.33,13.33,0,0,1,.43,1.87c1,5.78,4.85,9.12,9.68,11.69a74.87,74.87,0,0,0,18.43,6.65c7.82,1.81,13.92,6.18,19.57,11.48,2.1,2,4.06,4.06,6.11,6.07.92.9,1.88,1.74,2.86,2.56.21.18.69.35.84.24a1.83,1.83,0,0,0,.75-1,20.45,20.45,0,0,0,.08-3.83,24.32,24.32,0,0,1,3.64-15.1c2.57-4.42,5-8.89,7.62-13.3,1-1.66,2.08-3.22,2.34-5.2a3.66,3.66,0,0,1,.43-1.37c1.68-2.89,2.35-6.27,4-9.14A68.47,68.47,0,0,0,791.48,315a4.54,4.54,0,0,1,3.17-3.26,2.05,2.05,0,0,1,2.54.77c1,1.48,1.83,3,1.31,4.92a11.73,11.73,0,0,0-.28,2.38c-.32,4.77.6,8.91,4,12.79,5.35,6.12,10,12.85,15.06,19.23a56.5,56.5,0,0,0,5,5.12,1.81,1.81,0,0,0,2.6.12c2.66-2.25,6.08-3.59,7.9-6.84a6.44,6.44,0,0,1,1.74-1.62c5.62-4.42,9.43-10.29,13-16.34a22.58,22.58,0,0,0,1.11-3.12,43.8,43.8,0,0,1,1.92-4.37,4.08,4.08,0,0,1,3-2.17,2,2,0,0,1,2.42,1.06c.66,1.6,1.61,3.28,1.62,4.93.06,5.65,1.25,11.1,2.45,16.56a24.68,24.68,0,0,1,.53,3.32c.2,2.43,1.22,4.57,2.1,6.82,1.58,4.07,4.19,7.49,6.39,11.18a66.83,66.83,0,0,1,7,14.66c.45,1.45.67,3.68,2.41,3.83,2.21.19,3.15-2,3.81-3.77,1.26-3.38,3.44-6.1,5.71-8.8,3-3.58,5.07-3.5,7.85.3.18.26.37.5.77,1a45.58,45.58,0,0,1,4-3.13,134.26,134.26,0,0,0,13.23-10.29q8.08-6.75,16.23-13.43a33.11,33.11,0,0,1,4.27-3.09,17.71,17.71,0,0,0,7.44-8.5,33.7,33.7,0,0,1,2.71-5.06c1.19-1.8,2.73-1.77,4.45-.49,2,1.47,2.54,3.2,1.61,5.41a67.75,67.75,0,0,1-3.48,7.88,15.9,15.9,0,0,0-1.43,13.8q2.29,6.81,4.31,13.71c1.12,3.83,2.06,7.71,3.09,11.56a13.31,13.31,0,0,0,.71,2.27,1.46,1.46,0,0,0,2,.83,27.2,27.2,0,0,0,12.07-9.85,39.72,39.72,0,0,1,2.65-4,3.72,3.72,0,0,1,4.29-1.3,4,4,0,0,1,2.35,3.86c0,1.27-.19,2.54-.29,3.82-.3,3.82-.54,7.65-.91,11.47a15.1,15.1,0,0,0,2.82,10.4c2.56,3.61,3.92,7.67,5.16,11.79a74.79,74.79,0,0,0,6.86,16.81c1.79,3,1.72,6.44,2.29,9.72a17.57,17.57,0,0,1,0,1.92c.13,1.92.69,2.66,2.51,2.89s3.83.24,5.74.37c2.71.19,5.43.27,8.11.64a22.39,22.39,0,0,1,11,4.53c.12.1.24.21.37.3a45.06,45.06,0,0,1,15.21,16.3,22.75,22.75,0,0,0,3.13,3.56,85.39,85.39,0,0,1,6.61,7.53,35.59,35.59,0,0,0,15.11,12.13c3.49,1.56,7.06,3,10.57,4.52a9.56,9.56,0,0,1,2.78,1.8c2.11,2.09,2,4.07-.16,6.15-.57.55-1.44,1-1.71,1.64-1.3,3.3-3.87,3-6.4,2.22a34.06,34.06,0,0,1-6.64-2.72c-5.42-3-11.35-4.3-17.29-5.58a22.1,22.1,0,0,0-8.58-.21c-3,.53-6,.66-9,1.4-7.86,2-14.85,5.87-21.31,10.64a50,50,0,0,0-6.77,6.73c-2,2.24-3.85,4.7-5.84,7-.94,1.07-2.07,2-3.12,2.94-.12.1-.26.18-.39.28a121,121,0,0,0-9,11.05,3.17,3.17,0,0,0-.12.95c.61.8,1.13.12,1.61-.17q5.76-3.43,11.5-6.91c4.09-2.49,8.21-4.93,12.23-7.54a23.74,23.74,0,0,0,4.37-3.7,164.93,164.93,0,0,1,15.41-14.37c1.59-1.32,2.91-3,4.47-4.33a9.82,9.82,0,0,1,3.14-2c6.93-2.36,13.51-.51,20,2a2.33,2.33,0,0,1,1.07,1.89,21.44,21.44,0,0,1-.81,5.17c-1.63,5.18-3.18,10.41-5.2,15.45a148.82,148.82,0,0,0-6.15,20.65c-1.6,6.68-3.27,13.34-6.36,19.54a5.28,5.28,0,0,0-.41.87c-1.8,6.64-4.54,13-6.69,19.46-2.05,6.22-3.92,12.5-5.81,18.77a10.13,10.13,0,0,1-4.56,5.93c-.54.33-1.05.73-1.59,1.07-5.95,3.76-9,9.33-10.08,16.13-.8,5.37-1.43,10.76-2.17,16.14a25,25,0,0,1-.78,4.23,124.82,124.82,0,0,0-3.92,17.28,25.8,25.8,0,0,1-2.26,7.3,19.74,19.74,0,0,0-1.9,6.39,86.29,86.29,0,0,1-3,15,6.33,6.33,0,0,0-.33,1.4c-.42,7.09-2.92,13.74-4.29,20.62-1.09,5.48-1.83,11-2.73,16.54-.18,1.1-.31,2.21-.54,3.31-1.55,7.17-2.15,14.58-4.62,21.53-2.56,7.16-2.67,14.74-4.31,22-.84,3.73-1.86,7.42-2.67,11.16-.71,3.28-1.21,6.59-1.84,9.88a39.46,39.46,0,0,1-1.31,6.07,84,84,0,0,0-3.7,13.38c-1,5.49-2.95,10.8-3.2,16.44a18.51,18.51,0,0,1-.52,2.83q-3.27,15.46-6.53,30.94a18.94,18.94,0,0,0-.64,3.77,28.88,28.88,0,0,1-1.45,8,46.41,46.41,0,0,0-1.29,8,18.06,18.06,0,0,1-1.53,6,18,18,0,0,0-1.67,10.27,11,11,0,0,1,0,3.34c-.46,2.54-.82,4.94.54,7.42a3,3,0,0,1-1.25,3.79,19.72,19.72,0,0,1-3.77,2.06c-6.66,2.71-13.33,5.42-20.05,8a66.19,66.19,0,0,1-9.15,2.8c-8.57,1.94-17.2,3.63-25.62,6.21-2,.61-4,1.25-5.9,2-4.2,1.58-8.38,3.09-13,2.54a15.8,15.8,0,0,0-4.75.53,124.47,124.47,0,0,1-21.84,2.65,31.53,31.53,0,0,0-3.33.41c-7.77.95-15.55,1.76-23.4,1.23-4-.26-8-.27-12-.67-4.76-.48-9.49-1.26-14.23-1.92-1.89-.26-3.78-.68-5.68-.79a47.7,47.7,0,0,1-16.12-4.26c-9.25-4-18.53-7.84-27.79-11.76-.74-.31-1.47-.63-2.19-1l-18.55-8.93a9,9,0,0,0-2.21-.92,5,5,0,0,1-4.33-4.53c-.68-5.65-3.29-10.66-4.84-16a8.91,8.91,0,0,1-.27-.92c-1.48-7.68-3.07-15.34-4.37-23.06a94.87,94.87,0,0,0-2.05-10.81c-.66-2.3-1.08-4.68-1.6-7-1.05-4.67-2.12-9.34-3.14-14a109.11,109.11,0,0,1-2.19-10.79c-1-9.09-3.48-17.88-5.34-26.79-1-4.69-2-9.38-3.17-14-.8-3.24-1.92-6.41-2.81-9.64-.8-2.93-1.57-5.87-2.22-8.83-1-4.68-2.19-9.35-2.89-14.09-1.5-10.12-3.69-20.11-5.56-30.15-1.11-6-1.62-12-3.36-17.88a15.18,15.18,0,0,1-.63-3.78c-.19-4.54-1.73-8.73-3-13-1.78-5.79-3-11.75-4.49-17.63-1.12-4.5-2.21-9-3.32-13.5a21.29,21.29,0,0,1-.66-2.79c-.71-6.89-2.92-13.39-5-19.94a43.23,43.23,0,0,1-1.62-8,9.52,9.52,0,0,0-4.16-7.21c-2.62-1.79-5.36-3.45-7.91-5.34a22,22,0,0,1-4.12-3.94,6.53,6.53,0,0,1-.93-3.13c-.16-1.26.05-2.57-.12-3.83a5,5,0,0,0-1-2.6c-1.5-1.65-1.86-3.57-2.13-5.69-.75-6-3.1-11.67-4.33-17.58a2.52,2.52,0,0,0-.36-.88c-3.79-5.7-4.59-12.56-7.33-18.66a136.63,136.63,0,0,1-5.48-15.8c-.71-2.28-1-4.68-1.5-7a89.1,89.1,0,0,0-3.85-14.3A75.82,75.82,0,0,1,601,497.63a25,25,0,0,1,.32-3.32c.11-1.2-.23-1.85-1.46-2a51.39,51.39,0,0,0-7.62-.54c-6.86.24-13.73.63-20.58,1.12a35.54,35.54,0,0,0-6.07,1.24c-2,.5-4,1.14-6,1.72Zm222.49-32.77-.14-.11c0,1.45-1.16,1.66-2.21,2.11-1.46.63-1.63,1.18-1.1,2.59.79,2.09,1.75,4.12,2.36,6.25,1.19,4.13,2.19,8.32,3.27,12.48a14.37,14.37,0,0,0,.57,1.83,1,1,0,0,0,1.52.57,4.18,4.18,0,0,0,1.15-.83c2.71-3.12,6.18-4.88,10-6.26,2.9-1,5.7-2,8.81-1.6a7.37,7.37,0,0,0,2.39-.12,15.09,15.09,0,0,1,7.09.5c5.1,1.27,10.33,2.06,15.23,4.1a.94.94,0,0,0,1.3-.93,4.23,4.23,0,0,0-.1-.94c-.65-2.34-.4-4.34,1.62-6.05a6.13,6.13,0,0,0,1.56-2.88,57.73,57.73,0,0,0,2-22.26,7.1,7.1,0,0,0-.69-2.27c-1.24-2.59-2.58-5.13-3.81-7.72-.88-1.86-1.71-3.76-2.43-5.69a62,62,0,0,0-4-9.18c-2.86-5-6-9.76-7.78-15.3a8.79,8.79,0,0,0-.85-1.71c-1.58-2.73-3.23-5.42-3.46-9-2.4,1.54-3.33,3.58-4.29,5.55-1.68,3.47-3.53,6.8-6.5,9.38-5.78,5-11.5,10.08-17.35,15-4.2,3.52-8.25,7.06-9.69,12.67-.15.61-.51,1.17-.72,1.77a30.61,30.61,0,0,0-1.88,8.86c-.11,3.34,1.11,5.91,4.24,7.39Zm62.68,471.1a45,45,0,0,0,16.31-2.4,23.27,23.27,0,0,1,6.13-.87,29.07,29.07,0,0,0,11.15-2.46A113.85,113.85,0,0,1,894,922.47c5.19-1.55,10.3-3.42,15.46-5.09a160.63,160.63,0,0,0,15.92-6.58,17.93,17.93,0,0,0,4.7-3.22c1.76-1.62,3.19-3.58,4.85-5.31a8.21,8.21,0,0,0,2.45-5,13.46,13.46,0,0,1,1-4.17c3-6.65,3.43-13.93,5.15-20.89,1-4.18,1.75-8.44,2.64-12.66.6-2.82,1.26-5.61,1.87-8.42.66-3,1.34-5.93,1.93-8.9.65-3.29,1.22-6.59,1.82-9.89.77-4.24,1.34-8.53,2.33-12.72,1.25-5.28,2.87-10.47,4.26-15.71a61.26,61.26,0,0,0,1.41-6.56c1.56-10.6,3.13-21.19,5.61-31.62,2.32-9.79,4.78-19.56,7.15-29.34.48-2,.87-4.05,1.26-6.09.35-1.88.57-3.79,1-5.66,2.89-12.94,5.79-25.88,8.3-38.91,1.42-7.36,3.59-14.57,5.41-21.86.62-2.48,1.33-5,1.78-7.46,1.75-9.91,3.66-19.8,4.57-29.84a13.61,13.61,0,0,0,.19-2.37c-.05-.57-.31-1.37-.72-1.57a2.47,2.47,0,0,0-1.77.3,5.83,5.83,0,0,0-1.93,1.38c-1.81,2.24-4.3,3.2-6.94,4a88,88,0,0,0-14.5,6.25,91.55,91.55,0,0,1-16.32,6.88,267.54,267.54,0,0,0-28,9.93,21.15,21.15,0,0,1-3.64,1.17c-4.37,1-8.75,1.91-13.14,2.78a36.87,36.87,0,0,0-9.54,3.1,22.28,22.28,0,0,1-4.46,1.7c-7.73,2-15.47,4.06-23.6,3.32a16,16,0,0,0-2.39.1c-4.62.3-9.25.57-13.87.89-12.15.84-24.28-.3-36.42-.53-1,0-1.9-.24-2.86-.33-2.38-.25-4.75-.54-7.14-.71-6.85-.5-13.71-.9-20.56-1.47-2.86-.23-5.7-.82-8.55-1.19-7.76-1-15.52-2.11-23.31-2.91-6.52-.68-13-1.28-19.36-3.19a32.94,32.94,0,0,0-7.56-1,26.32,26.32,0,0,1-8.92-1.59,10.42,10.42,0,0,0-3.26-.72,35,35,0,0,1-11.52-3,45.93,45.93,0,0,0-9-3.19,85.23,85.23,0,0,1-22.44-8.15c-4-2-8.21-3.56-12.36-5.22-1.83-.73-2.7.09-2.41,2.09a13.3,13.3,0,0,0,.27,1.4c1.75,7.14,3.35,14.31,5.28,21.39,2.16,7.86,4,15.77,5.74,23.73.91,4.17,1.43,8.53,3.92,12.27.66,1,.66,2.43.87,3.69.55,3.3.73,6.7,1.62,9.91a72.85,72.85,0,0,1,2.44,15.59,49.73,49.73,0,0,0,2.68,13.1c1.62,4.83,3.24,9.71,3.2,14.93a16,16,0,0,0,.23,2.38,217.76,217.76,0,0,0,6.34,28.52c1.52,5.2,2.67,10.52,3.81,15.83s2,10.68,3.07,16c1.72,8.46,3.52,16.89,5.28,25.34.87,4.22,1.5,8.5,2.69,12.63,1,3.4,1.73,6.8,2.37,10.26.32,1.71,1,3.35,1.49,5a34.34,34.34,0,0,1,1.1,4.64A201,201,0,0,0,715.15,893a11.27,11.27,0,0,0,1.53,4,29.74,29.74,0,0,1,3.6,7.28c1.69,4.43,5.09,7,9.33,8.3a45.28,45.28,0,0,1,8.29,3.68,30.25,30.25,0,0,0,4.35,1.95c6.48,2.27,12.9,4.71,19.62,6.21a24.32,24.32,0,0,1,3.21,1,160.6,160.6,0,0,0,21.51,6.52,143.44,143.44,0,0,0,17.86,3.3c6.83.66,13.71.71,20.58,1,2.14.1,4.05-.08,5.51-2.09a3,3,0,0,1,4.28-.7c2,1.32,4.23,1.27,6.48,1.16C842.41,934.54,843.53,934.42,844.85,934.32Zm20.37-279.54c4.46-.32,8.94-.52,13.38-1A55.61,55.61,0,0,0,894,650.44a89.65,89.65,0,0,1,11.85-3.77c5.41-1.37,10.81-2.87,16.11-4.64,10.76-3.59,21.45-7.39,32.16-11.13,1.2-.42,2.34-1,3.51-1.53l6.12-2.68c2.34-1,4.67-2,7-3.1,2-.94,3.94-2.23,6.06-2.83a20.53,20.53,0,0,0,10-6.3,14.86,14.86,0,0,1,6.76-4.37,13.45,13.45,0,0,0,3.85-1.91A50.48,50.48,0,0,1,1009,601.5a4.37,4.37,0,0,0,2.8-3.07c1.37-5.25,3-10.45,4-15.77.73-3.77,1.61-7.48,2.59-11.18,2.15-8.19,4.13-16.42,6.41-24.58,1.37-4.91,3.16-9.7,4.76-14.55a53.18,53.18,0,0,0,1.73-5.46,41.87,41.87,0,0,1,3.35-9.45,76.92,76.92,0,0,0,3.28-9,1.47,1.47,0,0,0-2.24-1.69,12.71,12.71,0,0,0-2.91,2.46c-3.22,3.83-7.19,6.79-11.09,9.85-3.64,2.85-7.17,5.85-10.81,8.71a37.47,37.47,0,0,1-4,2.58c-1.5.9-3.07,1.68-4.54,2.61a74.88,74.88,0,0,1-6.43,4.16,127.72,127.72,0,0,0-13.84,8.59,17.71,17.71,0,0,1-2.44,1.52c-4.32,1.9-7.84,4.93-11.26,8a22.43,22.43,0,0,1-6.92,4.18c-2.52,1-5,2-7.52,3.08a36.21,36.21,0,0,1-3.55,1.45c-7.68,2.23-14.74,6.21-22.54,8.11a5.65,5.65,0,0,0-.88.37,81.66,81.66,0,0,1-17.37,5.37c-6.09,1.3-12.13,2.83-18.39,3.21a13.87,13.87,0,0,0-1.88.37,89.8,89.8,0,0,1-14.73,1.78,81.7,81.7,0,0,0-9,1.32,29.19,29.19,0,0,1-4.72.55c-4.63,0-9.26-.18-13.86.64a10.63,10.63,0,0,1-3.33,0,51.74,51.74,0,0,0-13.39,0c-1.58.18-3.19.15-4.79.22-4.46.18-8.93.43-13.39.53a91.22,91.22,0,0,1-10.06-.07c-6.83-.57-13.57-2.2-20.5-1.66a4.54,4.54,0,0,1-1.42-.14A84.47,84.47,0,0,0,768.29,583c-7.94-.76-15.72-2.68-23.7-3.23a10.38,10.38,0,0,1-1.86-.42c-6.63-1.76-13.21-3.73-19.89-5.21A132.27,132.27,0,0,1,696.68,565c-7.41-3.37-15.07-6.22-22.11-10.38-5-1.5-9.24-4.32-13.58-7s-8.69-5.39-13-8.18c-4-2.6-7.93-5.34-11.93-8q-8.79-5.79-17.65-11.49c-1.16-.74-2.24-2.58-3.65-1.76-1.78,1-.27,2.86-.12,4.33a5.32,5.32,0,0,0,.52,1.33,28.2,28.2,0,0,1,2.1,9.78,39,39,0,0,0,2.56,11.64c.91,2.55,1.75,5.14,2.48,7.75,1.51,5.37,2.91,10.78,4.4,16.16.21.76.74,1.42,1,2.18,1.68,5.64,5.31,10.52,6.16,16.49.34,2.35,1.42,4.57,1.92,6.9a22.13,22.13,0,0,0,4.88,10.27c1.2,1.36,2.25,2.59,1.84,4.63-.12.58.65,1.36,1.07,2,1.31,2,3.63,2.66,5.66,3.37a45.19,45.19,0,0,1,8.36,4.29,128.75,128.75,0,0,0,18.09,8.73c2.66,1.07,5.41,1.94,8.05,3.09a55,55,0,0,0,13.23,4.11,28,28,0,0,1,4.57,1.42c3.77,1.3,7.45,3.06,11.32,3.87,6.37,1.35,12.65,3.5,19.32,3A10.24,10.24,0,0,1,735,644a164,164,0,0,0,25.63,3.46,11.26,11.26,0,0,1,3.28.53,26,26,0,0,0,8.47,1.44,25.88,25.88,0,0,1,4.25.66c4.86,1,9.7,1.81,14.73,1.33a22.34,22.34,0,0,1,6.61.77c2.82.59,5.61,1.4,8.52,1a18.13,18.13,0,0,1,7.57.73,19.84,19.84,0,0,0,4.23.79c5.1.25,10.22.31,15.32.58C844.16,655.82,854.68,655.09,865.22,654.78Zm-29.13-77.24v.05c3.35,0,6.71,0,10.07,0a41.77,41.77,0,0,0,9.52-.86,37.52,37.52,0,0,1,8.54-1c5.23.11,10-2.12,15.08-2.5a1.08,1.08,0,0,0,.45-.17c.76-.4,1.29-1,1-1.9a21.32,21.32,0,0,0-4.87-9.24,73,73,0,0,0-6.25-5.94,27,27,0,0,0-15.79-6.21,53.17,53.17,0,0,0-14.28,1.39c-4.23.85-8.38,2.08-12.62,2.89-6.91,1.31-13.84,2.07-21,1.2-5.88-.71-10.51-3.57-14.91-7.07-3.23-2.58-3.94-6.46-4.7-10.2-.3-1.47,1.21-2.75,2.7-2.72a5.59,5.59,0,0,1,5.13,3.57c.48,1.16.84,2.54,1.71,3.32,4,3.6,8.5,6.24,14.12,6.15,1.76,0,3.51-.18,5.26-.26,6.6-.3,12.95-2.12,19.28-3.65a88.76,88.76,0,0,1,18.53-2,26.27,26.27,0,0,1,12.56,2.6,40.86,40.86,0,0,0,4.45,1.78,1.54,1.54,0,0,0,1.29-.16,1.46,1.46,0,0,0,.22-1.27c-1.18-3.65-2.16-7.39-3.69-10.89-2.11-4.81-4.4-9.54-8-13.58a38.55,38.55,0,0,1-4.36-6.86,27.45,27.45,0,0,0-7.59-9.13,24.47,24.47,0,0,1-3.58-3.16A32.81,32.81,0,0,0,834,494.27a91.28,91.28,0,0,0-14.8-5.55,40.76,40.76,0,0,0-11.83-1.62,22.81,22.81,0,0,0-11.24,3.75,9.59,9.59,0,0,0-3.72,4.29c-1.28,2.75-2.59,5.48-2.77,8.61a3.31,3.31,0,0,1-2.8,3.42c-2.24.35-3.26,1.8-3.94,3.72-2.59,7.37-7.65,13.22-12.1,19.44a5.79,5.79,0,0,1-2.7,1.8,3.56,3.56,0,0,1-4.17-1.59,3.19,3.19,0,0,1,0-4c.45-.66,1-1.29,1.43-1.92,2.24-2.92,4.46-5.84,6.72-8.74a24.09,24.09,0,0,0,5.12-13.69c.16-2.87.41-5.75.42-8.62a42.12,42.12,0,0,0-4-18.55c-2.14-4.47-4.59-8.78-6.82-13.2a69.41,69.41,0,0,0-8.93-13.56c-2-2.33-3.82-4.72-5.72-7.08-.78-1-1.28-2.53-2.72-2.44-1.76.12-1.86,1.92-2.38,3.2a6.68,6.68,0,0,0-.35,1.4c-.69,4-2.63,7.53-4.76,10.9-1.79,2.82-4,5.39-5.78,8.2-2.58,4-5,8.18-7.44,12.29-4.33,7.2-6,15.13-5.86,23.4a80.46,80.46,0,0,0,1.26,10,2.46,2.46,0,0,1-2.65,3.07,3.75,3.75,0,0,1-3.49-2.14c-1.52-3-2.78-6.08-2.37-9.62a34.32,34.32,0,0,0-.08-4.75,27,27,0,0,1,0-3.81,49,49,0,0,1,4.49-15.56c2.07-4.3,4.57-8.4,6.83-12.61a31.55,31.55,0,0,1,4-6c4.25-4.86,7.69-10.21,8.88-16.7.8-4.38,1.77-8.76,1.47-13.26-.24-3.65-.22-7.33-2-10.75-.76-1.47.34-3.71,1.8-4.49a3.83,3.83,0,0,1,4.7,1.24,14.48,14.48,0,0,1,1.36,3.06c.59,1.82,1.09,3.67,1.59,5.52a22.89,22.89,0,0,0,4.13,8.57c2.19,2.72,4.51,5.34,6.56,8.19,1.58,2.2,3.28,4.33,5.06,6.37,2.13,2.45,3.08,2.26,4.3-.63,2.56-6,4.94-12.17,10.48-16.32a3.69,3.69,0,0,0,1.09-2.5,32.3,32.3,0,0,0-3.45-16.7c-2.52-5-5.2-9.9-7.85-14.81a19.45,19.45,0,0,0-2.81-4.44c-5.64-5.65-11.34-11.24-17.17-16.69a30.94,30.94,0,0,0-15.14-7.82,62.71,62.71,0,0,1-19.55-7.64A11.32,11.32,0,0,0,712,356a1.73,1.73,0,0,0-2.23,1.24,30.61,30.61,0,0,0-.42,3.81c-.15,3.35,0,6.73-.38,10.06-.64,6-1.72,12-2.3,18a111.49,111.49,0,0,0-.36,12.93c0,2.79.92,5.27,4.11,6.33a2.6,2.6,0,0,1,1.62,3.9c-1.22,2.49-.38,4.1,1.18,6,2.57,3.05,5,6.26,7.35,9.45a5.89,5.89,0,0,1,.33,7.11c-.89,1.17-2.27,1.52-3.32.54a25.89,25.89,0,0,1-3.72-4.31,51.88,51.88,0,0,0-16.63-16.23c-10.33-6.11-20.68-12.11-32-16.31-7.8-2.91-15.66-5.6-23.94-6.8a61.1,61.1,0,0,0-6.2-.44,1.06,1.06,0,0,0-.62,1.94,49.48,49.48,0,0,1,9.87,8.2c.21.23.56.33.78.56,1.68,1.71,3.4,3.38,5,5.17,1.27,1.42,2.33,3,3.53,4.5,4.09,5.11,8.46,10,11.9,15.59,1,1.61,2.15,3.41,2.26,5.18a5.32,5.32,0,0,0,2.94,4.54c1.21.77,2.46,1.5,3.69,2.23,3.57,2.11,7.23,4.08,10.69,6.35s6.47,4.68,9.69,7a3.28,3.28,0,0,1,.69.65,4.19,4.19,0,0,1,.44,4.1c-.44,1.16-2.26,1.92-3.7,1.58a7.63,7.63,0,0,1-2.22-.88,27.81,27.81,0,0,1-4.3-3,38.71,38.71,0,0,0-7.89-5.4,75.64,75.64,0,0,1-7.07-4.05c-7.71-5.51-16.66-8-25.51-10.73-4.88-1.48-9.92-2.45-14.9-3.6a30.05,30.05,0,0,0-3.79-.53c-2.7-.26-5.41-.5-8.12-.68a29.85,29.85,0,0,0-5.74-.16,80.94,80.94,0,0,0-8.4,1.78c-.31.07-.58.67-.69,1.07,0,.18.31.53.56.71a6.09,6.09,0,0,0,1.23.72c5.27,2.28,10.56,4.53,15.82,6.83a26.31,26.31,0,0,1,8.79,5.71,26.3,26.3,0,0,0,6.41,5c6.59,3.67,11.53,9,15.54,15.29a6.94,6.94,0,0,1,1.3,2.53c.42,3.6,2.83,6.4,3.75,9.8a6,6,0,0,0,4.27,4.15c3.63,1.22,7.18,2.69,10.78,4,7.6,2.77,12.5,8.69,17.06,14.89,1.61,2.19,2.83,4.42,5.56,5.6,2.41,1,2.56,2.5,1.12,4.62a12.36,12.36,0,0,1-1.49,1.87,2.92,2.92,0,0,1-3.56.43c-1.95-1.37-4.14-2.84-4.6-5.26a13.14,13.14,0,0,0-2.7-5.5c-3.85-5.15-8.08-9.8-14-12.8-3.06-1.55-6.29-2.24-9.42-3.39-8.89-3.29-18.18-4.94-27.4-6.88a13.7,13.7,0,0,0-3.33-.1c-4,.18-8,.62-12,.56-6.75-.11-13.35,1.12-20,2-2.31.29-4.51,1.47-6.74,2.3-.15.05-.17.54-.19.84a.47.47,0,0,0,.3.3c1.26.14,2.52.22,3.78.38a42.54,42.54,0,0,1,5.67.82c5.7,1.52,11.32,3.39,17.06,4.77,6.31,1.52,11.8,4.82,17.57,7.54a13.58,13.58,0,0,1,1.91,1.43c2.82,2.1,5.54,4.34,8.84,5.71a5.12,5.12,0,0,1,1.95,1.34c4.54,5.54,10.82,9.44,14.76,15.55,2.48,2,3.8,4.75,4.78,7.62a8.43,8.43,0,0,0,4.28,4.9,47,47,0,0,1,6.13,3.72,48.19,48.19,0,0,0,8.26,4.83c3.88,1.88,7.81,3.68,11.69,5.55,6.78,3.25,13.56,6.46,21.17,7.43A23.4,23.4,0,0,1,724,560.3c2.22.88,4.37,2,6.6,2.84,3.44,1.3,6.86,2.66,10.39,3.65,7.84,2.21,15.73,4.23,23.61,6.3a79.89,79.89,0,0,0,9.3,2.3c4.74.65,9.53,1,14.31,1.25,5.1.28,10.23.6,15.33.4a122.17,122.17,0,0,1,18.64.4C826.78,578,831.46,577.54,836.09,577.54ZM999.45,450.2c-3.67.28-7.35,0-10.76,2a9.55,9.55,0,0,1-4.18.72,11.1,11.1,0,0,0-7.34,3.09A34.2,34.2,0,0,0,969,467.65c-2.85,6.63-4.37,13.67-5.69,20.73-.56,3-.61,6.07,1.85,8.54a4.44,4.44,0,0,1,1.23,3.52,2.37,2.37,0,0,1-2.58,2.24c-1.31-.12-7.31-4.17-7.68-5.32a10.77,10.77,0,0,1-.44-2.82c0-1.27.24-2.58.07-3.82-.5-3.43.22-6.66,1.16-9.91.71-2.45,1.24-5,1.73-7.46.29-1.45-.66-2.19-2-1.59a25.67,25.67,0,0,0-12.56,12,57.86,57.86,0,0,0-5.29,14.36c-.71,3.44-1.57,6.85-2.42,10.26a18.14,18.14,0,0,1-1.29,4.1c-2.86,5.36-5.77,10.69-8.83,15.93a16.7,16.7,0,0,1-3.49,3.89,75.86,75.86,0,0,1-12,8.67c-2.07,1.2-4,2.57-6,3.92a39.28,39.28,0,0,1-17.26,6.7c-.79.11-1.61.08-2.38.26-4.41,1-5.18,3.51-2.36,6.31a21,21,0,0,1,4.88,8.14c.27.75.57,1.49.87,2.23.85,2.08,1.15,2.42,3.1,2.21,6.83-.74,13.66-1.47,20.17-4,7-2.69,14.09-5.18,21.14-7.78a20.48,20.48,0,0,0,2.65-1.09c4.25-2.22,8.45-4.52,12.71-6.72a23.39,23.39,0,0,0,7-4.89,11.35,11.35,0,0,1,3.12-2.18c6.27-3.35,11.88-7.45,15.94-13.42.45-.65,1.1-1.16,1.61-1.77,3.85-4.67,8.09-9,11.21-14.29a49.35,49.35,0,0,1,6.52-8.81A57.34,57.34,0,0,1,1012.54,493c3.36-1.47,6.78-3.21,10.34-3.73,6.43-.93,12.85-2.87,19.49-1.57a1.39,1.39,0,0,0,1.18-.53,1.45,1.45,0,0,0-.12-1.29q-3.06-4.29-6.23-8.48a14.76,14.76,0,0,0-2.35-2.39,25.9,25.9,0,0,1-5.89-6.9,47.86,47.86,0,0,0-10.67-12.2,21.35,21.35,0,0,0-11.21-5C1004.54,450.56,1002,450.42,999.45,450.2Zm-77.4,18.12v-.24c-5.27,0-10.54.08-15.81,0a31.23,31.23,0,0,0-11.33,1.49c-3.61,1.3-7.18,2.67-10.79,3.95-5.92,2.1-10.24,6.34-14.47,10.7a8,8,0,0,0-1.13,1.53A37.7,37.7,0,0,0,863,503.37a7.16,7.16,0,0,1-.87,3.62,3.66,3.66,0,0,0-.12,4.38c1.22,2.25,2.26,4.56,4.4,6.17a7.66,7.66,0,0,1,2.19,2.52c2.09,4.13,4.91,7.85,6.49,12.26,1.07,3,2.46,5.89,3.71,8.82a4.24,4.24,0,0,0,3.65,2.72,19.72,19.72,0,0,0,3.34.21,29.56,29.56,0,0,0,12.3-3.68,142.36,142.36,0,0,0,12.54-7.94c5.53-3.88,10.46-8.39,13.32-14.73a30,30,0,0,1,1.6-3c2.19-3.76,4.08-7.6,4.2-12.09a8.3,8.3,0,0,1,.57-2.32c1.85-5.43,3.06-11,5.61-16.28a54.13,54.13,0,0,1,6.89-11.43c.76-.91,2.38-1.77,1.43-3.14-.47-.67-2-.65-3-.87a6.91,6.91,0,0,0-1.44,0ZM837,486.7a18.37,18.37,0,0,0,1.67,1.34,55.22,55.22,0,0,1,12.57,10.27,8.12,8.12,0,0,0,1,1c2.2,1.85,3.31,1.58,4.09-1.07.63-2.14,1.3-4.29,1.74-6.48A28.19,28.19,0,0,1,870,473.86c2.22-1.57,4.51-3.06,6.6-4.77a21.13,21.13,0,0,1,5-2.83c6.46-2.94,13.4-4.18,20.27-5.63a18.39,18.39,0,0,1,5.24,0c4.67.43,5.17.15,5.7-4.64.62-5.65.31-11.13-2.8-16.2-1.75-2.86-3-6-4.65-8.93a28.69,28.69,0,0,0-2.94-4.33c-3.13-3.83-6.4-7.55-9.51-11.4a47.66,47.66,0,0,1-4.11-5.88c-2.38-4.14-5.19-8.06-6.61-12.7a3.61,3.61,0,0,0-.42-.86,1.51,1.51,0,0,0-2.1-.37c-1.91,1.51-3.67,3.13-3.47,5.9.19,2.61-1,3.66-3.69,3.94a2.58,2.58,0,0,1-.48,0c-2.15-.17-3.56,1-4.85,2.55-3.13,3.84-6.46,7.52-9.51,11.42-4.82,6.14-8.22,12.91-8.51,20.94-.1,2.87-.41,5.73-.61,8.6-.1,1.29-.1,2.81-1.27,3.47-2.41,1.37-2.5,3.34-2.23,5.72a24.4,24.4,0,0,1-.17,5.26c-.68,6.54-2.52,12.83-4.28,19.13a8.71,8.71,0,0,1-1.84,2.73A20.35,20.35,0,0,1,837,486.7ZM985.38,437a23.51,23.51,0,0,0-.85-3.31c-1.62-4-3.34-7.93-5-11.9-.68-1.62-1.28-3.26-1.93-4.88-1.91-4.73-3.6-9.56-5.82-14.13a38.68,38.68,0,0,1-3.21-9c-.23-1.09-.36-2.2-.66-3.27a1.64,1.64,0,0,0-2.23-1.21,66.41,66.41,0,0,0-5.95,3c-2.06,1.2-4,2.66-6.05,3.84a24,24,0,0,0-5.66,4.36,15.93,15.93,0,0,1-4.36,3.66c-5.28,2.52-8.66,6.95-12,11.39a26.19,26.19,0,0,0-5,9.23c-1.71,6.8-3.23,13.66-4.69,20.52-.5,2.33,0,4.3,2.68,5.37,2.17.85,2.53,2,2,4.21-.3,1.23-.85,2.4-1.23,3.61a1.44,1.44,0,0,0,1.11,1.8,24.53,24.53,0,0,0,3.32.3c3.67.08,7.35,0,11,.19a34,34,0,0,0,7.61-.36c2.92-.47,5.59-.91,7-4,.61-1.3,2.72-1.29,3.78-.19a21.9,21.9,0,0,1,1.92,2.7c1,1.35,2.09,1.46,3.11.22a52.24,52.24,0,0,0,5-6.37,11.92,11.92,0,0,1,4.84-4.47,28.8,28.8,0,0,1,5.77-2.22,5.88,5.88,0,0,0,4.49-4.47C984.8,440.06,985.07,438.49,985.38,437Zm-144.1,2.88a14.64,14.64,0,0,0,.88-2.18c.46-2,.78-4.08,1.25-6.1.86-3.75,1.87-7.52,4.08-10.69,2.83-4,5.93-7.91,9.07-11.72C860,405,863.7,401,867.21,396.83a11.8,11.8,0,0,0,2.43-11.22A43.07,43.07,0,0,0,865.4,375c-3.11-5.22-6.07-10.51-9.19-15.71a19.59,19.59,0,0,1-2.67-8.12,65.11,65.11,0,0,0-1.22-7.06,3,3,0,0,0-1.38-1.8c-.88-.42-1.31.5-1.78,1.14-.95,1.29-1.91,2.57-3,3.77A143,143,0,0,1,831,362.39a25.49,25.49,0,0,0-8.51,13c-.85,3.22-1.48,6.44.4,9.73a16.92,16.92,0,0,1,1.93,6.37,38.78,38.78,0,0,1-.16,7.61,4.13,4.13,0,0,1-1.22,2.47c-1.51,1.38-1.3,2.71-.42,4.27,2.65,4.73,5.25,9.5,7.88,14.24a12.28,12.28,0,0,0,1.07,1.59,28.86,28.86,0,0,1,4.49,9.47c.42,1.38.83,2.76,1.27,4.13A7.5,7.5,0,0,0,841.28,439.84Zm-64.82-51.41c-.2,3.34-.22,3.35.63,5.19.6,1.31,1.18,2.63,1.89,3.87,3.44,6,5.67,12.46,8,18.89.8,2.2,1.41,2.46,3.47,1.13a20.56,20.56,0,0,0,3.87-2.8c4.45-4.73,9.29-9.12,11.64-15.56,1.16-3.17,2.55-6.13,2.49-9.6a12.08,12.08,0,0,1,3.42-8.67c.11-.11.19-.26.31-.36,2-1.64,2.53-3.92,2.95-6.34a24.47,24.47,0,0,1,1.54-4.48c.29-.73.83-1.36,1.15-2.09a3.45,3.45,0,0,0-.23-3.63c-.57-.78-1.08-1.59-1.67-2.34q-7-8.77-14-17.54c-2.09-2.62-4-5.35-6.17-7.9-2.61-3.1-3.53-2.94-5.31.75-1.65,3.45-3.08,7-4.84,10.41-2.7,5.23-5.55,10.4-8.43,15.54a22.38,22.38,0,0,0-2.45,13.88c.38,3.32,1.12,6.59,1.65,9.89A11.48,11.48,0,0,1,776.46,388.43Zm169.08-1.21c-.09-6.38-1.6-11.12-2.88-15.87-1.21-4.45-2.86-8.79-4.35-13.16a42.59,42.59,0,0,0-1.77-4.43c-.42-.89-1.28-.85-2-.42a6.85,6.85,0,0,0-1.53,1.14c-4,3.95-8.86,6.74-12.8,10.75-2.54,2.58-5.81,4.43-8.69,6.7-3.13,2.46-6.54,4.69-8.73,8.1-3.46,5.41-6.2,11.15-6.73,17.71a4.84,4.84,0,0,1-.92,2.66c-1.46,1.68-1,3.22,0,4.81a26,26,0,0,0,2.11,3.17c3.39,4,6.84,8,10.24,12a24.18,24.18,0,0,1,2.32,3c1.49,2.45,2.82,5,4.33,7.44a3.25,3.25,0,0,0,1.82,1.21c.25.07.93-.8,1.1-1.34.75-2.27,1.34-4.6,2-6.88a47.05,47.05,0,0,1,14.5-22.68,17,17,0,0,0,3.21-3.52,7.23,7.23,0,0,1,3.59-3A7.8,7.8,0,0,0,945.54,387.22ZM613.77,495.84c-1,0-1.39.85-1,1.45.75,1.22,1.85,2.39,1.26,3.93-1.1,2.89.68,4.67,2.5,6.15,4.69,3.81,9.54,7.45,14.38,11.08,2.8,2.11,5.67,4.11,8.57,6.09q5.32,3.63,10.75,7.12c1.88,1.2,3.83,2.28,5.79,3.32,2.12,1.11,4.3,2.12,6.47,3.13.23.11.58-.05.87-.09a3.11,3.11,0,0,0-.27-1.19,2.94,2.94,0,0,0-1.13-.83c-3.51-1.53-4.56-5.11-6.61-7.86-1.28-5.48-4.87-9.2-9.32-12.29a36.6,36.6,0,0,1-5.26-4.14c-6.4-6.5-14.31-10.64-22.35-14.59a22.33,22.33,0,0,0-3.62-1.22A3,3,0,0,0,613.77,495.84ZM891.21,385.15c-.23-.27-.35-.51-.43-.5-.3.05-.77.11-.84.29A25.7,25.7,0,0,0,889,388c0,.14.36.53.59.56a.88.88,0,0,0,.74-.39C890.69,387.17,891,386.1,891.21,385.15Zm73.63,163.1c1.13-.73,2.27-1.44,3.38-2.2.19-.13.22-.5.33-.76-.28-.08-.61-.31-.82-.22A4.19,4.19,0,0,0,964.84,548.25Z" transform="translate(-559.46 -311.61)"/>
    <path d="M1031.55,455.51a31.36,31.36,0,0,1,3.21.62c.9.27,1.71,1,2.61,1.11,3.64.41,5.9,2.77,8.2,5.26a78.53,78.53,0,0,0,6.16,5.94,8.17,8.17,0,0,1,3.07,7.13c-.13,1.74-.34,3.47-.64,5.19-.13.79-.92.88-1.51.6-2.25-1.1-2.87-2-2.35-4.5a5.16,5.16,0,0,0-1.85-5.48,56.6,56.6,0,0,1-4.67-4.75,20.6,20.6,0,0,0-7.11-5.43c-2.45-1.05-4.66-2.74-5-5.81Z" transform="translate(-559.46 -311.61)"/>
    <path d="M1031.66,455.39l-.36-.05.25.17Z" transform="translate(-559.46 -311.61)"/>
    <polygon points="0.14 184.25 0 184.17 0.22 184.38 0.14 184.25"/>
    <path d="M973.37,468.44l-.55.5a5.34,5.34,0,0,1-.4-.57s.21-.25.28-.23A3.62,3.62,0,0,1,973.37,468.44Z" transform="translate(-559.46 -311.61)"/>
    <path d="M782.17,463.22l-.14-.11Z" transform="translate(-559.46 -311.61)"/>
  </g>
</svg>
