<svg xmlns="http://www.w3.org/2000/svg" viewBox="0 0 540 530.24">
  <g>
    <path d="M329.15,616.52c2.17,1,2.86,1.19,3.44,1.57,16,10.48,31.81,21.41,48.17,31.37,23.87,14.52,48.12,28.43,72.3,42.44,15.8,9.15,31.47,18.64,47.89,26.52,3.71,1.78,10.95-1.45,15.49-4.17,32.08-19.23,63.87-39,95.79-58.46,18.52-11.31,37.15-22.44,55.61-33.85,2.44-1.51,3.88-4.63,6.31-6.17,1.77-1.11,4.93-1.85,6.59-1q18.91,9.6,37.45,20c32.67,18.39,65.22,37,97.86,55.47,14.7,8.31,29.62,16.24,44.13,24.87,1.88,1.12,2.66,5.41,2.59,8.19-.26,10.32-1.54,20.61-1.64,30.92-.46,45.3-.94,90.6-.83,135.9.1,44.66.86,89.32,1.43,134q.63,50.07,1.54,100.12c.06,3,1.43,6,1.05,8.88-.29,2.24-2.34,4.25-3.62,6.36-1.68-1.06-3.38-2.09-5-3.18-4.86-3.2-9.56-6.69-14.58-9.61-17.44-10.14-35-20.11-52.51-30.09-17.22-9.81-34.5-19.52-51.7-29.36-13.53-7.75-26.86-15.84-40.55-23.27-2.42-1.31-6.6-1.05-9.28.1-11.62,5-23.43,9.73-34.34,16-21,12.11-41.33,25.33-62.1,37.82-13.83,8.32-28.06,16-41.89,24.3-11.33,6.82-22.08,14.62-33.61,21-3.27,1.82-9.35,2-12.5.1-25.07-14.82-49.62-30.51-74.58-45.52-18-10.83-36.4-21-54.57-31.53-12.89-7.47-25.88-14.79-38.38-22.86-2.66-1.72-4.76-6.39-4.83-9.74-.69-37.76-.91-75.54-1.32-113.31q-.54-48.69-1.21-97.39c-.31-24-.5-48-1-72-.64-32-1.57-64-2.22-96-.22-10.63-.2-21.28.32-31.89C325,620.8,327.68,618.65,329.15,616.52ZM683,1010.41c0-4-.07-9.1.06-14.19,0-.91.83-1.81,1.28-2.72.44.89,1.25,1.78,1.27,2.69.23,8.64-.09,17.31.66,25.9.3,3.51,1.93,8.09,4.55,10a319.71,319.71,0,0,0,27.86,17.55q33.13,19,66.56,37.57c21.6,12,43.37,23.64,65,35.51,3.6,2,5.09,1,5.09-2.92,0-25,0-49.93,0-74.9q-.08-24.45-.43-48.88c-.49-39.5-1.14-79-1.53-118.49-.48-47.67-.68-95.34-1.17-143-.06-6.54.74-13.46-6.87-17.58-12.14-6.58-23.9-13.85-35.88-20.72q-43.11-24.74-86.27-49.35c-11.76-6.7-23.67-13.12-35.51-19.69-4.45-2.47-6.51-.71-6.68,3.9-.23,6.09,0,12.2-.51,18.26-.15,1.93-1.92,3.73-3,5.59-1-1.83-2.74-3.59-2.94-5.51-.48-4.6.13-9.32-.53-13.87-.2-1.35-3.62-3.59-4.79-3.19-3.78,1.31-7.24,3.58-10.75,5.61-16.72,9.65-33.66,18.95-50.07,29.1-27.65,17.11-54.82,35-82.49,52.08-10.64,6.58-21.65,12.14-19.5,27.5a21.15,21.15,0,0,1,.12,6.25c-.23,1.47-1.37,2.8-2.11,4.19-.84-1.28-2.25-2.5-2.39-3.86-.36-3.24.58-6.74-.26-9.78-1.65-6-2.55-13.59-6.67-17.32-7.19-6.51-16.55-10.64-25-15.73-16.68-10-33.29-20.12-50.07-29.92-27-15.77-54.09-31.34-81.18-46.93a29.86,29.86,0,0,0-5.42-1.87c-.44,1.88-1.28,3.77-1.26,5.65q.41,42.59,1,85.15c.54,34.3,1.44,68.59,1.79,102.89.27,25.46-.3,50.92-.1,76.38.18,22.69.83,45.39,1.39,68.08q.79,31.62,1.94,63.23a7.1,7.1,0,0,0,2.83,5c13.32,8.28,26.79,16.31,40.23,24.41q21.42,12.91,42.86,25.82,26.79,16,53.62,32,11.25,6.66,22.75,12.9c1.07.57,4.08,0,4.12-.31.61-4.63,1-9.31,1.18-14,.23-5.16.15-10.34.47-15.49.06-.82,1.51-1.56,2.32-2.34.5,1,1.39,1.92,1.42,2.89.25,8.17.25,16.35.5,24.51.14,4.29,2,5.32,5.94,3,25.1-14.57,50.27-29,75.39-43.54,12.58-7.28,25.28-14.4,37.61-22.11,16.71-10.45,33.15-21.36,49.6-32.23a6.55,6.55,0,0,0,2.27-4.3C682.07,1023.4,682.44,1017.45,683,1010.41Z" transform="translate(-324.39 -614.4)"/>
    <path d="M675.86,698.41c0-4.9-.19-9.8.14-14.67.09-1.27,1.83-2.43,2.81-3.63.88,1.18,2.47,2.34,2.53,3.57.42,9.13.76,18.29.56,27.43,0,1.75-2.52,3.45-3.88,5.17-.88-1.79-2.34-3.52-2.51-5.37-.39-4.13-.12-8.33-.12-12.5Z" transform="translate(-324.39 -614.4)"/>
    <path d="M677.64,819.94c0-4.91-.13-9.83.12-14.72,0-1.12,1.46-2.17,2.25-3.24,1,1,2.65,2,2.73,3.15.66,9.24,1.2,18.49,1.3,27.75,0,1.59-2.21,3.21-3.4,4.81-1-1.64-2.69-3.22-2.87-5C677.35,828.51,677.64,824.21,677.64,819.94Z" transform="translate(-324.39 -614.4)"/>
    <path d="M680.4,953.68c0-8.6-.08-17.2.09-25.8,0-1,1.35-2,2.07-3,.72,1,2,2,2.09,3,.8,9.3,1.61,18.63,1.82,28,0,1.52-2.87,3.11-4.42,4.67L679.23,954Z" transform="translate(-324.39 -614.4)"/>
    <path d="M686.35,891.59l-4.58,5.07c-1.11-2.08-3.15-4.15-3.18-6.24-.13-8.35.29-16.71.74-25,.06-1.2,1.39-2.33,2.13-3.49.92,1.15,2.6,2.28,2.63,3.46.23,8.43.12,16.88.12,25.32Z" transform="translate(-324.39 -614.4)"/>
    <path d="M509.15,920.79c0,4.8.23,9.62-.14,14.4-.11,1.44-1.85,2.76-2.85,4.13-1.07-1.25-3.07-2.49-3.07-3.74,0-9,.32-18,.75-27,.06-1,1.45-2,2.22-3,.74,1,2,1.92,2.13,3,.46,4.05.55,8.15.78,12.22Z" transform="translate(-324.39 -614.4)"/>
    <path d="M503.11,882.26c0-8.54-.1-15.15.11-21.75,0-1,1.54-1.85,2.37-2.77.86.9,2.39,1.76,2.46,2.72.48,6.67.85,13.38.77,20.07,0,1.39-2.06,2.75-3.17,4.13Z" transform="translate(-324.39 -614.4)"/>
    <path d="M686.4,770.75c-2.33.64-4.75,2-6.95,1.66-1.31-.19-3.21-2.94-3.2-4.53,0-6.85.62-13.7,1.23-20.53.1-1.08,1.38-2.06,2.12-3.08.64,1.07,1.74,2.11,1.84,3.23.55,6.6.87,13.23,1.26,19.84Q684.54,769.05,686.4,770.75Z" transform="translate(-324.39 -614.4)"/>
    <path d="M509.15,1019.26a111.29,111.29,0,0,1,.44,12c-.1,1.62-1.78,3.15-2.74,4.72-.92-1.51-2.58-3-2.63-4.53-.24-7-.16-14.07.11-21.09.06-1.49,1.35-2.94,2.07-4.4.92,1.45,2.41,2.82,2.63,4.38A60.92,60.92,0,0,1,509.15,1019.26Z" transform="translate(-324.39 -614.4)"/>
    <path d="M507.68,784.24c0,3.44.19,6.9-.12,10.31-.09,1.06-1.55,2-2.39,3-1-1-2.81-2-2.82-3-.06-7,.17-13.95.56-20.91.06-1,1.49-1.93,2.29-2.89.81,1.06,2.22,2.06,2.32,3.18.31,3.42.11,6.88.11,10.33Z" transform="translate(-324.39 -614.4)"/>
    <path d="M508.76,826.42c0,2.9.36,5.86-.16,8.67-.25,1.32-2.2,2.33-3.38,3.48-.88-1.17-2.49-2.32-2.52-3.52-.17-5.79-.06-11.59.29-17.37.08-1.26,1.6-2.43,2.46-3.64.95,1.22,2.53,2.36,2.73,3.7.43,2.84.13,5.78.13,8.68Z" transform="translate(-324.39 -614.4)"/>
    <path d="M509.25,1063.14c.56,3.93,1.27,7.85,1.59,11.79.11,1.27-.8,2.62-1.24,3.93-1.53-.63-4.38-1.22-4.39-1.88-.15-7,.11-13.93.41-20.89,0-.48,1.39-1.34,2-1.24a2.65,2.65,0,0,1,1.74,1.75c.36,2.12.37,4.31.52,6.47Z" transform="translate(-324.39 -614.4)"/>
    <path d="M508.76,964.8c.22,4.42.66,8.85.51,13.26,0,1.23-1.84,2.41-2.84,3.61-1-1.06-3-2.13-3-3.17.11-6.33.58-12.67,1.18-19,.11-1.15,1.4-2.18,2.15-3.26a17.49,17.49,0,0,1,1.83,3.64,28.19,28.19,0,0,1,.33,4.88Z" transform="translate(-324.39 -614.4)"/>
  </g>
</svg>
