<svg xmlns="http://www.w3.org/2000/svg" viewBox="0 0 540 530.76">
  <g>
    <path d="M26.92,11.2a27,27,0,0,1,3.54,1.39C46.42,23,62.1,34,78.39,43.89c24,14.62,48.46,28.59,72.82,42.69,15.73,9.11,31.61,18,47.45,26.89,6.94,3.91,11.46-2,16.18-4.78,19.74-11.77,39-24.36,58.65-36.26C293.85,60.11,314.54,48.34,335,36.12,345.56,29.78,355.9,23,366.35,16.4a7.25,7.25,0,0,0,2.58-2c5.82-10.5,13.09-4.72,19.35-1.21,23.28,13.05,46.26,26.65,69.44,39.89Q494,73.79,530.35,94.18c9.27,5.21,18.88,9.83,27.89,15.44,1.93,1.2,2.76,5.51,2.69,8.36-.24,10.6-1.54,21.17-1.6,31.76-.29,61.53-.59,123.05-.4,184.57.12,38.22,1.11,76.43,1.66,114.65.33,23.1.52,46.2.89,69.3,0,3.06,1.39,6.19,1,9.16-.28,2.35-2.23,4.5-3.44,6.74-1.75-1.09-3.53-2.12-5.24-3.26-4.55-3-8.93-6.35-13.64-9.09-17.7-10.25-35.5-20.34-53.28-30.45-17.31-9.85-34.67-19.6-52-29.49-13.45-7.7-26.7-15.77-40.33-23.14-2.48-1.35-6.75-1.09-9.51.07-11.14,4.68-22.47,9.24-32.9,15.27-21.61,12.49-42.61,26-64,38.9-20.6,12.37-41.42,24.38-62.08,36.67-4.43,2.64-8.25,6.68-13,8.37-3.84,1.37-9.54,1.81-12.78-.11-25.08-14.83-49.58-30.64-74.61-45.54-27.12-16.14-54.67-31.54-81.92-47.47-6.68-3.9-15.21-6.52-15.72-16.32-.37-7.12-.16-14.27-.28-21.41-.43-27.92-1-55.84-1.31-83.77-.39-34.47-.51-68.95-.86-103.43-.21-20.83-.63-41.66-1-62.49Q23.74,100.74,22.78,44c-.14-8.73-.4-17.47.07-26.17C23,15.51,25.55,13.32,26.92,11.2ZM381.23,405.47c0-4.26-.07-9.44.06-14.62,0-.86.9-1.71,1.39-2.57a7.92,7.92,0,0,1,1.1,2.57c.2,8.73-.12,17.5.61,26.19.29,3.42,1.93,8,4.52,9.73,10.78,7.18,22.09,13.59,33.34,20.06q38.29,22.05,76.75,43.85c15.76,8.88,31.81,17.26,47.61,26.08,5.95,3.31,7.33,1.17,7.27-4.71-.25-27.07-.23-54.16-.49-81.23-.52-52.63-1.24-105.25-1.74-157.88-.45-48.15-.67-96.29-1.15-144.44-.06-6.5.33-13.14-7.17-17.17-14-7.52-27.64-15.75-41.44-23.68Q461.65,64.51,421.36,41.4c-11.83-6.76-23.83-13.24-35.76-19.82-4.11-2.26-6.27-.71-6.45,3.7-.27,6.55-.13,13.12-.58,19.65-.11,1.57-1.87,3-2.86,4.54-1-1.56-2.8-3.06-2.95-4.7-.43-4.88.13-9.87-.51-14.7-.18-1.34-3.68-3.63-4.79-3.21a90.56,90.56,0,0,0-14,7C332.23,46.47,311,59.06,290,72.06q-35.91,22.26-71.35,45.31c-4.85,3.15-10.23,7.11-12.58,12s-.94,11.42-1.52,17.2c-.17,1.75-1.45,3.39-2.22,5.09-.75-1.65-1.94-3.24-2.14-4.95-.36-3,.55-6.19-.24-9-1.71-5.93-2.6-13.36-6.67-17.07-7-6.36-16.1-10.35-24.35-15.3-16.84-10.1-33.62-20.32-50.57-30.22C91.29,59.36,64.1,43.74,36.92,28.09a34.4,34.4,0,0,0-5.39-2c-.47,2-1.36,3.93-1.34,5.9q.39,42.59,1,85.18c.54,34.32,1.43,68.63,1.78,102.94.27,25.47-.3,50.94-.1,76.4.18,22.71.83,45.41,1.4,68.11q.78,31.64,1.94,63.25a7.14,7.14,0,0,0,2.86,5c13.4,8.34,27,16.43,40.46,24.58q21,12.65,42,25.25,27.13,16.26,54.33,32.43,11.25,6.67,22.76,12.89c1.08.59,4.11,0,4.15-.26.62-4.55,1-9.13,1.2-13.72.24-5.16.12-10.34.44-15.49.06-.9,1.52-1.72,2.33-2.58.47,1,1.32,2,1.36,3,.3,8.35.28,16.72.89,25,.07.95,4.09,2.89,5.15,2.31,16.15-8.84,32.24-17.83,48.11-27.17q34.5-20.31,68.66-41.18c15.59-9.54,30.91-19.52,46.25-29.46a6.54,6.54,0,0,0,2.4-4.24C380.27,418.32,380.64,412.36,381.23,405.47Z" transform="translate(-22.58 -8.43)"/>
    <path d="M482.4,162.63c2.21,10.1-7.82,11.89-14.64,16.1a61.43,61.43,0,0,1-12.47,6c-1.77.6-4.25-.92-6.41-1.48,1-1.88,1.58-4.74,3.14-5.47,6.11-2.88,9.53-5.34,6.83-13.7-3.66-11.28,2.68-19.27,12.39-18.46C477.86,146.17,482.24,152.22,482.4,162.63Z" transform="translate(-22.58 -8.43)"/>
    <path d="M111.46,387.76c-1.73,8.66-2.74,16.21-10.62,14.93-3.74-.6-8.48-6.84-9.28-11.17-1.35-7.21,4-11.67,12-10.39C106.78,381.65,109.42,386,111.46,387.76Z" transform="translate(-22.58 -8.43)"/>
    <path d="M374,93.32c0-5-.19-10,.14-15,.08-1.27,1.84-2.42,2.83-3.63.86,1.21,2.43,2.38,2.48,3.62.43,9.07.76,18.16.57,27.23,0,1.8-2.45,3.54-3.76,5.31-.9-1.85-2.39-3.64-2.59-5.56a119.77,119.77,0,0,1-.12-12Z" transform="translate(-22.58 -8.43)"/>
    <path d="M382.38,204.58c0,7.24.25,14.49-.16,21.71-.12,2.07-2.15,4-3.3,6-1-1.88-2.87-3.72-3-5.64-.37-8.06-.38-16.16-.13-24.23.07-2,1.62-3.88,2.48-5.82.95,2,1.95,4,2.82,6a5.41,5.41,0,0,1,0,1.89Z" transform="translate(-22.58 -8.43)"/>
    <path d="M378.59,348.37c0-8.62-.07-17.24.1-25.85,0-1,1.4-2,2.15-2.93.67,1,1.85,1.9,1.94,2.92.79,9.33,1.62,18.67,1.83,28,0,1.54-2.85,3.14-4.38,4.72-.94-2.18-1.87-4.36-2.81-6.55Z" transform="translate(-22.58 -8.43)"/>
    <path d="M384.4,286.33l-4.36,5c-1.15-2-3.24-4.06-3.27-6.12-.13-8.42.29-16.85.74-25.26.07-1.15,1.49-2.22,2.28-3.33.85,1.11,2.42,2.21,2.45,3.34.2,8.51.11,17,.11,25.54Z" transform="translate(-22.58 -8.43)"/>
    <path d="M207.22,315.41c0,4.8.22,9.61-.13,14.38-.11,1.46-1.8,2.81-2.76,4.22-1.09-1.22-3.13-2.43-3.13-3.65,0-9,.28-17.95.72-26.92.06-1.08,1.56-2.1,2.4-3.15.69,1.06,1.86,2.06,2,3.17.44,4,.51,8,.73,11.94Z" transform="translate(-22.58 -8.43)"/>
    <path d="M207,265.25c0,4.92.29,8-.15,11.06-.17,1.13-1.93,2.61-3.15,2.81-.78.12-2.72-1.79-2.73-2.81-.12-7,0-13.93.37-20.88.05-1,1.58-2,2.42-3,.84,1.1,2.22,2.12,2.41,3.32C206.69,259.49,206.8,263.3,207,265.25Z" transform="translate(-22.58 -8.43)"/>
    <path d="M375,153.63c.22-4,.32-8.11.74-12.13.1-.92,1.3-1.72,2-2.57.62.89,1.7,1.75,1.79,2.69.63,6.76,1.22,13.54,1.43,20.32,0,1.62-1.19,3.41-2.21,4.86-.29.41-2.57.2-2.79-.27a13,13,0,0,1-1.44-5.36,50.88,50.88,0,0,1,1.1-7.49Z" transform="translate(-22.58 -8.43)"/>
    <path d="M207.22,414.2c.2,4.08.65,8.16.45,12.22-.07,1.45-1.73,2.83-2.66,4.24-.94-1.39-2.66-2.75-2.7-4.17-.23-7.29-.13-14.6.12-21.89,0-1.33,1.28-2.63,2-3.94.94,1.34,2.5,2.6,2.69,4A73.48,73.48,0,0,1,207.22,414.2Z" transform="translate(-22.58 -8.43)"/>
    <path d="M205.75,178.8c0,3.45.19,6.92-.11,10.34-.1,1.07-1.54,2-2.37,3-1-1-2.82-2-2.83-3-.05-7,.19-14,.59-21,.06-1,1.55-1.85,2.37-2.77.76,1,2.09,2,2.18,3,.28,3.43.1,6.9.1,10.36Z" transform="translate(-22.58 -8.43)"/>
    <path d="M444.58,188.87a2.87,2.87,0,0,1,.75,2.23,16,16,0,0,1-2.82,6.4,76.14,76.14,0,0,1-7.75,7.59,3.65,3.65,0,0,1-2.32,1c-.54,0-1.3-.94-1.51-1.61C429.17,199.14,436.75,188.85,444.58,188.87Z" transform="translate(-22.58 -8.43)"/>
    <path d="M469.41,388.69c1.68-.28,4.69-.92,7.74-1.24a5.41,5.41,0,0,1,2.87,1c-.37,1.78-.89,4.94-1.62,5a125,125,0,0,1-16.76.36c-.88,0-1.66-2.31-2.48-3.54a20.9,20.9,0,0,1,4.24-1.76C464.88,388.23,466.47,388.56,469.41,388.69Z" transform="translate(-22.58 -8.43)"/>
    <path d="M207.4,458.11c.44,3.5,1.11,7,1.21,10.51.06,1.7-.94,3.43-1.46,5.15-1.6-1.36-4.5-2.65-4.59-4.1a124,124,0,0,1,.53-17.12c.08-1.07,1.62-2,2.49-3,.73,1.12,1.83,2.16,2.1,3.39a24,24,0,0,1,.09,5.16Z" transform="translate(-22.58 -8.43)"/>
    <path d="M298.26,336.43c-2.43,5.16-4.76,10.32-7.36,15.35-.33.64-2.16,1-3.09.7-.75-.21-1.88-1.76-1.68-2.3,1.9-5.33,3.93-10.63,6.23-15.79.35-.77,2.4-1.23,3.53-1C296.67,333.49,297.21,335,298.26,336.43Z" transform="translate(-22.58 -8.43)"/>
    <path d="M446.05,400.44c-3.8-3.68-7-6.55-9.83-9.72-.53-.6,0-3.31.52-3.48a7.46,7.46,0,0,1,4.5.2,99.78,99.78,0,0,1,10.05,4.29c1,.49,1.63,1.74,2.43,2.64Z" transform="translate(-22.58 -8.43)"/>
    <path d="M206.81,359.69c.23,4.34.68,8.69.54,13,0,1.26-1.81,2.46-2.79,3.68-1.06-1.05-3-2.11-3-3.14.1-6.26.55-12.52,1.12-18.76.11-1.2,1.3-2.3,2-3.45a16.94,16.94,0,0,1,2,3.76,24.68,24.68,0,0,1,.31,4.89Z" transform="translate(-22.58 -8.43)"/>
    <path d="M307.41,282.37c1.7-4.77,2.92-8.95,4.74-12.85.53-1.13,2.77-1.47,4.22-2.18.5,1.39,1.65,2.93,1.38,4.14a71.15,71.15,0,0,1-3.63,11.68c-.59,1.42-2.53,2.28-3.85,3.39C309.34,285.19,308.41,283.82,307.41,282.37Z" transform="translate(-22.58 -8.43)"/>
    <path d="M426.41,256.39c2.27-2.65,3.1-4.48,4.24-4.69a4.89,4.89,0,0,1,3.92,1.81,88.61,88.61,0,0,1,6.1,9.95c.52,1,.7,2.76.15,3.45a3.42,3.42,0,0,1-3.34.31C433.79,263.9,430.36,260.31,426.41,256.39Z" transform="translate(-22.58 -8.43)"/>
    <path d="M203.56,230.05c-2.44.55-4.86,1.45-7.32,1.55-1.78.07-3.61-.91-5.41-1.42.9-1.51,1.45-3.69,2.77-4.38a33.54,33.54,0,0,1,8.75-2.82c1.28-.26,2.78.58,4.18.93-.36,1.39-.72,2.78-1.06,4.18l.13.11-.18-.16c.4,1,1.4,2.35,1.09,2.76a7.54,7.54,0,0,1-3.32,2.31c-.44.17-1.34-.9-2-1.41l2.33-1.71a1.93,1.93,0,0,0,.21-.13s0-.12.05-.18Z" transform="translate(-22.58 -8.43)"/>
    <path d="M315.78,390.83c-1.22-.15-3,.16-4-.58a63.49,63.49,0,0,1-6.27-5.7,53.41,53.41,0,0,1,7.13-1.22,22.05,22.05,0,0,1,7,.76c1.64.48,3,1.92,4.49,2.93a30.62,30.62,0,0,1-4.32,3.29C318.72,390.86,317.29,390.66,315.78,390.83Z" transform="translate(-22.58 -8.43)"/>
    <path d="M295.14,316.05c2.3-5.58,4.32-11,6.86-16.19.51-1.05,3-1.15,4.53-1.68.2,1.47,1,3.2.48,4.36-2.29,5.2-4.9,10.26-7.53,15.3-.3.58-1.77,1.19-2.18.94C296.46,318.26,296,317.17,295.14,316.05Z" transform="translate(-22.58 -8.43)"/>
    <path d="M428.4,221.08c0,5.93.14,9.73-.1,13.51-.06,1-1.14,2.56-2,2.71-1,.18-3.19-.83-3.21-1.38a131.87,131.87,0,0,1,.28-15.14c0-.62,2.76-1.71,3.86-1.37S428.75,221.69,428.4,221.08Z" transform="translate(-22.58 -8.43)"/>
    <path d="M495.38,366c-1.65,3.56-2.9,7.09-4.91,10.12-.63.95-3.31.54-5.06.76,0-1.59-.43-3.27,0-4.75a33.83,33.83,0,0,1,2.79-7.31,29.33,29.33,0,0,1,3.65-4.53Z" transform="translate(-22.58 -8.43)"/>
    <path d="M495.66,343.43c-1.4,1.92-2,3.57-2.9,3.76a3.79,3.79,0,0,1-3.2-1.66,129.05,129.05,0,0,1-5.17-12.25,3.18,3.18,0,0,1,1-2.88c.85-.5,3-.5,3.27,0C491.18,334.66,493.37,339.07,495.66,343.43Z" transform="translate(-22.58 -8.43)"/>
    <path d="M156.56,314.82l3.57-9.41c1.29,3,2.65,6,3.85,9a4.77,4.77,0,0,1,.41,3.18A45,45,0,0,1,161.1,323a44.34,44.34,0,0,1-3.21-4.82c-.4-.79-.07-2-.07-3Z" transform="translate(-22.58 -8.43)"/>
    <path d="M430.78,379.14l-3.38,5.7c-1.34-.83-3-1.4-4-2.55a71.37,71.37,0,0,1-5.23-7.51c-.55-.87-1.3-2.5-.95-2.88.77-.87,2.77-2,3.23-1.61C424,373,427.32,376.1,430.78,379.14Z" transform="translate(-22.58 -8.43)"/>
    <path d="M123.63,388.55l-5.25-4.35a51.51,51.51,0,0,1,5.16-3.73,31.82,31.82,0,0,1,6.64-2.83,4.3,4.3,0,0,1,3.63.71c.64.66.77,3,.22,3.45C130.91,384.13,127.52,386.09,123.63,388.55Z" transform="translate(-22.58 -8.43)"/>
    <path d="M403.5,353.18l7.46,6.58c-1.2,1.3-2.18,3.11-3.66,3.74-1.15.48-3-.34-4.42-.87-2.34-.87-4.6-2-6.89-3Z" transform="translate(-22.58 -8.43)"/>
    <path d="M292.26,361.73c1.2,1.52,2.34,2.53,2.92,3.8a56.76,56.76,0,0,1,2.94,7.9c.36,1.28,0,2.75,0,4.14-1.57-.09-4.27.3-4.54-.35a101.15,101.15,0,0,1-4.32-12.86C289.13,363.92,290.78,363,292.26,361.73Z" transform="translate(-22.58 -8.43)"/>
    <path d="M157.31,287.36c.48-4.14.23-6.53,1.12-8.37.74-1.54,2.82-2.44,4.3-3.62a31.78,31.78,0,0,1,1.59,4.64,9.94,9.94,0,0,1,0,4.57,69.61,69.61,0,0,1-3.16,7.28Z" transform="translate(-22.58 -8.43)"/>
    <path d="M368.41,367.76l-4.19-5.13c3.3-2.16,6.47-4.62,10-6.24.8-.37,2.93,2.17,4.45,3.36Z" transform="translate(-22.58 -8.43)"/>
    <path d="M356.81,375.65c-4.2,2.67-8.21,5.27-12.33,7.68-.28.17-2-1.05-2-1.64a5.85,5.85,0,0,1,1.07-3.85,63.37,63.37,0,0,1,7.4-6.37,4,4,0,0,1,3.22-.7C354.94,371.09,355.23,372.58,356.81,375.65Z" transform="translate(-22.58 -8.43)"/>
    <path d="M323.7,205.52l-4.26,3.06c-2.74-3.94-5.6-7.8-8.05-11.91-.29-.49,1.71-2.34,2.66-3.55Z" transform="translate(-22.58 -8.43)"/>
    <path d="M326.38,242.62c-1,4.43-1.72,8.17-2.87,11.77-.34,1.08-2,1.74-3,2.59-.67-1.13-2-2.29-1.9-3.37a59.15,59.15,0,0,1,1.57-11.19c.29-1.13,2.37-2.27,3.76-2.47C324.63,239.84,325.65,241.78,326.38,242.62Z" transform="translate(-22.58 -8.43)"/>
    <path d="M282.2,166.6l4.59,4.33c-4,2.5-7.89,5.11-12,7.32-.46.25-2.17-1.84-3.31-2.85Z" transform="translate(-22.58 -8.43)"/>
    <path d="M162.75,261l6.91-9.49c.77,1.21,2.44,2.66,2.18,3.58-1.2,4.28-2.93,8.41-4.47,12.6Z" transform="translate(-22.58 -8.43)"/>
    <path d="M304.91,187.62,295,178.05c1.06-.91,2.69-2.82,3.09-2.59,3.87,2.22,7.52,4.81,11.24,7.29Z" transform="translate(-22.58 -8.43)"/>
    <path d="M457.67,291.69c-3.64-4-6.52-7.06-9.22-10.32a19.94,19.94,0,0,1,3.09-2.85,123.49,123.49,0,0,1,9.6,8.7A53.76,53.76,0,0,1,457.67,291.69Z" transform="translate(-22.58 -8.43)"/>
    <path d="M268,187.56c-1.51,3.75-2.75,7.24-4.36,10.55-.47,1-2,1.42-3.06,2.11-.61-1.21-1.9-2.53-1.71-3.59a49.05,49.05,0,0,1,2.87-10.11c.46-1.08,2.51-1.89,3.9-2C266.25,184.46,267.07,186.34,268,187.56Z" transform="translate(-22.58 -8.43)"/>
    <path d="M481.65,312.21c-3,1.72-5.2,3.36-5.47,3.09-3.14-3.17-6-6.63-8.93-10,.93-.75,2.43-2.31,2.69-2.12C473.53,305.72,477,308.51,481.65,312.21Z" transform="translate(-22.58 -8.43)"/>
    <path d="M154.86,363.2l-11.72,8c-.51-1.24-1.8-3-1.39-3.63a75.73,75.73,0,0,1,6.8-8.19,2.5,2.5,0,0,1,2.27-.55C151.72,359.33,152.33,360.38,154.86,363.2Z" transform="translate(-22.58 -8.43)"/>
    <path d="M163.18,337.92c-2.34,3.81-4.56,7.42-6.79,11-1-1-3-2.16-2.91-2.91a54.92,54.92,0,0,1,3.14-9.89,3.44,3.44,0,0,1,2.87-1.51C160.4,334.75,161.16,336,163.18,337.92Z" transform="translate(-22.58 -8.43)"/>
    <path d="M173,241.89c4.06-2.87,7.05-5.22,10.33-7.07.56-.31,2.31,1.48,3.52,2.3-3.13,3-6.22,5.95-9.49,8.74C177.23,246,175.43,244.11,173,241.89Z" transform="translate(-22.58 -8.43)"/>
    <path d="M257.85,206.24c-3.88,2.73-7.08,5-10.4,7.16a8.71,8.71,0,0,1-2.06-2.3c2.73-3.41,5.64-6.69,8.52-10Z" transform="translate(-22.58 -8.43)"/>
    <path d="M230.75,225.86,226.3,221c3.49-1.76,6.94-3.6,10.5-5.2.38-.17,1.4,1.1,2.13,1.69C236.45,220,234,222.56,230.75,225.86Z" transform="translate(-22.58 -8.43)"/>
    <path d="M199.24,218.2l4.07-9.49c1,1.35,2.87,2.68,2.9,4.06.08,3-.76,6.13-1.22,9.2Z" transform="translate(-22.58 -8.43)"/>
    <path d="M318.48,229.52c.39-2.92.35-4.54.88-5.93a3.29,3.29,0,0,1,2.34-1.92c.75,0,1.79,1.25,2.11,2.15a9.6,9.6,0,0,1,.4,4,60,60,0,0,1-1.25,7.41c0,.16-2.18.26-2.34-.08C319.62,233,318.89,230.65,318.48,229.52Z" transform="translate(-22.58 -8.43)"/>
    <path d="M203.56,230.05l.19-.37c0,.06,0,.14-.05.18a1.93,1.93,0,0,1-.21.13Z" transform="translate(-22.58 -8.43)" fill="#fff"/>
    <path d="M205.42,228l.18.16-.13-.11Z" transform="translate(-22.58 -8.43)" fill="#fff"/>
  </g>
</svg>
